<svg id="objects" xmlns="http://www.w3.org/2000/svg" width="1155" height="815" viewBox="0 0 1155 815"><defs><style>.cls-1{fill:#d32027;}.cls-2{fill:#485c79;}.cls-3{fill:#707d98;}.cls-4{fill:#d5d5d5;}.cls-5{fill:#393939;}</style></defs><title>Hacker</title><rect y="712.8438" width="1155" height="65.1562"/><rect y="782" width="1155" height="33"/><path class="cls-1" d="M655.1842,377.9717s207.1913,1.2222,256.6224,49.6022,90.4486,111.4837,97.81,119.8976,4.2075,23.1381,12.6211,32.6036,53.6386,70.4657,57.8462,79.9316c4.206,9.4655,37.8619,35.7588,45.2244,52.5863s17.8789,79.9321,8.4135,92.5524-23.1377,31.552-72.5688,31.552c-49.4327,0-105.1735-82.0349-117.7946-94.6557s-37.8626-29.4487-42.0694-44.1731-9.4655-31.5517-19.9828-44.1721c0,0,4.2076,47.3277,6.31,58.8965,2.1038,11.5693,4.2076,56.7932-5.2578,72.57C872.8929,800.9382,852,807.4316,852,819s-390,1-390,1L428.01,643.1788s-61,64.1551-65.2062,71.5176c-4.2076,7.3625-25.2423,103.07-59.95,124.1049s-132.518,6.31-143.0353-24.19c-10.5174-30.501-3.1549-88.346,12.6211-112.5356s31.5521-25.2414,36.8107-34.7073,21.0339-30.6712,26.2935-40.0513c5.2578-9.38,12.6211-28.3115,24.19-34.6217s19.9819-1.0515,28.3971-11.5688c8.4136-10.5174,8.4136-33.6555,27.3445-58.8969s47.3289-59.9489,61-69.4143C390.1483,443.35,401.7167,416.005,421.7,406.54s103.8859-18.2383,132.9252-23.3177C583.6665,378.1424,655.1842,377.9717,655.1842,377.9717Z" transform="translate(-72 -91)"/><path class="cls-1" d="M549.9925,433.0271S630.9048,538.58,649.9791,538.58c19.076,0,68.1642-65.5949,85.4463-86.5818l-108.6788-36.05Z" transform="translate(-72 -91)"/><path class="cls-1" d="M413.5456,463.1328c-14.1817-21.2726,17.7257,44.3179,0,108.1351l-27.3016,5.5859s-14.8767-8.2647-17.7685-5.785.4138,14.8762-27.6866,5.785-7.4383,4.5456,4.5448,12.3974c11.9847,7.8513,34.2988,22.7276,38.4315,27.2731s-29.7526-7.8513-37.1917-5.785c-7.4375,2.0659,38.0177,31.4053,39.2566,38.4306,1.2408,7.0254-71.9017-10.7444-79.7531-8.6782s28.9256,23.141,32.6452,27.6871-11.9847,9.9171-21.4881,11.9835c-9.5051,2.0662-31.4053-1.2395-31.8192,2.8926s15.7027,17.7694,14.0507,21.4886c-1.6537,3.7191-65.7858-35.0231-115.54,3.5633l31.24,41.4792,128.1834,24.5c10.6591-28.3831,17.2887-55.5986,19.4552-59.39,4.2059-7.3625,65.2062-71.5176,65.2062-71.5176l6.8077-86.1375S427.7265,484.4057,413.5456,463.1328Z" transform="translate(-72 -91)"/><path class="cls-2" d="M1099.0539,714.8864q.2931.3377.5985.69C1099.457,715.3518,1099.2575,715.1206,1099.0539,714.8864Z" transform="translate(-72 -91)"/><path class="cls-2" d="M1098.1611,713.8577q.4575.5286.8928,1.0287C1098.7431,714.5283,1098.4438,714.1841,1098.1611,713.8577Z" transform="translate(-72 -91)"/><path class="cls-2" d="M1099.6524,715.5765c.0519.06.1031.1182.155.178C1099.7555,715.6947,1099.7027,715.6354,1099.6524,715.5765Z" transform="translate(-72 -91)"/><path class="cls-2" d="M1101.5246,717.733c.2267.2614.4434.5115.6562.7564C1101.9631,718.2375,1101.7422,717.9853,1101.5246,717.733Z" transform="translate(-72 -91)"/><path class="cls-2" d="M1099.8074,715.7545l1.7172,1.9785Q1100.7257,716.8137,1099.8074,715.7545Z" transform="translate(-72 -91)"/><path class="cls-2" d="M1102.1808,718.4894c.0222.0259.0445.0523.0684.0783C1102.2269,718.5417,1102.203,718.5153,1102.1808,718.4894Z" transform="translate(-72 -91)"/><path class="cls-2" d="M1097.3713,712.9479c.2449.282.51.5866.79.91Q1097.7753,713.4137,1097.3713,712.9479Z" transform="translate(-72 -91)"/><path class="cls-2" d="M1096.4844,711.9253l.0642.0746C1096.5272,711.9748,1096.5041,711.95,1096.4844,711.9253Z" transform="translate(-72 -91)"/><path class="cls-1" d="M1000.9263,692.3155c-6.2752-7.2392-28.4747-12.5477-36.1966-18.8217s2.8961-21.2349-1.93-24.1306-47.2959,8.2046-51.8654-4.0295c-2.249-6.0216,28.731-57.9728,22.061-56.9473s-34.3739,16.417-35.9138,10.7737c-1.5383-5.6436,56.4349-55.4081,53.87-60.5386s-62.5905,27.1911-64.0671,23.3132c-11.1982-29.4086,6.9034-108.5267,0-91.7613-26.5415,64.4557-28.7557,217.9688-28.7557,217.9688,0,17.8567,4.7714,17.8992-4.3989,19.9646-16.8237,3.79-2.4121,65.2866-2.4121,65.2866l34.472,3.21c5.4227-19.66,3.6256-54.1242,1.8268-64.0109-2.1021-11.5688-6.31-58.8965-6.31-58.8965,10.5173,12.62,15.7752,29.4483,19.9828,44.1721s29.4483,31.552,42.0694,44.1731c4.2892,4.2888,13.5576,16.5938,25.8672,30.9713l126.4176-62.0559C1068.2611,679.4079,1007.2,699.5548,1000.9263,692.3155Z" transform="translate(-72 -91)"/><path class="cls-2" d="M1096.71,712.1871c.2243.2575.4452.5119.6611.7608C1097.1307,712.6705,1096.91,712.4154,1096.71,712.1871Z" transform="translate(-72 -91)"/><path class="cls-2" d="M1095.6583,710.9732a.3806.3806,0,0,0,.028.0326C1095.6764,710.9954,1095.6666,710.9839,1095.6583,710.9732Z" transform="translate(-72 -91)"/><path class="cls-2" d="M1095.6583,710.9732l-.0148-.0161Z" transform="translate(-72 -91)"/><path class="cls-2" d="M1095.6863,711.0058c.0166.02.033.0383.0495.058Z" transform="translate(-72 -91)"/><path class="cls-2" d="M1102.2492,718.5677c.1756.2024.3471.4011.5136.5923Q1102.5081,718.8657,1102.2492,718.5677Z" transform="translate(-72 -91)"/><path class="cls-2" d="M1095.7358,711.0638c.1286.148.3883.4473.7486.8615Q1096.1157,711.5017,1095.7358,711.0638Z" transform="translate(-72 -91)"/><path class="cls-2" d="M1096.5486,712c.0519.06.1055.1224.1616.1872C1096.6574,712.1248,1096.6031,712.0621,1096.5486,712Z" transform="translate(-72 -91)"/><path class="cls-2" d="M1106.6769,723.67c.3628.4175.6529.7518.8491.9785C1107.3414,724.436,1107.0627,724.1145,1106.6769,723.67Z" transform="translate(-72 -91)"/><path class="cls-2" d="M1107.526,724.6487c.1039.1187.1781.2045.2243.2584C1107.7024,724.8515,1107.6266,724.7641,1107.526,724.6487Z" transform="translate(-72 -91)"/><path class="cls-2" d="M1106.1839,723.1018c.1814.2085.3446.3973.493.5684Q1106.4494,723.4068,1106.1839,723.1018Z" transform="translate(-72 -91)"/><path class="cls-2" d="M1105.8426,722.7081q.1757.2034.3413.3937C1106.076,722.9769,1105.9622,722.8462,1105.8426,722.7081Z" transform="translate(-72 -91)"/><path class="cls-2" d="M1107.7964,724.959c.0214.0248.0214.026,0,0Z" transform="translate(-72 -91)"/><path class="cls-2" d="M1102.7628,719.16c.094.1076.1863.2147.2786.3215C1102.9491,719.3756,1102.8584,719.27,1102.7628,719.16Z" transform="translate(-72 -91)"/><path class="cls-2" d="M1107.7634,724.9224l.033.0366Z" transform="translate(-72 -91)"/><path class="cls-2" d="M1107.75,724.9071l.0131.0153A.0652.0652,0,0,0,1107.75,724.9071Z" transform="translate(-72 -91)"/><path class="cls-2" d="M1103.3118,719.7927c.33.3789.6512.75.9629,1.1088Q1103.8271,720.3852,1103.3118,719.7927Z" transform="translate(-72 -91)"/><path class="cls-2" d="M1104.2747,720.9015c.0593.07.12.1393.18.2069C1104.3942,721.04,1104.334,720.9711,1104.2747,720.9015Z" transform="translate(-72 -91)"/><path class="cls-2" d="M1103.0414,719.4815c.0923.1056.183.2094.27.3112C1103.2228,719.6893,1103.1321,719.5858,1103.0414,719.4815Z" transform="translate(-72 -91)"/><path class="cls-2" d="M1104.8534,721.5676c.0873.1022.1747.2019.2589.2984C1105.0265,721.7684,1104.9391,721.6686,1104.8534,721.5676Z" transform="translate(-72 -91)"/><path class="cls-2" d="M1105.1123,721.866c.1994.23.3923.453.5753.6649Q1105.4181,722.2206,1105.1123,721.866Z" transform="translate(-72 -91)"/><path class="cls-2" d="M1105.6876,722.5309c.0528.06.1039.1191.155.1772C1105.7915,722.65,1105.74,722.5907,1105.6876,722.5309Z" transform="translate(-72 -91)"/><path class="cls-2" d="M1104.4544,721.1084q.2028.2345.399.4592C1104.7248,721.42,1104.5929,721.2671,1104.4544,721.1084Z" transform="translate(-72 -91)"/><path class="cls-1" d="M811.9091,327.3964s-40.74-96.9388-50.2489-115.9555-27.8918-72.8984-64.6572-95.7187C660.236,92.9019,653.11,91,644.3124,91s-55.0731,33.597-69.0182,47.5425c-13.9467,13.9459-39.9359,69.7291-50.079,80.5054s-51.77,81.3033-51.77,108.7953l169.2314,23.0557Z" transform="translate(-72 -91)"/><path class="cls-1" d="M644.3124,91c-8.7985,0-55.0731,33.597-69.0182,47.5425-13.9467,13.9459-39.9359,69.7291-50.079,80.5054-7.4556,7.921-31.9231,48.1273-44.3645,79.7943h0s34.1719-35.3742,63.222-43.2264-10.1456-10.7573-12.3351-10.7573,15.2394-45.0276,29.0394-61.0048c13.7984-15.9776,53.0154-26.1454,61.7307-29.7763s-10.8933-12.3463-10.8933-22.5141S615.2788,103.4526,644.3124,91Z" transform="translate(-72 -91)"/><path class="cls-3" d="M649.1045,91.2988a45.6854,45.6854,0,0,1,5.4754,1.3133A31.68,31.68,0,0,0,649.1045,91.2988Z" transform="translate(-72 -91)"/><path class="cls-1" d="M761.66,211.4409c-9.5082-19.0166-27.8918-72.8984-64.6572-95.7187-11.0639-6.8671-19.4436-11.8392-25.9925-15.4365,28.5447,17.5172,55.7721,53.9953,60.8025,64.7484,6.4433,13.7765,35.819,80.5936,30.9148,80.5936-16.8551,0-66.7338-10.3327-37.1141,0s74.2266,53.2133,74.2282,53.2145C787.0344,268.66,767.8117,223.7439,761.66,211.4409Z" transform="translate(-72 -91)"/><path d="M640.5392,255.6158c44.1988,0,174.6394,39.8869,174.6394,84.0861s-44.7289,80.61-65.2112,98.9359-62.2567,61.69-99.9883,61.69c-37.73,0-101.0731-65.7594-117.2423-87.32-16.171-21.5607-59.2914-57.1353-59.2914-85.1644S584.4811,255.6158,640.5392,255.6158Z" transform="translate(-72 -91)"/><path d="M707.5962,268.223l-9.7054,6.8439-11.9229,69.82,23.8269,98.0213c70.5474-65.19,39.7785-127.0265,60.1141-130.8029,36.0087-6.6874,44.3257,38.7937,44.3257,38.7937h0a67.5853,67.5853,0,0,0,.944-11.197C815.1786,310.6407,758.7881,283.4437,707.5962,268.223Z" transform="translate(-72 -91)"/><path d="M529.35,305.48c8.2264,4.8383,14.5155,68.7032,34.8215,94.4324L587.41,338.38l2.6207-75.2311c-54.6955,13.83-116.5853,43.7689-116.5853,64.6943C493.3582,302.1912,517.49,298.503,529.35,305.48Z" transform="translate(-72 -91)"/><path class="cls-4" d="M555.6271,273.63a260.0138,260.0138,0,0,0-5.6346,54.5773c0,88.4568,60.209,150.29,99.9866,150.29,39.7794,0,99.9883-61.8334,99.9883-150.29a263.7726,263.7726,0,0,0-4.0444-46.5141c-38.4818-15.844-82.9963-26.0778-105.3838-26.0778C617.6381,255.6158,585.561,262.9932,555.6271,273.63Z" transform="translate(-72 -91)"/><path class="cls-1" d="M1069.9082,702.7941c-28.8464,0-67.301,18.1231-85.8881,25.1735s-26.28.641-35.2535,3.2048-26.281,20.3426-42.9449,20.5112c-16.6656.1686-58.3277,8.3324-77.5571,14.7418s-16.6655,67.3019-16.6655,67.3019,62.814,1.2818,80.7622,0c17.9466-1.282,23.7156-3.8458,28.2018-3.8458,4.4879,0,11.538,3.7035,22.4345,4.4154s44.8855-15.1161,58.3277-15.9525,84.978,14.2073,124.2116-3.1523l.3232-54.9812S1112.8531,702.7941,1069.9082,702.7941Z" transform="translate(-72 -91)"/><path class="cls-1" d="M1125.5369,815.1921h0a109.9137,109.9137,0,0,0,8.1852-10.0467c3.6132-4.8172,4.3139-16.9928,3.3907-31.1419-.6711,13.319-8.9659,16.853-11.3781,7.64s-17.2838-27.2444-20.3347-24.4212,12.2691,45.7873,8.4992,45.7873c-3.7723,0-4.6107-9.2194-6.7969-12.5721-2.1879-3.3523-5.3568,4.1911-8.4952,1.6772s-14.8807-16.3437-16.9755-15.5107,13.8289,33.111,2.9323,36.0442c-10.8949,2.9331-65.7915-10.0578-74.5926-10.0578-8.7993,0-31.94,12.6018-37.387,12.6018s-.57-12.8132-11.8858-22.7338c-2.816-2.4694,4.8053,17.8267-6.6658,35.0326a42.0673,42.0673,0,0,1-4.89,6.1506c14.2765-2.952,40.7108-14.5832,52.1828-15.2971C1014.7675,817.5073,1086.3033,832.5517,1125.5369,815.1921Z" transform="translate(-72 -91)"/><path d="M860.8463,758.1447s23.1641-2.0754,35.5149,0c12.3524,2.0749,40.1437,13.1033,49.408,30.3076,9.2626,17.2043,3.2744,33.2181-2.2061,39.2612s-13.2336-3.0881-24.7032-3.5288-55.5842,9.855-69.2588,5.59-21.6151-45.7333-21.6151-45.7333Z" transform="translate(-72 -91)"/><path class="cls-4" d="M945.7692,788.4523c-7.8514-14.58-29.0064-24.7225-42.7966-28.7414-5.0962,1.284-10.3178,2.3512-14.4677,1.1377-7.9634-2.3306-27.6586-2.7039-27.6586-2.7039l-32.86-.9225s3.02,65.5991,15.0951,67.4687c12.0729,1.87,31.2611,9.5594,46.2053,9.6295s28.4046-12.34,28.4046-12.34l27.0972,4.2208C949.85,819.2785,954.3426,804.3767,945.7692,788.4523Z" transform="translate(-72 -91)"/><path class="cls-4" d="M889.2864,834.32c10.9345.0511,21.0734-6.5789,25.7287-10.1406l-2.63-6.2813c-13.5626,8.3027-32.6649.1867-39.0324,0-4.3634-.1286-12.4628,5.1556-20.118,9.0615C864.4365,829.9146,878.0585,834.268,889.2864,834.32Z" transform="translate(-72 -91)"/><path class="cls-4" d="M902.9726,759.7109c-5.0962,1.284-10.3178,2.3512-14.4677,1.1377-4.4318-1.2967-12.495-1.9872-18.7759-2.3449,27.26,4.9429,46.4246,16.1774,47.3635,39.41s-14.5494,30.2722-25.816,36.3421h0c14.1281-.9493,26.4145-12.2757,26.4145-12.2757l27.0972,4.2208c5.0616-6.9227,9.5544-21.8245.981-37.7489C937.9178,773.8724,916.7628,763.73,902.9726,759.7109Z" transform="translate(-72 -91)"/><path class="cls-4" d="M945.7692,788.4523q-.7444-1.3818-1.6439-2.7109c.0009.002,4.4335,18.1032-8.43,27.318-7.6147,5.4557-12.6706,2.1117-14.0144,3.4557s-2.5539,4.2423-3.99,5.4653l27.0972,4.2208C949.85,819.2785,954.3426,804.3767,945.7692,788.4523Z" transform="translate(-72 -91)"/><path class="cls-1" d="M387.7443,753.4346c-15.3-3.5308-37.4034.6656-44.1352,0-6.7335-.6657-3.5317-7.65-7.0633-8.827-3.53-1.1772-13.5345-1.7658-27.0691-10.5932-13.5362-8.8269-57.6714-37.6623-80.0342-37.6623s-57.6707,15.3-65.3621,23.7267v0c-9.2758,27.1-12.4407,66.9461-5.1721,91.6744,9.2973,7.9391,20.4494,7.6655,28.1639,8.7677,12.3581,1.7654,47.0783,2.943,54.14,2.943s25.305,7.6493,38.1009,10.0544,18.9829-4.17,24.2778-4.17c5.2975,0,12.359,4.7075,22.3636,4.1185,10.003-.5878,24.1278-5.8848,31.7779-5.8848h30.0121S403.0447,756.9658,387.7443,753.4346Z" transform="translate(-72 -91)"/><path class="cls-1" d="M288.95,833.7182c-5.8019-.8272-15.3663-11.1476-10.8355-24.2382s-6.2933,11.6525-9.8175,12.12-26.6833-8.0921-30.2075-12.6232-3.02-17.1177-4.7822-18.1246-14.8527,26.51-20.39,25.4244c-5.539-1.0844-10.5726-3.2723-11.0763-5.7887-.5037-2.5181,20.1378-30.4589,18.1238-32.221s-41.2829,29.0208-47.3239,27.7257c-6.0426-1.2951,10.5726-47.8648,9.0623-50.8853S165.0886,780.28,162.32,784.5592s.7551-16.6136,2.5169-20.8938,19.3835-30.71,17.3686-32.4724c-2.013-1.7621-15.5213,13.8449-19.0875,18.88s-3.4475-14.1833-3.4475-14.1833h0c-5.6684,25.2254-6.7153,55.6135-.7617,75.8642,9.2973,7.9391,20.4494,7.6655,28.1639,8.7677,12.3581,1.7654,47.0783,2.943,54.14,2.943s25.305,7.6493,38.1009,10.0544a27.7351,27.7351,0,0,0,9.6369.2Z" transform="translate(-72 -91)"/><path d="M392.7467,759.171c-9.8677-.939-24.68-2.1723-34.4374-2.1723-15.76,0-67.2045,12.7823-74.9372,56.6052-.9645,5.4673,3.8581,13.5078,9.0055,13.1863,5.1457-.3212,14.7662-5.7978,26.05.01,9.3666,4.8192,23.794-3.0317,41.8057-6.8914,9.0088-1.9306,20.1147-1.0123,28.9635.3887C391.971,805.59,397.3549,772.6128,392.7467,759.171Z" transform="translate(-72 -91)"/><path class="cls-4" d="M389.1969,820.297c2.7741-14.7072,8.158-47.6842,3.55-61.126-9.8677-.939-24.68-2.1723-34.4374-2.1723-15.76,0-67.2045,12.7823-74.9372,56.6052-.9645,5.4673,3.8581,13.5078,9.0055,13.1863,2.0576-.1282,4.8316-1.0816,8.1415-1.8079,9.4523-2.16,25.2142-6.9359,28.797-6.9359,3.5844,0,17.4454,16.0012,32.9774,16.0012,9.4291,0,22.6546-9.2714,29.769-10.3925Z" transform="translate(-72 -91)"/><path class="cls-4" d="M392.0625,823.6551l-2.8656-3.3581c.2539-1.3438.5293-2.8416.8161-4.4611q-1.987.6046-4.33,1.2357c-12.8511,3.4385-45.972,3.4385-49.9537-3.4388s-4.3444-2.7147-8.6872-6.3349c-4.3445-3.62-11.9452-17.7368-5.431-29.3205,6.5159-11.5829,32.7548-18.6411,42.1717-20.8748-1.9423-.0659-3.7847-.1039-5.4739-.1039-15.76,0-67.2045,12.7823-74.9372,56.6052-.9645,5.4673,3.8581,13.5078,9.0055,13.1863,2.0576-.1282,4.8316-1.0816,8.1415-1.8079,9.4523-2.16,25.2142-6.9359,28.797-6.9359,3.5844,0,17.4454,16.0012,32.9774,16.0012C371.7226,834.0476,384.9481,824.7762,392.0625,823.6551Z" transform="translate(-72 -91)"/><path class="cls-4" d="M320.0592,810.04c-2.6487-.2411-15.1676,2.5066-17.339-8.91-3.7955-19.9709,14.6243-31.99,14.6532-32.0087-15.6251,8.6955-30.1728,22.7828-34.0013,44.4827-.9645,5.4673,3.8581,13.5078,9.0055,13.1863,2.0576-.1282,4.8316-1.0816,8.1415-1.8079,9.4523-2.16,25.2142-6.9359,28.797-6.9359C322.7161,813.9658,322.708,810.28,320.0592,810.04Z" transform="translate(-72 -91)"/><path class="cls-5" d="M858.1284,838.3248a20.6553,20.6553,0,0,1-20.456,20.848H403.5707a20.6543,20.6543,0,0,1-20.4561-20.848l-8.8157-260.0683a21.215,21.215,0,0,1,21.216-21.2152H845.7281a21.2151,21.2151,0,0,1,21.2161,21.2152Z" transform="translate(-72 -91)"/><path class="cls-5" d="M845.7281,557.0413H743.1515L463.32,859.1728H837.6724a20.6553,20.6553,0,0,0,20.456-20.848l8.8158-260.0683A21.2151,21.2151,0,0,0,845.7281,557.0413Z" transform="translate(-72 -91)"/><path class="cls-5" d="M858.1284,819.8646a20.6546,20.6546,0,0,1-20.456,20.8476H403.5707a20.6536,20.6536,0,0,1-20.4561-20.8476v18.46a20.6543,20.6543,0,0,0,20.4561,20.848H837.6724a20.6553,20.6553,0,0,0,20.456-20.848Z" transform="translate(-72 -91)"/></svg>