<svg xmlns="http://www.w3.org/2000/svg" xmlns:xlink="http://www.w3.org/1999/xlink" width="1007.898" height="896" viewBox="0 0 1007.898 896"><defs><linearGradient id="a" x1="0.468" y1="0.006" x2="0.673" y2="3.202" gradientUnits="objectBoundingBox"><stop offset="0" stop-color="#09005d"/><stop offset="1" stop-color="#1a0f91"/></linearGradient><linearGradient id="b" x1="0.446" y1="-2.158" x2="0.605" y2="6.275" xlink:href="#a"/></defs><g transform="translate(-848 -144)"><g transform="translate(-671 -48)"><path d="M1863.5,594.5C1621.217,420.489,1647,192,1647,192h848c37.832,0,31.5,31.168,31.5,69v758c0,37.831,6.332,69-31.5,69l-627.5-.5S2103.249,766.587,1863.5,594.5Z" fill="#f7f8fb"/></g><g transform="translate(2769 -79)"><g transform="translate(-1801.488 496.94)"><path d="M-1804.58,740.327a1.022,1.022,0,0,1-.71-.036l-2.356-1.014a1.024,1.024,0,0,1-.533-1.346,1.023,1.023,0,0,1,1.346-.533l2.35,1.012a1.023,1.023,0,0,1,.537,1.344A1.022,1.022,0,0,1-1804.58,740.327Zm-8.917-3.9a1.02,1.02,0,0,1-.724-.042q-1.406-.628-2.81-1.264a1.024,1.024,0,0,1-.511-1.354,1.024,1.024,0,0,1,1.354-.511q1.4.633,2.8,1.26a1.023,1.023,0,0,1,.516,1.352A1.02,1.02,0,0,1-1813.5,736.428Zm-9.318-4.258a1.024,1.024,0,0,1-.74-.049q-1.394-.652-2.787-1.312a1.024,1.024,0,0,1-.486-1.364,1.025,1.025,0,0,1,1.363-.486q1.387.659,2.776,1.307a1.024,1.024,0,0,1,.494,1.361A1.024,1.024,0,0,1-1822.815,732.17Zm-9.236-4.426a1.015,1.015,0,0,1-.758-.058q-1.381-.678-2.76-1.365a1.023,1.023,0,0,1-.459-1.373,1.025,1.025,0,0,1,1.372-.459q1.372.684,2.748,1.36a1.023,1.023,0,0,1,.467,1.369A1.017,1.017,0,0,1-1832.051,727.745Zm-9.144-4.606a1.023,1.023,0,0,1-.777-.067q-1.366-.707-2.729-1.422a1.024,1.024,0,0,1-.43-1.383,1.024,1.024,0,0,1,1.383-.43q1.356.712,2.717,1.417a1.024,1.024,0,0,1,.439,1.38A1.023,1.023,0,0,1-1841.194,723.139Zm-9.037-4.8a1.021,1.021,0,0,1-.8-.078q-1.351-.737-2.694-1.483a1.025,1.025,0,0,1-.4-1.392,1.025,1.025,0,0,1,1.392-.4q1.337.743,2.681,1.477a1.022,1.022,0,0,1,.407,1.388A1.019,1.019,0,0,1-1850.232,718.338Zm-8.919-5.01a1.02,1.02,0,0,1-.82-.091q-1.332-.769-2.655-1.549a1.024,1.024,0,0,1-.363-1.4,1.023,1.023,0,0,1,1.4-.363q1.318.775,2.643,1.542a1.023,1.023,0,0,1,.373,1.4A1.019,1.019,0,0,1-1859.151,713.328Zm-8.786-5.236a1.021,1.021,0,0,1-.844-.1q-1.31-.806-2.611-1.621a1.023,1.023,0,0,1-.324-1.41,1.023,1.023,0,0,1,1.41-.324q1.293.81,2.6,1.611a1.024,1.024,0,0,1,.336,1.408A1.022,1.022,0,0,1-1867.937,708.092Zm-8.632-5.481a1.021,1.021,0,0,1-.869-.12q-1.287-.844-2.561-1.7a1.024,1.024,0,0,1-.281-1.42,1.022,1.022,0,0,1,1.42-.281q1.267.849,2.544,1.687a1.023,1.023,0,0,1,.295,1.417A1.021,1.021,0,0,1-1876.569,702.611Zm-8.455-5.744a1.021,1.021,0,0,1-.9-.139q-1.259-.885-2.5-1.782a1.023,1.023,0,0,1-.233-1.428,1.023,1.023,0,0,1,1.428-.232q1.237.889,2.486,1.768a1.024,1.024,0,0,1,.248,1.427A1.022,1.022,0,0,1-1885.024,696.867Zm-8.252-6.029a1.025,1.025,0,0,1-.927-.161q-1.229-.934-2.444-1.878a1.023,1.023,0,0,1-.18-1.436,1.022,1.022,0,0,1,1.436-.18q1.2.937,2.425,1.863a1.024,1.024,0,0,1,.2,1.435A1.02,1.02,0,0,1-1893.275,690.838Zm-8.029-6.348a1.024,1.024,0,0,1-.959-.186q-1.191-.982-2.367-1.976a1.024,1.024,0,0,1-.12-1.442,1.022,1.022,0,0,1,1.443-.121q1.164.985,2.347,1.959a1.024,1.024,0,0,1,.139,1.441A1.023,1.023,0,0,1-1901.3,684.49Zm-7.754-6.679a1.022,1.022,0,0,1-.993-.216q-1.149-1.035-2.277-2.082a1.024,1.024,0,0,1-.055-1.447,1.023,1.023,0,0,1,1.446-.054q1.117,1.037,2.255,2.062a1.023,1.023,0,0,1,.075,1.445A1.013,1.013,0,0,1-1909.058,677.812Zm-7.432-7.034a1.024,1.024,0,0,1-1.03-.25q-1.1-1.091-2.171-2.194a1.023,1.023,0,0,1,.019-1.447,1.021,1.021,0,0,1,1.447.019q1.062,1.091,2.149,2.171a1.025,1.025,0,0,1,0,1.448A1.02,1.02,0,0,1-1916.491,670.778Zm-7.058-7.41a1.023,1.023,0,0,1-1.068-.291q-1.033-1.146-2.049-2.311a1.024,1.024,0,0,1,.1-1.445,1.025,1.025,0,0,1,1.444.1q1,1.151,2.026,2.286a1.023,1.023,0,0,1-.076,1.446A1.019,1.019,0,0,1-1923.549,663.367Zm-6.63-7.8a1.024,1.024,0,0,1-1.107-.338q-.966-1.207-1.906-2.433a1.023,1.023,0,0,1,.188-1.435,1.024,1.024,0,0,1,1.436.189q.928,1.21,1.881,2.4a1.024,1.024,0,0,1-.16,1.439A1.03,1.03,0,0,1-1930.18,655.572Zm-6.118-8.2a1.024,1.024,0,0,1-1.149-.394q-.66-.953-1.3-1.917-.893.371-1.8.722a1.033,1.033,0,0,1-1.324-.584,1.023,1.023,0,0,1,.584-1.324q1.411-.548,2.8-1.151a1.016,1.016,0,0,1,1.346.533,1.019,1.019,0,0,1,.061.625q.647.971,1.312,1.932a1.023,1.023,0,0,1-.259,1.424A.993.993,0,0,1-1936.3,647.368Zm-11.1.717-.027.008q-1.5.427-3.01.791a1.024,1.024,0,0,1-1.234-.755,1.022,1.022,0,0,1,.755-1.235q1.472-.354,2.929-.77a1.023,1.023,0,0,1,1.264.7A1.022,1.022,0,0,1-1947.393,648.085Zm-10.006,2.105a1.012,1.012,0,0,1-.17.038c-1.033.14-2.074.258-3.1.351a1.023,1.023,0,0,1-1.111-.927,1.022,1.022,0,0,1,.927-1.112q1.507-.137,3.005-.341a1.024,1.024,0,0,1,1.152.877A1.024,1.024,0,0,1-1957.4,650.19Zm26.075-8.678a1.023,1.023,0,0,1-1.207-.492,1.023,1.023,0,0,1,.417-1.386q1.335-.717,2.648-1.482a1.022,1.022,0,0,1,1.4.369,1.024,1.024,0,0,1-.369,1.4q-1.343.783-2.71,1.517A1.068,1.068,0,0,1-1931.324,641.513Zm-36.282,9.288a1.011,1.011,0,0,1-.325.046l-.7-.015q-1.211-.034-2.411-.111a1.025,1.025,0,0,1-.955-1.088,1.025,1.025,0,0,1,1.088-.955q1.164.076,2.334.108l.685.016a1.022,1.022,0,0,1,1.005,1.041A1.023,1.023,0,0,1-1967.606,650.8Zm45-14.632a1.023,1.023,0,0,1-1.148-.395,1.023,1.023,0,0,1,.259-1.424q1.247-.864,2.47-1.767a1.024,1.024,0,0,1,1.431.214,1.023,1.023,0,0,1-.214,1.431q-1.248.924-2.523,1.805A1.038,1.038,0,0,1-1922.6,636.169Zm-19.185,2.565a1.024,1.024,0,0,1-1.192-.464q-.778-1.342-1.518-2.7a1.024,1.024,0,0,1,.41-1.388,1.021,1.021,0,0,1,1.388.41q.727,1.335,1.491,2.653a1.023,1.023,0,0,1-.373,1.4A1.037,1.037,0,0,1-1941.787,638.734Zm27.28-8.819a1.023,1.023,0,0,1-1.084-.31,1.024,1.024,0,0,1,.11-1.443q1.153-.99,2.277-2.015a1.024,1.024,0,0,1,1.446.066,1.023,1.023,0,0,1-.066,1.446q-1.146,1.046-2.322,2.056A1.025,1.025,0,0,1-1914.506,629.915Zm-63.272,19.9a1.019,1.019,0,0,1-.486.031c-1.016-.181-2.042-.389-3.05-.618a1.023,1.023,0,0,1-.772-1.224,1.023,1.023,0,0,1,1.224-.772c.977.221,1.971.422,2.957.6a1.023,1.023,0,0,1,.828,1.187A1.022,1.022,0,0,1-1977.778,649.814Zm70.694-26.943a1.023,1.023,0,0,1-1.015-.236,1.023,1.023,0,0,1-.033-1.447q1.05-1.1,2.067-2.23a1.022,1.022,0,0,1,1.446-.076,1.023,1.023,0,0,1,.076,1.445q-1.036,1.152-2.109,2.274A1.017,1.017,0,0,1-1907.084,622.871Zm-80.582,24.382a1.018,1.018,0,0,1-.636-.008c-.975-.332-1.959-.693-2.925-1.071a1.022,1.022,0,0,1-.58-1.326,1.023,1.023,0,0,1,1.326-.58q1.408.551,2.84,1.04a1.024,1.024,0,0,1,.639,1.3A1.025,1.025,0,0,1-1987.666,647.253Zm41.156-17.595a1.024,1.024,0,0,1-1.235-.548q-.65-1.408-1.258-2.835a1.023,1.023,0,0,1,.541-1.343,1.016,1.016,0,0,1,1.343.541q.6,1.4,1.233,2.779a1.023,1.023,0,0,1-.5,1.358A.985.985,0,0,1-1946.511,629.658Zm46.124-14.522a1.021,1.021,0,0,1-.939-.171,1.023,1.023,0,0,1-.174-1.437q.94-1.2,1.842-2.421a1.024,1.024,0,0,1,1.431-.216,1.024,1.024,0,0,1,.216,1.431q-.92,1.246-1.879,2.468A1.014,1.014,0,0,1-1900.386,615.136Zm-96.691,28.124a1.019,1.019,0,0,1-.772-.065q-1.386-.706-2.744-1.471a1.023,1.023,0,0,1-.39-1.394,1.023,1.023,0,0,1,1.393-.391q1.323.744,2.671,1.432a1.023,1.023,0,0,1,.447,1.376A1.02,1.02,0,0,1-1997.078,643.26Zm102.605-36.474a1.022,1.022,0,0,1-.856-.112,1.024,1.024,0,0,1-.316-1.413q.814-1.28,1.586-2.59a1.023,1.023,0,0,1,1.4-.362,1.024,1.024,0,0,1,.362,1.4q-.79,1.338-1.621,2.648A1.02,1.02,0,0,1-1894.472,606.786Zm-111.387,31.225a1.023,1.023,0,0,1-.889-.134q-1.279-.883-2.528-1.816a1.023,1.023,0,0,1-.208-1.432,1.022,1.022,0,0,1,1.433-.207q1.217.909,2.465,1.771a1.022,1.022,0,0,1,.261,1.423A1.015,1.015,0,0,1-2005.859,638.011Zm55.545-17.848a1.023,1.023,0,0,1-1.275-.647q-.34-1-.656-2-.15-.475-.295-.954a1.024,1.024,0,0,1,.672-1.273l.011,0a1.023,1.023,0,0,1,1.276.683q.141.466.288.931.31.985.641,1.96a1.022,1.022,0,0,1-.64,1.3Zm60.814-22.318a1.021,1.021,0,0,1-.747-.052,1.024,1.024,0,0,1-.484-1.364q.652-1.368,1.243-2.76a1.024,1.024,0,0,1,1.343-.542,1.024,1.024,0,0,1,.542,1.343q-.608,1.431-1.279,2.839A1.02,1.02,0,0,1-1889.5,597.845Zm-124.4,33.841a1.021,1.021,0,0,1-.988-.211q-1.162-1.033-2.287-2.109a1.023,1.023,0,0,1-.033-1.447,1.026,1.026,0,0,1,1.447-.033q1.1,1.051,2.233,2.059a1.023,1.023,0,0,1,.085,1.445A1.021,1.021,0,0,1-2013.905,631.687Zm60.867-21.384a.982.982,0,0,1-.1.026,1.023,1.023,0,0,1-1.213-.79q-.321-1.522-.582-3.057a1.021,1.021,0,0,1,.837-1.181,1.025,1.025,0,0,1,1.181.837q.254,1.5.567,2.978A1.023,1.023,0,0,1-1953.038,610.3Zm67.232-21.991a1.011,1.011,0,0,1-.6,0,1.023,1.023,0,0,1-.69-1.272c.288-.972.551-1.951.779-2.912a1.024,1.024,0,0,1,1.233-.759,1.024,1.024,0,0,1,.758,1.233c-.237,1-.509,2.012-.808,3.02A1.024,1.024,0,0,1-1885.807,588.311Zm-135.334,36.137a1.025,1.025,0,0,1-1.072-.3q-1.033-1.161-2.027-2.357a1.022,1.022,0,0,1,.133-1.441,1.022,1.022,0,0,1,1.441.133q.971,1.169,1.982,2.3a1.023,1.023,0,0,1-.084,1.445A1.016,1.016,0,0,1-2021.14,624.448Zm137.3-46.163a1.022,1.022,0,0,1-.4.043,1.025,1.025,0,0,1-.927-1.113c.092-1,.151-2.008.175-2.995a1.021,1.021,0,0,1,1.048-1,1.024,1.024,0,0,1,1,1.048c-.025,1.033-.087,2.087-.182,3.131A1.025,1.025,0,0,1-1883.843,578.285Zm-70.652,21.893a1.008,1.008,0,0,1-.229.044,1.024,1.024,0,0,1-1.1-.941q-.12-1.551-.178-3.106a1.019,1.019,0,0,1,.983-1.061,1.023,1.023,0,0,1,1.062.983q.057,1.514.174,3.026A1.023,1.023,0,0,1-1954.495,600.178Zm-73.009,16.255a1.023,1.023,0,0,1-1.143-.386q-.9-1.268-1.75-2.566a1.024,1.024,0,0,1,.292-1.418,1.025,1.025,0,0,1,1.418.292q.836,1.269,1.711,2.51a1.023,1.023,0,0,1-.245,1.426A1.012,1.012,0,0,1-2027.5,616.433Zm143.392-48.352a1.011,1.011,0,0,1-.147.035,1.024,1.024,0,0,1-1.172-.85c-.155-.978-.354-1.963-.59-2.927a1.024,1.024,0,0,1,.751-1.237,1.024,1.024,0,0,1,1.238.751c.248,1.019.458,2.059.622,3.091A1.023,1.023,0,0,1-1884.112,568.081Zm-70.491,21.871a1.021,1.021,0,0,1-.367.045,1.024,1.024,0,0,1-.963-1.081q.091-1.554.245-3.1a1.023,1.023,0,0,1,1.12-.916,1.024,1.024,0,0,1,.917,1.12q-.151,1.506-.238,3.018A1.024,1.024,0,0,1-1954.6,589.952Zm-78.333,17.809a1.024,1.024,0,0,1-1.2-.482q-.751-1.361-1.454-2.743a1.024,1.024,0,0,1,.448-1.376,1.026,1.026,0,0,1,1.376.448q.688,1.352,1.422,2.683a1.023,1.023,0,0,1-.4,1.39A.981.981,0,0,1-2032.937,607.761Zm79.649-27.948a1.025,1.025,0,0,1-.513.026,1.023,1.023,0,0,1-.8-1.209c.211-1.022.446-2.045.7-3.038a1.026,1.026,0,0,1,1.245-.739,1.024,1.024,0,0,1,.739,1.244c-.245.963-.473,1.954-.678,2.946A1.023,1.023,0,0,1-1953.288,579.813Zm66.233-21.5a1.023,1.023,0,0,1-1.238-.554c-.411-.908-.863-1.805-1.343-2.669a1.023,1.023,0,0,1,.4-1.391,1.023,1.023,0,0,1,1.391.4c.507.912.983,1.86,1.417,2.818a1.024,1.024,0,0,1-.51,1.355A1.046,1.046,0,0,1-1887.055,558.309Zm-150.312,40.232a1.023,1.023,0,0,1-1.252-.585q-.593-1.437-1.135-2.89a1.023,1.023,0,0,1,.6-1.317,1.027,1.027,0,0,1,1.316.6q.53,1.419,1.109,2.823a1.023,1.023,0,0,1-.555,1.337C-2037.311,598.522-2037.34,598.532-2037.367,598.541Zm86.922-28.548a1.013,1.013,0,0,1-.669-.02,1.023,1.023,0,0,1-.594-1.32c.367-.967.765-1.94,1.183-2.89a1.023,1.023,0,0,1,1.349-.525,1.025,1.025,0,0,1,.525,1.349c-.4.918-.789,1.858-1.143,2.792A1.023,1.023,0,0,1-1950.445,569.993Zm57.937-20.306a1.023,1.023,0,0,1-1.085-.31c-.65-.758-1.337-1.486-2.04-2.164a1.022,1.022,0,0,1-.026-1.447,1.023,1.023,0,0,1,1.447-.026c.75.722,1.481,1.5,2.174,2.3a1.024,1.024,0,0,1-.111,1.443A1.018,1.018,0,0,1-1892.508,549.687Zm-53.49,11.1a1.022,1.022,0,0,1-.833-.1,1.024,1.024,0,0,1-.353-1.4c.534-.891,1.1-1.779,1.682-2.637a1.022,1.022,0,0,1,1.421-.273,1.022,1.022,0,0,1,.273,1.421c-.56.827-1.1,1.682-1.62,2.541A1.019,1.019,0,0,1-1946,560.791Zm-94.715,28.087-.031.009a1.024,1.024,0,0,1-1.262-.708q-.421-1.5-.788-3.005a1.021,1.021,0,0,1,.753-1.236,1.023,1.023,0,0,1,1.236.753q.358,1.473.769,2.934A1.024,1.024,0,0,1-2040.713,588.878Zm140.4-45.734a1.02,1.02,0,0,1-.818-.089,25.757,25.757,0,0,0-2.636-1.321,1.023,1.023,0,0,1-.535-1.345,1.023,1.023,0,0,1,1.344-.536,27.816,27.816,0,0,1,2.847,1.426,1.023,1.023,0,0,1,.378,1.4A1.018,1.018,0,0,1-1900.315,543.144Zm-39.59,9.441a1.023,1.023,0,0,1-1-.225,1.023,1.023,0,0,1-.055-1.446c.707-.765,1.45-1.515,2.208-2.23a1.024,1.024,0,0,1,1.447.041,1.024,1.024,0,0,1-.041,1.447c-.724.684-1.435,1.4-2.112,2.133A1.024,1.024,0,0,1-1939.906,552.585Zm29.96-12.7a1.014,1.014,0,0,1-.437.038,25.6,25.6,0,0,0-2.944-.207,1.023,1.023,0,0,1-1.01-1.036,1.023,1.023,0,0,1,1.036-1.011,27.758,27.758,0,0,1,3.179.224,1.024,1.024,0,0,1,.884,1.146A1.024,1.024,0,0,1-1909.945,539.888Zm-22.222,6.033a1.024,1.024,0,0,1-1.154-.4,1.023,1.023,0,0,1,.274-1.421c.871-.59,1.769-1.151,2.668-1.666a1.021,1.021,0,0,1,1.4.378,1.023,1.023,0,0,1-.378,1.4c-.855.49-1.709,1.024-2.539,1.586A1.027,1.027,0,0,1-1932.167,545.921Zm12.063-5.439-.071.02c-.942.224-1.9.5-2.857.824a1.031,1.031,0,0,1-1.3-.641,1.024,1.024,0,0,1,.642-1.3c1.011-.34,2.036-.637,3.04-.877a1.024,1.024,0,0,1,1.232.759A1.024,1.024,0,0,1-1920.1,540.482Zm-122.818,38.408a.987.987,0,0,1-.139.034,1.024,1.024,0,0,1-1.179-.84q-.257-1.529-.466-3.063a1.022,1.022,0,0,1,.875-1.153,1.025,1.025,0,0,1,1.154.875q.205,1.5.456,3A1.023,1.023,0,0,1-2042.923,578.89Zm-1.19-10.157a1.025,1.025,0,0,1-.239.045,1.024,1.024,0,0,1-1.091-.952q-.1-1.546-.167-3.094a1.027,1.027,0,0,1,.982-1.064,1.024,1.024,0,0,1,1.063.982q.061,1.52.164,3.036A1.023,1.023,0,0,1-2044.113,568.734Zm-.22-10.225a1.021,1.021,0,0,1-.331.046,1.022,1.022,0,0,1-1-1.048q.037-1.547.115-3.1a1.026,1.026,0,0,1,1.075-.97,1.024,1.024,0,0,1,.97,1.074q-.078,1.521-.114,3.041A1.025,1.025,0,0,1-2044.333,558.509Zm.693-10.21a1.017,1.017,0,0,1-.42.041,1.024,1.024,0,0,1-.9-1.13q.17-1.538.379-3.073a1.022,1.022,0,0,1,1.151-.876,1.023,1.023,0,0,1,.877,1.151q-.2,1.51-.372,3.024A1.025,1.025,0,0,1-2043.641,548.3Zm1.535-10.118a1.019,1.019,0,0,1-.5.028,1.023,1.023,0,0,1-.812-1.2q.292-1.519.62-3.033a1.022,1.022,0,0,1,1.217-.784,1.025,1.025,0,0,1,.784,1.217q-.323,1.49-.61,2.986A1.024,1.024,0,0,1-2042.106,538.18Zm2.31-9.971a1.024,1.024,0,0,1-.573.012,1.024,1.024,0,0,1-.721-1.255q.4-1.492.839-2.978a1.024,1.024,0,0,1,1.27-.694,1.023,1.023,0,0,1,.694,1.27q-.429,1.465-.826,2.936A1.024,1.024,0,0,1-2039.8,528.209Zm3.014-9.782a1.02,1.02,0,0,1-.64-.009,1.023,1.023,0,0,1-.633-1.3q.5-1.461,1.039-2.912a1.023,1.023,0,0,1,1.313-.607,1.023,1.023,0,0,1,.608,1.314q-.527,1.432-1.025,2.874A1.022,1.022,0,0,1-2036.782,518.427Zm3.659-9.559a1.023,1.023,0,0,1-.7-.033,1.024,1.024,0,0,1-.547-1.34q.6-1.423,1.222-2.837a1.025,1.025,0,0,1,1.35-.523,1.025,1.025,0,0,1,.523,1.35q-.617,1.4-1.207,2.8A1.025,1.025,0,0,1-2033.123,508.868Z" transform="translate(2045.663 -504.048)" fill="#ebebeb"/></g><g transform="translate(-1648.396 625.26)" opacity="0.3"><path d="M-1730.4,1075.9a7.236,7.236,0,0,1-11.791-2.3c-11.069-26.106-35.69-102.746,10.149-189.237,38.709-73.037,52.758-116.32,57.774-136.41a4.538,4.538,0,0,1,8.6-.625C-1647.249,791.98-1599.426,943.528-1730.4,1075.9Z" transform="translate(1758.782 -744.509)" fill="#9ca9b8" opacity="0.156"/></g><g transform="translate(-1696.009 672.126)"><path d="M-1844.007,833.235c-3.88,31.208-23.286,223.646,79.063,285.052a4.856,4.856,0,0,0,7.336-3.815c1.661-22.936,2.7-95.824-39.4-181.848-30.372-62.066-41.505-90.046-45.015-99.617A1.027,1.027,0,0,0-1844.007,833.235Z" transform="translate(1848.005 -832.333)" fill="#f7f8fb" opacity="0.999"/><g transform="translate(15.116 66.407)"><path d="M-1744.4,1174.288a1.781,1.781,0,0,1-1.566-.93c-51.378-94.457-74.915-211.351-73.668-215.335a1.78,1.78,0,0,1,2.232-1.168,1.783,1.783,0,0,1,1.23,1.963c.06,5.313,22.524,119.424,73.336,212.837a1.782,1.782,0,0,1-.713,2.416A1.779,1.779,0,0,1-1744.4,1174.288Zm-71.834-215.206v0Z" transform="translate(1819.679 -956.774)" fill="#9ca9b8" opacity="0.318"/></g></g><g transform="translate(-1305.127 580.305)"><path d="M-1066.841,661.517a1.447,1.447,0,0,1,2.8-.28c14.677,41.8,98.965,300.9-23.556,416.054a6.841,6.841,0,0,1-11.24-3.057c-9.148-31.077-32.381-131.1-.168-262.117C-1075.764,717.591-1068.809,675.744-1066.841,661.517Z" transform="translate(1115.525 -660.267)" fill="#9ca9b8" opacity="0.156"/><g transform="translate(14.906 95.662)"><path d="M-1085.25,1159.525a1.773,1.773,0,0,1-1.06.019,1.78,1.78,0,0,1-1.21-2.208c22.225-76.094,31.4-156.14,35.192-209.891,4.2-59.631,2.9-102.08,2.089-105.451a1.78,1.78,0,0,1,.765-2.23,1.778,1.778,0,0,1,2.428.668c1.506,2.646,2.245,49.577-1.589,105.262-3.75,54.45-12.947,135.54-35.466,212.64A1.778,1.778,0,0,1-1085.25,1159.525Zm35.105-317.336,0,0Z" transform="translate(1087.592 -839.53)" fill="#9ca9b8" opacity="0.32"/></g></g><g transform="translate(-1285.54 762.301)"><path d="M-1064.782,1236.04c36.257-9.074,136.414-50.749,96.83-230.714a5.088,5.088,0,0,0-9.831-.435c-7.247,23.411-20.741,63.758-39.264,82.852-57.387,59.157-62.683,113.878-61.665,137.88A11.212,11.212,0,0,0-1064.782,1236.04Z" transform="translate(1078.819 -1001.313)" fill="#bdd0fb"/><path d="M-1064.7,1284.859a1.781,1.781,0,0,1-1.99-.487,1.78,1.78,0,0,1,.17-2.512c80.436-70.274,92.887-167.175,93-168.145a1.78,1.78,0,0,1,1.979-1.557,1.781,1.781,0,0,1,1.557,1.98c-.029.246-3.1,25.036-16.189,58.237-12.078,30.631-35.417,74.957-78.007,112.167A1.775,1.775,0,0,1-1064.7,1284.859Z" transform="translate(1073.367 -1053)" fill="#dce5fe"/></g><g transform="translate(-1829.3 407.485)"><path d="M-1089.069,867.706l160.24-306.986h-32.83A7.17,7.17,0,0,1-967.2,549l170.784-208.15c7.4-9.021,22.023-3.3,21.336,8.349l-12.005,203.546A20.339,20.339,0,0,1-809.7,571.756l-22.889-2.62-158.99,344.315a25.314,25.314,0,0,1-22.983,14.7h-55.1Z" transform="translate(1627.359 -336.417)" fill="#15a085"/><path d="M-1337.332,890.646l113.126,251.3a41.486,41.486,0,0,0,37.829,24.456h58.319a21.294,21.294,0,0,0,18.62-10.964l2.074-3.739h0a16.674,16.674,0,0,1-14.851-9.094l-150.727-295.327Z" transform="translate(1743.138 -574.659)" fill="#07d3ac"/><path d="M-1454.264,851.593h0a24.74,24.74,0,0,0-35.927,5.708l-166.327,249.894a71.851,71.851,0,0,1-59.813,32.04h-23.4l-19.047-54.868s154.626-237.092,194.481-272.957c0,0,39.689-35.77,78.821-8.725a65.307,65.307,0,0,1,22.983,28.96Z" transform="translate(1939.685 -549.149)" fill="#07d3ac"/><path d="M-2097.78,1027.7s27.842-34.8,81.794-40.215c0,0,25.625,8.73,76.675,100.206s84.936,133.19,124.7,110.406l-3.292,5.466a59.965,59.965,0,0,1-51.369,29.028h-21.991a75.235,75.235,0,0,1-61.083-31.3C-1992.08,1146.056-2073.372,1036.27-2097.78,1027.7Z" transform="translate(2097.78 -640.046)" fill="#07d3ac"/><path d="M-538.352,469.544a1.736,1.736,0,0,1-.2-.012,1.78,1.78,0,0,1-1.569-1.97l1.126-9.939a1.771,1.771,0,0,1,1.97-1.568,1.78,1.78,0,0,1,1.568,1.97l-1.127,9.939A1.78,1.78,0,0,1-538.352,469.544Z" transform="translate(1371.359 -392.205)" fill="#07d3ac"/><path d="M-805.507,551.705a1.773,1.773,0,0,1-1.085-.37,1.78,1.78,0,0,1-.325-2.5L-665.891,365.6a6.049,6.049,0,0,1,7.131-1.938,6.051,6.051,0,0,1,3.779,6.351l-2.489,21.965a1.777,1.777,0,0,1-1.97,1.568,1.779,1.779,0,0,1-1.568-1.969l2.489-21.965a2.469,2.469,0,0,0-1.576-2.648,2.465,2.465,0,0,0-2.974.808L-804.095,551.011A1.777,1.777,0,0,1-805.507,551.705Z" transform="translate(1495.947 -348.908)" fill="#07d3ac"/><path d="M-1405.029,974.487a1.773,1.773,0,0,1-.994-.3,1.78,1.78,0,0,1-.481-2.472l72.935-108.11a12.916,12.916,0,0,1,11.805-5.714,12.907,12.907,0,0,1,10.808,7.429,1.781,1.781,0,0,1-.848,2.372,1.782,1.782,0,0,1-2.372-.848,9.381,9.381,0,0,0-7.858-5.4,9.38,9.38,0,0,0-8.583,4.154l-72.935,108.11A1.778,1.778,0,0,1-1405.029,974.487Z" transform="translate(1775.54 -579.59)" fill="#15a085"/><path d="M-1440.546,1119.894a1.772,1.772,0,0,1-.994-.3,1.782,1.782,0,0,1-.481-2.472l4.677-6.932a1.781,1.781,0,0,1,2.472-.481,1.781,1.781,0,0,1,.48,2.472l-4.676,6.932A1.78,1.78,0,0,1-1440.546,1119.894Z" transform="translate(1792.103 -696.904)" fill="#15a085"/></g><g transform="translate(-1590.924 514.511)"><g opacity="0.54"><path d="M-1489.77,537.828l-153.215-.853a8.042,8.042,0,0,0-6.94,12.182l.769,1.281a8.043,8.043,0,0,0,6.9,3.9h152.446a8.042,8.042,0,0,0,8.043-8.042v-.427A8.043,8.043,0,0,0-1489.77,537.828Z" transform="translate(1651.084 -536.975)" fill="#9ca9b8" opacity="0.3"/><path d="M-1308.687,546.951v.249a8.042,8.042,0,0,0,8.042,8.043h34.012a8.042,8.042,0,0,0,7.77-5.966h0a8.042,8.042,0,0,0-7.711-10.118l-34.011-.249A8.042,8.042,0,0,0-1308.687,546.951Z" transform="translate(1491.405 -537.877)" fill="#9ca9b8" opacity="0.3"/></g><g transform="translate(0 28.869)" opacity="0.54"><path d="M-1526.625,591.927l-116.359-.853a8.042,8.042,0,0,0-6.94,12.181l.769,1.282a8.043,8.043,0,0,0,6.9,3.9h115.59a8.042,8.042,0,0,0,8.042-8.042v-.427A8.042,8.042,0,0,0-1526.625,591.927Z" transform="translate(1651.084 -591.074)" fill="#9ca9b8" opacity="0.3"/><path d="M-1377.752,601.05v.249a8.042,8.042,0,0,0,8.042,8.042h34.012a8.042,8.042,0,0,0,7.77-5.967h0a8.042,8.042,0,0,0-7.71-10.118l-34.012-.249A8.042,8.042,0,0,0-1377.752,601.05Z" transform="translate(1523.613 -591.976)" fill="#9ca9b8" opacity="0.3"/></g></g><g transform="translate(-1484.945 327.076)"><g transform="translate(167.35)"><path d="M-1039.147,426.626c-.069-.861-.948-1.606-2.437-2.2,1.617-.892,2.512-1.848,2.437-2.786-.228-2.837-9.214-4.428-20.07-3.552s-19.47,3.885-19.241,6.722c.069.861.948,1.606,2.437,2.2-1.618.892-2.513,1.848-2.437,2.786.069.861.948,1.606,2.437,2.2-1.618.892-2.513,1.848-2.437,2.786.069.861.948,1.606,2.437,2.2-1.618.892-2.513,1.848-2.437,2.786.1,1.255,1.917,2.265,4.848,2.927a25.165,25.165,0,0,0,.074,3.066c.425,5.229,6.306,9.328,14.084,9.328s14.511-5.589,14.587-10.835a26.483,26.483,0,0,0-.152-3.422c3.722-1.243,5.989-2.761,5.87-4.233-.069-.861-.948-1.606-2.437-2.2,1.617-.892,2.512-1.848,2.437-2.786-.069-.861-.948-1.606-2.437-2.2C-1039.966,428.52-1039.071,427.564-1039.147,426.626Z" transform="translate(1110.708 -293.983)" fill="#946bad"/><g transform="translate(35.145 130.702)"><path d="M-1059.521,464.048a46.91,46.91,0,0,1-8.611-.7.261.261,0,0,1-.207-.305.261.261,0,0,1,.305-.207,56.148,56.148,0,0,0,14.344.453,61.662,61.662,0,0,0,12.029-2.075.26.26,0,0,1,.323.177.26.26,0,0,1-.177.323,62.157,62.157,0,0,1-12.133,2.094C-1055.667,463.967-1057.641,464.048-1059.521,464.048Z" transform="translate(1070.844 -444.903)" fill="#fff" opacity="0.5"/><path d="M-1061.114,453.5a40.965,40.965,0,0,1-10.573-1.146.261.261,0,0,1-.179-.322.26.26,0,0,1,.322-.179c3.762,1.071,9.821,1.4,16.206.889,6.316-.51,12.207-1.791,15.758-3.429a.261.261,0,0,1,.346.128.26.26,0,0,1-.128.346c-3.6,1.662-9.56,2.961-15.934,3.475C-1057.284,453.422-1059.243,453.5-1061.114,453.5Z" transform="translate(1072.491 -439.349)" fill="#fff" opacity="0.5"/><path d="M-1061.7,444.156a38.078,38.078,0,0,1-11.145-1.341.261.261,0,0,1-.166-.329.261.261,0,0,1,.329-.166c3.707,1.223,9.991,1.624,16.812,1.074,6.315-.509,12.206-1.791,15.757-3.429a.261.261,0,0,1,.346.127.261.261,0,0,1-.128.346c-3.6,1.662-9.561,2.961-15.934,3.475C-1057.852,444.076-1059.828,444.156-1061.7,444.156Z" transform="translate(1073.029 -434.989)" fill="#fff" opacity="0.5"/><path d="M-1060.126,434.838a44.962,44.962,0,0,1-9.387-.854.26.26,0,0,1-.2-.311.261.261,0,0,1,.311-.2,54.383,54.383,0,0,0,15.069.6c6.26-.5,12.12-1.773,15.677-3.392a.26.26,0,0,1,.345.129.261.261,0,0,1-.129.345c-3.609,1.643-9.535,2.928-15.851,3.437C-1056.285,434.758-1058.25,434.838-1060.126,434.838Z" transform="translate(1071.485 -430.662)" fill="#fff" opacity="0.5"/></g><path d="M-1113.924,293.2a36.707,36.707,0,0,0-6.574-12.835c-6.462-8.145-17-24.709-18.3-47.316-1.888-32.882,27.275-49.345,53.888-47.11s52.871,22.05,50,52.64c-1.769,18.823-12.3,33.1-20.148,41.3a43.562,43.562,0,0,0-10.457,18.527c-2.354,8.5-7.957,19.091-21.272,19.737C-1104.024,318.978-1111.18,302.917-1113.924,293.2Z" transform="translate(1138.888 -185.738)" fill="#f7a600"/><path d="M-1033.039,366.969l9.312-60.562c.192-1.251.808-2.091,1.375-1.877s.871,1.4.679,2.654c-.005.033-.012.075-.018.107l-10.607,60c-.08.451-.309.736-.512.636S-1033.106,367.406-1033.039,366.969Z" transform="translate(1089.534 -241.122)" fill="#fff" opacity="0.5"/><path d="M-1061.117,367.87l-9.311-60.562c-.192-1.251-.808-2.091-1.375-1.877s-.871,1.4-.679,2.654c.005.034.012.075.018.107l10.606,60c.08.451.309.736.512.637S-1061.05,368.307-1061.117,367.87Z" transform="translate(1107.946 -241.542)" fill="#fff" opacity="0.5"/><path d="M-1039.575,291.93a.976.976,0,0,0-1.222-.318l-5.185,2.423-1.8-5.128a1.1,1.1,0,0,0-.631-.634,1.281,1.281,0,0,0-1.593.491l-.008.017-4.264,7.775-3.956-11.068-.007-.018a1.265,1.265,0,0,0-.6-.676,1.553,1.553,0,0,0-1.958.386l-5.961,8.206a.718.718,0,0,0,.21,1.035,1,1,0,0,0,1.268-.138l5.249-5.855,4.726,10.528,0,.008a.835.835,0,0,0,.416.408.988.988,0,0,0,1.237-.32l4.56-7.318,1.717,3.7.015.033a.736.736,0,0,0,.043.078.976.976,0,0,0,1.222.317l6.154-2.876A.732.732,0,0,0-1039.575,291.93Z" transform="translate(1105.314 -231.845)" fill="#fff" opacity="0.5"/><path d="M-982.987,339.694a1.776,1.776,0,0,1-1.06-.351,1.782,1.782,0,0,1-.368-2.492,68.076,68.076,0,0,0,4.282-6.5,1.78,1.78,0,0,1,2.433-.651,1.781,1.781,0,0,1,.651,2.433,71.9,71.9,0,0,1-4.506,6.845A1.779,1.779,0,0,1-982.987,339.694Z" transform="translate(1067.012 -252.762)" fill="#fff" opacity="0.5"/><path d="M-968.634,283.461a1.776,1.776,0,0,1-.708-.148,1.781,1.781,0,0,1-.924-2.343c9.735-22.418,1.358-41.194,1.272-41.381a1.781,1.781,0,0,1,.877-2.361,1.78,1.78,0,0,1,2.361.877c.377.823,9.118,20.423-1.243,44.284A1.781,1.781,0,0,1-968.634,283.461Z" transform="translate(1060.319 -209.675)" fill="#fff" opacity="0.5"/></g><g transform="translate(0 145.057)"><g transform="translate(0 391.101)"><path d="M-1447.141,1208.458a19.569,19.569,0,0,1,3.526-10.272c-3.5,1.144-4.824,3.75-5.641,10.715-.971,8.285-2.71,30.719-3.168,35.684a10.264,10.264,0,0,0,3.168,9.012c.519.531,1.337.286,2.3-.47a16.151,16.151,0,0,1-3.149-7.2C-1450.725,1242.594-1447.956,1219.421-1447.141,1208.458Z" transform="translate(1452.488 -1194.059)" fill="#2f465f"/><path d="M-1422.218,1198.346l-6.089-7.893a48.117,48.117,0,0,1-11.074,3.608,14.361,14.361,0,0,0-2.229.518,19.57,19.57,0,0,0-3.526,10.273c-.815,10.964-3.584,34.136-2.964,37.471a16.147,16.147,0,0,0,3.149,7.2c1.964-1.54,4.543-5.23,6.5-9,2.915-5.621,12.791-22.448,15.107-28.73S-1422.218,1198.346-1422.218,1198.346Z" transform="translate(1450.484 -1190.453)" fill="#2f465f"/></g><g transform="translate(17.14)"><g transform="translate(82.333 315.859)"><path d="M-1254.433,1062.505a19.567,19.567,0,0,1,5.177-9.547c-3.646.548-5.378,2.9-7.336,9.634-2.328,8.011-7.755,29.847-9.028,34.668a10.263,10.263,0,0,0,1.633,9.412c.424.61,1.271.5,2.345-.083a16.144,16.144,0,0,1-1.914-7.62C-1263.617,1095.577-1257.052,1073.182-1254.433,1062.505Z" transform="translate(1266.084 -1051.089)" fill="#2f465f"/><path d="M-1228.546,1058.248l-4.7-8.792a48.1,48.1,0,0,1-11.518,1.726,14.4,14.4,0,0,0-2.285.142,19.568,19.568,0,0,0-5.177,9.548c-2.619,10.677-9.184,33.072-9.123,36.464a16.151,16.151,0,0,0,1.914,7.62c2.192-1.193,5.346-4.407,7.9-7.8,3.8-5.062,16.329-20.022,19.652-25.834S-1228.546,1058.248-1228.546,1058.248Z" transform="translate(1263.876 -1049.456)" fill="#2f465f"/></g><path d="M-1409.244,1169.252c-1.067,1.4-8.847,15.552-10.531,18.621a4.589,4.589,0,0,0-.541,1.656,6.948,6.948,0,0,0,3.32,6.862,4.67,4.67,0,0,0,6.295-1.068l14.139-18.617Z" transform="translate(1420.369 -789.465)" fill="#efc3b1"/><path d="M-1206.662,1030.435c-1.284,1.2-11.3,13.874-13.467,16.623a4.582,4.582,0,0,0-.807,1.544,6.946,6.946,0,0,0,2.14,7.316,4.67,4.67,0,0,0,6.384-.012l15.207-17.544Z" transform="translate(1327.502 -724.727)" fill="#efc3b1"/><path d="M-1273.6,901.09c0-3.928,22.541-2.532,42.3-4.817a11.117,11.117,0,0,1,9.258,18.781l-59.841,61.751a4.72,4.72,0,0,1-4.844,1.221,28.9,28.9,0,0,1-8.781-4.557,4.266,4.266,0,0,1-.79-5.793l27.508-39.165-25.1,7.238-95.233,117.8a4.938,4.938,0,0,1-6.468,1.079,40.162,40.162,0,0,1-9-7.34,4.6,4.6,0,0,1-.277-5.468c10.506-16.052,67.6-103.508,70.306-112.592,2.983-10.007,13.939-28.331,24.182-28.984S-1273.6,901.09-1273.6,901.09Z" transform="translate(1413.497 -662.122)" fill="#2f465f"/><path d="M-1146.938,949.435a.638.638,0,0,1-.616-.474.639.639,0,0,1,.453-.78l22.576-5.986a.637.637,0,0,1,.78.453.637.637,0,0,1-.452.78l-22.576,5.986A.615.615,0,0,1-1146.938,949.435Z" transform="translate(1293.149 -683.565)" fill="#2f465f"/><path d="M-1192.579,960.779a.638.638,0,0,1-.432-.169.637.637,0,0,1-.036-.9l5.638-6.113a.637.637,0,0,1,.9-.036.637.637,0,0,1,.036.9l-5.638,6.113A.634.634,0,0,1-1192.579,960.779Z" transform="translate(1314.434 -688.797)" fill="#2f465f"/><g transform="translate(18.826 251.418)"><path d="M-1372.31,978.829l-12.022,29.754A10.437,10.437,0,0,0-1378.9,1022l70.07,31.463a7.53,7.53,0,0,0,9.457-2.827c4.373-6.923,11.631-19.561,15.554-32.7Z" transform="translate(1385.09 -952.077)" fill="#f7a600"/><path d="M-1304.686,1052.332a7.6,7.6,0,0,1-3.133-.672l-.14-.064a.444.444,0,0,1-.223-.588.444.444,0,0,1,.588-.223l.14.063a6.733,6.733,0,0,0,3.112.585.445.445,0,0,1,.467.422.445.445,0,0,1-.421.468C-1304.426,1052.328-1304.556,1052.332-1304.686,1052.332Zm-10.671-4.1a.453.453,0,0,1-.183-.039l-3.249-1.459a.446.446,0,0,1-.223-.589.448.448,0,0,1,.589-.224l3.249,1.459a.446.446,0,0,1,.224.589A.446.446,0,0,1-1315.357,1048.231Zm17.5-.472a.444.444,0,0,1-.233-.067.445.445,0,0,1-.145-.613c.577-.932,1.192-1.949,1.836-3.042a.446.446,0,0,1,.61-.157.446.446,0,0,1,.157.61c-.647,1.1-1.267,2.122-1.846,3.058A.445.445,0,0,1-1297.856,1047.759Zm-28.331-4.39a.452.452,0,0,1-.182-.039l-3.249-1.459a.446.446,0,0,1-.224-.589.447.447,0,0,1,.589-.224l3.249,1.459a.446.446,0,0,1,.224.589A.446.446,0,0,1-1326.187,1043.369Zm-10.829-4.863a.452.452,0,0,1-.182-.039l-3.249-1.459a.446.446,0,0,1-.224-.589.449.449,0,0,1,.589-.224l3.249,1.459a.446.446,0,0,1,.224.589A.446.446,0,0,1-1337.016,1038.506Zm45.034-1.067a.448.448,0,0,1-.205-.05.445.445,0,0,1-.189-.6q.8-1.539,1.6-3.17a.447.447,0,0,1,.6-.2.446.446,0,0,1,.2.6q-.8,1.638-1.611,3.191A.445.445,0,0,1-1291.982,1037.439Zm-55.863-3.8a.455.455,0,0,1-.183-.039l-3.249-1.459a.446.446,0,0,1-.224-.589.448.448,0,0,1,.589-.224l3.249,1.459a.446.446,0,0,1,.224.589A.446.446,0,0,1-1347.845,1033.644Zm-10.83-4.863a.458.458,0,0,1-.182-.038l-3.249-1.459a.446.446,0,0,1-.224-.589.448.448,0,0,1,.589-.223l3.249,1.459a.446.446,0,0,1,.224.588A.446.446,0,0,1-1358.675,1028.78Zm71.71-2.1a.439.439,0,0,1-.169-.033.446.446,0,0,1-.243-.581q.668-1.633,1.288-3.3a.444.444,0,0,1,.572-.263.445.445,0,0,1,.263.572q-.623,1.683-1.3,3.332A.445.445,0,0,1-1286.965,1026.683Zm-82.539-2.766a.451.451,0,0,1-.182-.039l-3.25-1.458a.447.447,0,0,1-.224-.589.448.448,0,0,1,.588-.224l3.25,1.458a.446.446,0,0,1,.224.588A.445.445,0,0,1-1369.5,1023.918Zm-9.543-6.581a.444.444,0,0,1-.394-.237,10.35,10.35,0,0,1-1.127-3.525.445.445,0,0,1,.383-.5.446.446,0,0,1,.5.384,9.467,9.467,0,0,0,1.03,3.223.445.445,0,0,1-.184.6A.445.445,0,0,1-1379.047,1017.337Zm92.9-.472a.436.436,0,0,1-.18-.038l-3.257-1.439a.444.444,0,0,1-.227-.586.444.444,0,0,1,.586-.227l3.258,1.439a.444.444,0,0,1,.227.586A.444.444,0,0,1-1286.152,1016.864Zm-10.858-4.8a.44.44,0,0,1-.18-.038l-3.256-1.439a.445.445,0,0,1-.228-.587.445.445,0,0,1,.587-.227l3.257,1.439a.445.445,0,0,1,.227.586A.445.445,0,0,1-1297.01,1012.066Zm-10.858-4.8a.449.449,0,0,1-.18-.038l-3.257-1.44a.445.445,0,0,1-.226-.587.446.446,0,0,1,.587-.227l3.256,1.44a.445.445,0,0,1,.227.588A.446.446,0,0,1-1307.867,1007.267Zm-70.409-1.282a.452.452,0,0,1-.167-.032.446.446,0,0,1-.245-.58l1.334-3.3a.447.447,0,0,1,.58-.245.446.446,0,0,1,.246.58l-1.334,3.3A.446.446,0,0,1-1378.276,1005.985Zm59.551-3.516a.435.435,0,0,1-.18-.038l-3.257-1.44a.444.444,0,0,1-.227-.586.444.444,0,0,1,.586-.227l3.258,1.44a.444.444,0,0,1,.227.586A.444.444,0,0,1-1318.725,1002.469Zm-10.858-4.8a.436.436,0,0,1-.179-.038l-3.258-1.44a.445.445,0,0,1-.227-.586.446.446,0,0,1,.587-.227l3.257,1.44a.445.445,0,0,1,.227.587A.445.445,0,0,1-1329.583,997.67Zm-44.245-2.691a.451.451,0,0,1-.167-.032.446.446,0,0,1-.246-.58l1.334-3.3a.445.445,0,0,1,.58-.246.445.445,0,0,1,.245.58l-1.334,3.3A.444.444,0,0,1-1373.828,994.979Zm33.388-2.108a.448.448,0,0,1-.18-.037l-3.257-1.44a.445.445,0,0,1-.228-.587.444.444,0,0,1,.587-.227l3.257,1.439a.444.444,0,0,1,.227.586A.444.444,0,0,1-1340.441,992.871Zm-10.858-4.8a.439.439,0,0,1-.179-.039l-3.257-1.439a.444.444,0,0,1-.228-.586.444.444,0,0,1,.587-.227l3.258,1.439a.445.445,0,0,1,.227.587A.446.446,0,0,1-1351.3,988.072Zm-18.083-4.1a.438.438,0,0,1-.167-.033.444.444,0,0,1-.245-.58l1.334-3.3a.445.445,0,0,1,.579-.246.445.445,0,0,1,.246.579l-1.335,3.3A.444.444,0,0,1-1369.382,983.972Zm7.225-.7a.442.442,0,0,1-.18-.038l-3.258-1.44a.445.445,0,0,1-.227-.586.446.446,0,0,1,.587-.227l3.257,1.44a.445.445,0,0,1,.227.587A.445.445,0,0,1-1362.157,983.274Z" transform="translate(1382.983 -952.521)" fill="#2f465f"/><path d="M-1304.922,953.642l1.211-2.169a1.9,1.9,0,0,1,1.769-.433c2.343.619,8.042,2.406,9.792,5.514l-.772,2.8Z" transform="translate(1347.703 -939.088)" fill="#946bad"/><path d="M-1292.141,949.215a3.441,3.441,0,0,1-1.514-.671,1.5,1.5,0,0,1-.458-1.787l3.131-7.085,3.605,1.594-3.129,7.079A1.5,1.5,0,0,1-1292.141,949.215Z" transform="translate(1342.721 -933.816)" fill="#946bad"/><path d="M-1239.482,982.563l1.211-2.169a1.9,1.9,0,0,1,1.768-.433c2.343.619,8.042,2.405,9.792,5.514l-.772,2.8Z" transform="translate(1317.184 -952.576)" fill="#946bad"/><path d="M-1226.7,977.483a3.428,3.428,0,0,1-1.514-.671,1.5,1.5,0,0,1-.458-1.787l3.461-7.831,3.605,1.593-3.458,7.826A1.5,1.5,0,0,1-1226.7,977.483Z" transform="translate(1312.202 -946.652)" fill="#946bad"/><path d="M-1291.266,936.129l39.342,15.854a2.043,2.043,0,0,0,2.464-.746,17.261,17.261,0,0,0,2.293-4.862,4.89,4.89,0,0,0-2.662-5.7c-7.158-3.369-25.574-11.5-37.5-11.973a3.876,3.876,0,0,0-3.228,1.513,9.393,9.393,0,0,0-1.833,3.9A1.824,1.824,0,0,0-1291.266,936.129Z" transform="translate(1341.872 -928.698)" fill="#f7a600"/><path d="M-1351.693,939.165c12.6,5.376,67.04,28.756,81.941,37.613a3.5,3.5,0,0,1,1.658,3.7,115.722,115.722,0,0,1-7.875,24.8,3.068,3.068,0,0,1-3.48,1.66l-38.936-9.083-12.764-5.641-34.922-24.531a3.273,3.273,0,0,1-1.186-3.846c1.9-4.981,6.567-16.583,11.136-23.358A3.621,3.621,0,0,1-1351.693,939.165Z" transform="translate(1376.873 -933.444)" fill="#f7a600"/><path d="M-1274.286,1007.075a.448.448,0,0,1-.183-.039.445.445,0,0,1-.223-.589c.468-1.04.933-2.137,1.381-3.262a.446.446,0,0,1,.578-.249.446.446,0,0,1,.249.579c-.453,1.137-.923,2.247-1.4,3.3A.445.445,0,0,1-1274.286,1007.075Zm-7.617-.921a.451.451,0,0,1-.1-.011l-3.468-.81a.445.445,0,0,1-.333-.534.442.442,0,0,1,.535-.333l3.468.81a.445.445,0,0,1,.332.535A.445.445,0,0,1-1281.9,1006.154Zm-11.56-2.7a.439.439,0,0,1-.1-.011l-3.467-.81a.445.445,0,0,1-.333-.535.444.444,0,0,1,.535-.332l3.468.81a.445.445,0,0,1,.332.535A.445.445,0,0,1-1293.463,1003.458Zm-11.561-2.7a.439.439,0,0,1-.1-.011l-3.468-.809a.445.445,0,0,1-.333-.534.445.445,0,0,1,.534-.333l3.468.809a.445.445,0,0,1,.333.534A.446.446,0,0,1-1305.024,1000.761Zm-11.345-3.343a.447.447,0,0,1-.18-.038l-3.257-1.439a.445.445,0,0,1-.227-.587.445.445,0,0,1,.587-.227l3.257,1.439a.444.444,0,0,1,.227.587A.445.445,0,0,1-1316.369,997.418Zm46.215-1.467a.444.444,0,0,1-.13-.02.445.445,0,0,1-.3-.556c.361-1.179.692-2.321.992-3.409a.442.442,0,0,1,.547-.311.445.445,0,0,1,.311.548c-.3,1.1-.635,2.246-1,3.433A.445.445,0,0,1-1270.154,995.951Zm-55.046-2.435a.44.44,0,0,1-.255-.081l-2.915-2.047a.444.444,0,0,1-.108-.62.443.443,0,0,1,.62-.108l2.915,2.048a.443.443,0,0,1,.109.62A.444.444,0,0,1-1325.2,993.516Zm-9.714-6.824a.44.44,0,0,1-.255-.081l-2.914-2.047a.444.444,0,0,1-.108-.62.443.443,0,0,1,.62-.109l2.914,2.047a.444.444,0,0,1,.108.62A.443.443,0,0,1-1334.915,986.692Zm67.7-2.245a.435.435,0,0,1-.09-.009.445.445,0,0,1-.346-.526l.027-.132c-.707-.416-1.523-.876-2.44-1.377a.445.445,0,0,1-.177-.6.445.445,0,0,1,.6-.178q1.511.825,2.657,1.5a.588.588,0,0,1,.286.5l-.084.461A.445.445,0,0,1-1267.212,984.447Zm-.227-.559h0Zm-77.189-4.019a.439.439,0,0,1-.255-.081l-2.915-2.047a.445.445,0,0,1-.108-.62.441.441,0,0,1,.619-.108l2.915,2.047a.444.444,0,0,1,.109.62A.443.443,0,0,1-1344.628,979.868Zm67.395-1.221a.446.446,0,0,1-.2-.047q-1.516-.752-3.194-1.566a.444.444,0,0,1-.206-.594.445.445,0,0,1,.594-.207q1.682.816,3.2,1.569a.446.446,0,0,1,.2.6A.446.446,0,0,1-1277.233,978.647Zm-10.7-5.143a.442.442,0,0,1-.189-.042q-1.564-.735-3.225-1.505a.445.445,0,0,1-.217-.591.448.448,0,0,1,.591-.217q1.662.772,3.23,1.507a.446.446,0,0,1,.213.592A.445.445,0,0,1-1287.932,973.5Zm-66.41-.459a.443.443,0,0,1-.255-.081l-2.914-2.047a.446.446,0,0,1-.109-.62.444.444,0,0,1,.62-.109l2.914,2.047a.446.446,0,0,1,.109.62A.444.444,0,0,1-1354.342,973.045Zm55.632-4.518a.439.439,0,0,1-.184-.04l-3.243-1.472a.446.446,0,0,1-.222-.59.447.447,0,0,1,.59-.222l3.244,1.473a.446.446,0,0,1,.221.59A.446.446,0,0,1-1298.71,968.527Zm-59.148-4.161a.429.429,0,0,1-.169-.034.444.444,0,0,1-.242-.581c.425-1.036.891-2.144,1.386-3.292a.443.443,0,0,1,.585-.232.445.445,0,0,1,.233.585c-.493,1.143-.956,2.246-1.38,3.278A.445.445,0,0,1-1357.858,964.366Zm48.325-.718a.446.446,0,0,1-.181-.038l-3.253-1.449a.445.445,0,0,1-.226-.588.447.447,0,0,1,.588-.226l3.254,1.451a.445.445,0,0,1,.224.588A.443.443,0,0,1-1309.533,963.648Zm-10.854-4.81a.444.444,0,0,1-.179-.038l-3.261-1.433a.443.443,0,0,1-.229-.586.443.443,0,0,1,.586-.229l3.262,1.433a.445.445,0,0,1,.228.587A.446.446,0,0,1-1320.387,958.837Zm-10.879-4.759a.433.433,0,0,1-.178-.037l-3.267-1.418a.445.445,0,0,1-.232-.585.447.447,0,0,1,.585-.232l3.269,1.419a.445.445,0,0,1,.231.586A.443.443,0,0,1-1331.266,954.078Zm-21.71-.541a.436.436,0,0,1-.2-.048.445.445,0,0,1-.2-.6c.548-1.088,1.107-2.152,1.671-3.168a.445.445,0,0,1,.605-.173.444.444,0,0,1,.172.605c-.558,1.006-1.112,2.059-1.653,3.136A.447.447,0,0,1-1352.976,953.537Zm10.81-4.173a.442.442,0,0,1-.176-.036l-3.273-1.406a.445.445,0,0,1-.234-.584.444.444,0,0,1,.584-.234l3.274,1.406a.446.446,0,0,1,.234.585A.447.447,0,0,1-1342.166,949.364Z" transform="translate(1372.598 -937.265)" fill="#2f465f"/><path d="M-1293.6,1038.946l-11.181-4.942a3.159,3.159,0,0,1-1.751-3.808l3.463-11.331a3.154,3.154,0,0,1,4.3-1.952l13.433,5.937a3.155,3.155,0,0,1,1.5,4.409l-5.715,10.336A3.157,3.157,0,0,1-1293.6,1038.946Z" transform="translate(1348.518 -969.711)" fill="#2f465f"/><path d="M-1291.81,1038.755l-8.511-3.762a2.4,2.4,0,0,1-1.333-2.9l2.636-8.624a2.4,2.4,0,0,1,3.271-1.486l10.224,4.518a2.4,2.4,0,0,1,1.139,3.355l-4.35,7.867A2.4,2.4,0,0,1-1291.81,1038.755Z" transform="translate(1346.227 -972.107)" fill="#2f465f"/></g><path d="M-924.658,515.961l48.243-37.651a1.835,1.835,0,0,0,.627-.911l5.1-16.654a1.836,1.836,0,0,1,.85-1.061l3.312-1.882a1.842,1.842,0,0,1,1.086-.231l10.3,1a1.839,1.839,0,0,1,1.637,1.537l.78,4.818a1.839,1.839,0,0,1-.3,1.34l-1.382,2a1.838,1.838,0,0,0-.1,1.933h0a1.831,1.831,0,0,1-.234,2.106,37.315,37.315,0,0,1-12.868,9.046,1.826,1.826,0,0,0-.624.438l-43.373,47.134a1.838,1.838,0,0,1-2.635.074l-10.565-10.266A1.838,1.838,0,0,1-924.658,515.961Z" transform="translate(1189.52 -457.563)" fill="#efc3b1"/><path d="M-1056.788,623.869l68.65-57.529a3.553,3.553,0,0,1,4.64.059c2.895,2.571,7.724,7.208,9.966,11.353a3.907,3.907,0,0,1-.742,4.68l-71.021,68.007Z" transform="translate(1250.81 -507.903)" fill="#946bad"/><path d="M-1134.385,663.747s11.929,12.182,9.877,33.195a33,33,0,0,1-6.83,16.963l-60.219,77.7a8.5,8.5,0,0,1-5.683,3.237c-8.857,1.086-32.411,3.21-49.078-2.312a2.226,2.226,0,0,1-1.212-3.214l54.743-96.325,33.158-38.581S-1143.824,648.978-1134.385,663.747Z" transform="translate(1339.901 -548.909)" fill="#946bad"/><path d="M-1177.242,778.256a1.179,1.179,0,0,1-.706-.234,1.187,1.187,0,0,1-.246-1.661c.524-.706,52.412-70.591,55.922-79.1,3.212-7.787-4.34-13.785-4.664-14.036a1.189,1.189,0,0,1-.21-1.665,1.186,1.186,0,0,1,1.664-.212c.094.072,9.311,7.346,5.4,16.819-3.621,8.779-54.065,76.722-56.211,79.609A1.184,1.184,0,0,1-1177.242,778.256Z" transform="translate(1307.538 -561.812)" fill="#7e21c1"/><path d="M-1223.589,858.175l-25.343,31.458s-3.719,20.343-6.948,23.093-12.437,4.594-14.843,0a35.82,35.82,0,0,1-3.167-9.3l8.229,3.49s-.187-1.229-.416-2.771a.134.134,0,0,0-.01-.063c-.042-.187-.083-.416-.136-.656a37.8,37.8,0,0,1-.667-5.323c-.187-3.833.323-8.219,3.1-10.385,5.542-4.322,6.969-5.01,6.969-5.01l14.677-31.739S-1231.985,857.321-1223.589,858.175Z" transform="translate(1352.057 -641.03)" fill="#efc3b1"/><path d="M-1392.115,755.188a2.164,2.164,0,0,0-1.523,3.091c2.919,5.886,11.521,18.87,29.242,14.776,22.692-5.242,91.916-57.567,107.589-71.862s36.427-32.108,46.579-29.622,4.031-3.4-3-8.119c-5.456-3.662-8.251-8.652-6.788-10.1a.457.457,0,0,0,.111-.471.458.458,0,0,0-.374-.307c-4.66-.614-15.194-.7-29.278,7.058-18.851,10.388-110.895,45.9-141.711,35.621a1.967,1.967,0,0,0-2.553,1.537c-1.227,7.019-3.087,28.995,14.927,53.719A60.4,60.4,0,0,1-1392.115,755.188Z" transform="translate(1408.329 -548.388)" fill="#f7a600"/><g transform="translate(183.628 44.065)"><path d="M-1046.236,604.819l-17.995,25.409a4.251,4.251,0,0,0,.374,5.368c2.424,2.588,6.513,6.234,10.92,7.068a3.43,3.43,0,0,0,3.521-1.483l9.57-14.69S-1038.013,603.415-1046.236,604.819Z" transform="translate(1071.017 -570.274)" fill="#efc3b1"/><path d="M-1037.775,564.09c.363.343,15.353,29.779,15.353,29.779l-16.99,8.2-18.352-25.789S-1043.866,558.357-1037.775,564.09Z" transform="translate(1067.637 -550.781)" fill="#efc3b1"/><path d="M-1058.875,566.353a2.713,2.713,0,0,0,.2,2.38l8.473,14.126a2.632,2.632,0,0,0,.465.578c1.009.939,4.46,3.67,7.128-.049,2.274-3.169,4.408-6.049,6.694-7.238a2.708,2.708,0,0,1,3.656,1.2,101.121,101.121,0,0,1,5.8,13.756,2.7,2.7,0,0,1-1.57,3.308,75.16,75.16,0,0,1-16.273,4.747,2.709,2.709,0,0,1-2.562-1.09c-2.6-3.556-9.912-13.494-12.409-15.982-2.32-2.311-6.6-1.439-8.531-.885a2.723,2.723,0,0,1-2.165-.284c-1.957-1.179-5.373-4.115-2.248-9.086a2.713,2.713,0,0,0-.839-3.684c-2.185-1.438-4.557-4.136-2.3-8.506,2.287-4.423,6.371-4.821,9.153-4.48a2.814,2.814,0,0,0,2.953-1.642,1.793,1.793,0,0,1,1.4-1.1,2.631,2.631,0,0,0,2.129-3.089c-.49-2.5-.121-5.755,3.876-7.952,7.331-4.031,13.752,2.536,15.384,8.08s-6.563,9.461-11.719,10.116C-1055.964,560.06-1058.04,564.193-1058.875,566.353Z" transform="translate(1076.265 -540.138)" fill="#f55b2e"/><path d="M-1049.263,620.444s-3.26-9.538-7.432-9.188-7.457,4.507-2.286,9.18C-1052.549,626.249-1049.263,620.444-1049.263,620.444Z" transform="translate(1069.44 -573.3)" fill="#efc3b1"/></g><path d="M-811.366,481a.421.421,0,0,1-.2-.053.424.424,0,0,1-.168-.577c.1-.186,2.537-4.538,5.6-3.6,2.394.736,3.064.461,3.072.458a.408.408,0,0,1,.573.128.441.441,0,0,1-.135.6c-.189.126-1.018.471-3.759-.372-2.4-.743-4.58,3.158-4.6,3.2A.425.425,0,0,1-811.366,481Z" transform="translate(1136.553 -466.46)" fill="#efc3b1"/></g></g></g><g transform="translate(-1786.223 345.93)"><g transform="translate(0 55.984)"><path d="M-2016.6,416.8s.128-.686.4-1.94a1.012,1.012,0,0,1,1.206-.772,1.012,1.012,0,0,1,.731.632c.537-.387,1.174-.835,1.906-1.327a1.013,1.013,0,0,1,1.406.276,1.013,1.013,0,0,1-.276,1.406c-1.717,1.154-2.9,2.057-3.467,2.491-.16.122-.27.206-.328.246l-2.039,1.446Zm2-8.432c.568-2.115,1.191-4.272,1.851-6.411a1.013,1.013,0,0,1,1.266-.668,1.01,1.01,0,0,1,.669,1.267c-.653,2.113-1.268,4.247-1.83,6.339a1.012,1.012,0,0,1-1.241.715,1.012,1.012,0,0,1-.262-.11A1.015,1.015,0,0,1-2014.6,408.366Zm7.6,2.9a1.014,1.014,0,0,1,.4-1.376,65.982,65.982,0,0,1,6.068-2.928,1.017,1.017,0,0,1,1.326.543,1.015,1.015,0,0,1-.543,1.326,63.874,63.874,0,0,0-5.881,2.838,1.012,1.012,0,0,1-1.009-.022A1.009,1.009,0,0,1-2007,411.271Zm12.145-5.287a1.013,1.013,0,0,1,.7-1.248,43.856,43.856,0,0,1,6.649-1.329,1.012,1.012,0,0,1,1.125.888,1.012,1.012,0,0,1-.888,1.123,41.9,41.9,0,0,0-6.342,1.27,1.006,1.006,0,0,1-.795-.109A1.008,1.008,0,0,1-1994.859,405.984Zm-15.808-10.364c.731-2.1,1.509-4.2,2.31-6.256a1.013,1.013,0,0,1,1.312-.576,1.016,1.016,0,0,1,.576,1.312c-.792,2.03-1.561,4.111-2.285,6.186a1.013,1.013,0,0,1-1.29.624,1.053,1.053,0,0,1-.191-.089A1.014,1.014,0,0,1-2010.667,395.62Zm28.885,8.556a1.012,1.012,0,0,1,1.085-.936,31.629,31.629,0,0,1,4.817.727q.937.219,1.828.391a1.012,1.012,0,0,1,.8,1.188,1.013,1.013,0,0,1-1.188.8q-.924-.181-1.9-.407a29.676,29.676,0,0,0-4.508-.679,1.015,1.015,0,0,1-.448-.142A1.013,1.013,0,0,1-1981.782,404.176Zm23.411,11.465a1.014,1.014,0,0,1,1.031-.587,9.4,9.4,0,0,1,3.617-1.645,1.012,1.012,0,0,1,1.229.738,1.012,1.012,0,0,1-.737,1.228,6.154,6.154,0,0,0-3.9,2.379l-1.747-1.01Zm-10.317-9.552a1.013,1.013,0,0,1,1.04-.986,24.163,24.163,0,0,0,6.307-.594,1.013,1.013,0,0,1,1.222.748,1.014,1.014,0,0,1-.747,1.223,26.233,26.233,0,0,1-6.837.649,1.006,1.006,0,0,1-.495-.144A1.013,1.013,0,0,1-1968.688,406.089ZM-2005.81,383.2c.894-2.052,1.833-4.091,2.791-6.061a1.014,1.014,0,0,1,1.354-.467,1.016,1.016,0,0,1,.468,1.354c-.945,1.945-1.874,3.958-2.757,5.985a1.014,1.014,0,0,1-1.334.523,1.327,1.327,0,0,1-.119-.061A1.013,1.013,0,0,1-2005.81,383.2Zm50.156,26.39c1.031-2.346,1.9-4.4,2.594-6.089a1.012,1.012,0,0,1,1.32-.555,1.021,1.021,0,0,1,.555,1.321c-.7,1.71-1.577,3.775-2.616,6.139a1.013,1.013,0,0,1-1.335.52c-.04-.019-.08-.038-.116-.06A1.014,1.014,0,0,1-1955.654,409.585Zm7.721,3.977a1.014,1.014,0,0,1,.887-1.125c1.935-.229,4.057-.506,6.467-.994a1.016,1.016,0,0,1,1.194.792,1.014,1.014,0,0,1-.793,1.194c-2.48.5-4.652.786-6.629,1.02a1.009,1.009,0,0,1-.641-.139A1.012,1.012,0,0,1-1947.934,413.562Zm-7.99-10.178a1.013,1.013,0,0,1,.223-1.415,16.84,16.84,0,0,0,3.549-3.605c.288-.374.524-.675.718-.876a3.221,3.221,0,0,1,.26-.243.964.964,0,0,1,1.38.179,1.073,1.073,0,0,1-.182,1.471c-.155.162-.34.406-.57.7a18.9,18.9,0,0,1-3.963,4.008,1.015,1.015,0,0,1-1.12.049A1.006,1.006,0,0,1-1955.924,403.384Zm-44.039-32.189c.953-1.752,1.943-3.48,2.942-5.137l.394-.65a1.013,1.013,0,0,1,1.387-.339l0,0a1.012,1.012,0,0,1,.338,1.392l-.389.641c-.983,1.631-1.958,3.334-2.9,5.06a1.013,1.013,0,0,1-1.374.406l-.039-.023A1.013,1.013,0,0,1-1999.963,371.2Zm65.026,39.884a1.013,1.013,0,0,1,.656-1.274,63.6,63.6,0,0,0,6.093-2.312,1.015,1.015,0,0,1,1.334.521,1.014,1.014,0,0,1-.521,1.335,65.79,65.79,0,0,1-6.289,2.385,1.009,1.009,0,0,1-.832-.1A1.006,1.006,0,0,1-1934.937,411.08Zm12.206-5.1a1.012,1.012,0,0,1,.4-1.375c.408-.225.819-.453,1.234-.69a44.781,44.781,0,0,0,4.267-2.758,1.014,1.014,0,0,1,1.416.219,1.013,1.013,0,0,1-.22,1.415,46.648,46.648,0,0,1-4.461,2.885q-.636.363-1.261.7a1.013,1.013,0,0,1-1.011-.02A1.012,1.012,0,0,1-1922.73,405.981Zm-70-44.77a1.014,1.014,0,0,1-.259-1.409c1.285-1.862,2.619-3.675,3.966-5.389a1,1,0,0,1,1.423-.17,1.013,1.013,0,0,1,.172,1.421c-1.321,1.681-2.631,3.461-3.892,5.288a1.012,1.012,0,0,1-1.356.292Zm80.815,37.178a1.013,1.013,0,0,1,0-1.433,42.83,42.83,0,0,0,4.226-4.9,1.023,1.023,0,0,1,1.417-.213,1.013,1.013,0,0,1,.213,1.416,44.776,44.776,0,0,1-4.427,5.13,1.013,1.013,0,0,1-1.237.151A1.029,1.029,0,0,1-1911.913,398.39Zm-72.718-47.668a1.013,1.013,0,0,1-.072-1.431c1.519-1.677,3.1-3.292,4.687-4.8a1.017,1.017,0,0,1,1.432.039,1.013,1.013,0,0,1-.04,1.432c-1.553,1.47-3.094,3.047-4.577,4.685a1.013,1.013,0,0,1-1.273.189A1,1,0,0,1-1984.632,350.722Zm80.4,35.859a46.871,46.871,0,0,0,2.649-5.918,1.013,1.013,0,0,1,1.3-.6,1.01,1.01,0,0,1,.6,1.3,49.053,49.053,0,0,1-2.764,6.175,1.013,1.013,0,0,1-1.37.415c-.016-.008-.031-.017-.047-.026A1.013,1.013,0,0,1-1904.227,386.581Zm-70.885-45.064a1.013,1.013,0,0,1,.163-1.424c1.771-1.406,3.6-2.727,5.451-3.927a1.015,1.015,0,0,1,1.4.3,1.014,1.014,0,0,1-.3,1.4c-1.794,1.165-3.575,2.448-5.3,3.814a1.015,1.015,0,0,1-1.153.074A1,1,0,0,1-1975.112,341.517Zm75.348,32.919a28.114,28.114,0,0,0,.776-6.053l-.614-2.892a1.012,1.012,0,0,1,.78-1.2,1.013,1.013,0,0,1,1.2.78l.6,2.8-.015,0c.313,1.438-.424,5.524-.742,6.989a1.012,1.012,0,0,1-1.205.775.989.989,0,0,1-.309-.121A1.015,1.015,0,0,1-1899.764,374.436Zm-64.352-40.278a1.013,1.013,0,0,1,.44-1.363,62.378,62.378,0,0,1,6.148-2.742,1.015,1.015,0,0,1,1.308.586,1.012,1.012,0,0,1-.585,1.307,60.6,60.6,0,0,0-5.947,2.652,1.012,1.012,0,0,1-.986-.034A1,1,0,0,1-1964.116,334.159Zm12.273-4.923a1.014,1.014,0,0,1,.725-1.236,62.162,62.162,0,0,1,6.595-1.337,1.014,1.014,0,0,1,1.15.855,1.011,1.011,0,0,1-.855,1.149,60.022,60.022,0,0,0-6.379,1.295,1.013,1.013,0,0,1-.779-.114A1.011,1.011,0,0,1-1951.843,329.235Zm50.862,29.772-1.379-6.484a1.013,1.013,0,0,1,.78-1.2,1.011,1.011,0,0,1,1.2.781l1.38,6.483a1.013,1.013,0,0,1-.781,1.2,1,1,0,0,1-.734-.123A1.008,1.008,0,0,1-1900.981,359.008Zm-37.816-31.917a1.014,1.014,0,0,1,.97-1.055c2.19-.091,4.449-.074,6.716.049a1.01,1.01,0,0,1,.956,1.067,1.013,1.013,0,0,1-1.066.956c-2.2-.12-4.4-.136-6.523-.047a1,1,0,0,1-.564-.144A1.013,1.013,0,0,1-1938.8,327.091Zm35.057,18.95-1.378-6.485a1.012,1.012,0,0,1,.78-1.2,1.013,1.013,0,0,1,1.2.781l1.378,6.484a1.011,1.011,0,0,1-.78,1.2,1,1,0,0,1-.734-.123A1.013,1.013,0,0,1-1903.74,346.041Zm-21.842-18.429a1.013,1.013,0,0,1,1.148-.858c2.154.312,4.371.721,6.586,1.221a1.007,1.007,0,0,1,.766,1.21,1.012,1.012,0,0,1-1.21.765c-2.165-.487-4.329-.888-6.432-1.191a1,1,0,0,1-.378-.134A1.014,1.014,0,0,1-1925.583,327.612Zm12.945,2.748a1.013,1.013,0,0,1,1.262-.678c2.031.611,4.112,1.307,6.187,2.071l.525.193.149.707a1.013,1.013,0,0,1-.78,1.2,1.011,1.011,0,0,1-.991-.345c-1.9-.693-3.811-1.327-5.673-1.887a.994.994,0,0,1-.232-.1A1.013,1.013,0,0,1-1912.638,330.36Z" transform="translate(2017.057 -325.978)" fill="#ebebeb"/></g><path d="M-1869.272,367.783s-3.694,29.142-25.379,28.738-43.464-6.194-50.85.852c0,0,17.912-54.578,72.972-39.427Z" transform="translate(1983.686 -283.663)" fill="#f55b2e"/><path d="M-1756.679,399.5s6.622,28.07-.689,34.559c-6.954,6.172-69.99,23.206-76.124,24.854a.538.538,0,0,1-.649-.348h0a7.386,7.386,0,0,1,.861-6.641c6.435-9.425,25.892-37.4,34.488-43.972C-1788.412,400.013-1756.679,399.5-1756.679,399.5Z" transform="translate(1931.952 -304.281)" fill="#1e2d3d"/><path d="M-1792.909,455.552a.661.661,0,0,0,.526.069c.346-.1,34.706-10.026,49.332-14.876a6.927,6.927,0,0,0,4.718-5.9,101.169,101.169,0,0,0-.024-20.947.661.661,0,0,0-.737-.579.665.665,0,0,0-.58.737,101.744,101.744,0,0,1,.022,20.661,5.6,5.6,0,0,1-3.816,4.773c-14.6,4.842-48.937,14.762-49.282,14.86a.664.664,0,0,0-.453.821A.662.662,0,0,0-1792.909,455.552Z" transform="translate(1912.673 -310.722)" fill="#fff"/><path d="M-1815.686,258.077s-12.537-25.973-22.3-26.408c-9.289-.414-68.977,26.06-74.78,28.645a.539.539,0,0,0-.285.679h0a7.387,7.387,0,0,0,4.851,4.616c10.934,3.266,43.668,12.739,54.484,12.429C-1840.657,277.664-1815.686,258.077-1815.686,258.077Z" transform="translate(1968.569 -226.01)" fill="#1e2d3d"/><path d="M-1869.669,257.477a.663.663,0,0,0,.6.043c.331-.14,33.247-14.064,47.636-19.5a5.6,5.6,0,0,1,5.971,1.3,101.818,101.818,0,0,1,13,16.061.66.66,0,0,0,.914.208.663.663,0,0,0,.207-.914,103.171,103.171,0,0,0-13.176-16.285,6.935,6.935,0,0,0-7.384-1.614c-14.413,5.446-47.354,19.381-47.685,19.52a.663.663,0,0,0-.352.869A.66.66,0,0,0-1869.669,257.477Z" transform="translate(1948.471 -228.186)" fill="#fff"/><path d="M-1661.044,283.618a148.963,148.963,0,0,1-40.8,22.32c-50.227,17.971-90.252,22.492-101.667,23.473a5.656,5.656,0,0,1-5.19-2.535,99.705,99.705,0,0,1-16.246-44.718,8.219,8.219,0,0,1,3.629-7.732c11.078-7.376,44.227-27.975,92.388-44.892a148.952,148.952,0,0,1,45.432-8.358C-1667.7,243.627-1662.923,269.057-1661.044,283.618Z" transform="translate(1927.49 -221.119)" fill="#1983ca"/><path d="M-1559.846,221.126a154.589,154.589,0,0,1,62.094,11.059,2.778,2.778,0,0,1,1.374,3.876,154.569,154.569,0,0,1-41.009,47.506C-1539.266,269.007-1544.046,243.577-1559.846,221.126Z" transform="translate(1803.833 -221.069)" fill="#1e2d3d"/><g transform="translate(182.869 11.824)"><ellipse cx="25.019" cy="26.852" rx="25.019" ry="26.852" transform="translate(0 16.719) rotate(-19.52)" fill="#8bc8f1"/><path d="M-1637.332,265.82c-10.377,3.679-15.589,15.69-11.64,26.828s15.562,17.184,25.939,13.5,15.589-15.69,11.64-26.828S-1626.954,262.141-1637.332,265.82Z" transform="translate(1663.144 -253.26)" fill="#fff"/><path d="M-1596.958,307.636a.663.663,0,0,0,.737-.035,16.737,16.737,0,0,0,5.474-18.978,17.375,17.375,0,0,0-2.626-4.829.664.664,0,0,0-.93-.12.662.662,0,0,0-.119.929,16.078,16.078,0,0,1,2.426,4.463,15.4,15.4,0,0,1-5.013,17.469.662.662,0,0,0-.138.927A.643.643,0,0,0-1596.958,307.636Z" transform="translate(1638.421 -262.025)" fill="#fff"/></g><g transform="translate(146.525 40.05)"><ellipse cx="16.528" cy="17.739" rx="16.528" ry="17.739" transform="translate(0 11.047) rotate(-19.522)" fill="#8bc8f1"/><path d="M-1718.007,311.047c-6.855,2.431-10.3,10.365-7.69,17.723s10.281,11.352,17.136,8.922,10.3-10.365,7.69-17.723S-1711.151,308.617-1718.007,311.047Z" transform="translate(1735.06 -302.749)" fill="#fff"/><path d="M-1691.648,338.669a.662.662,0,0,0,.737-.035,11.284,11.284,0,0,0,3.7-12.794,11.693,11.693,0,0,0-1.771-3.252.662.662,0,0,0-.93-.119.662.662,0,0,0-.118.93,10.384,10.384,0,0,1,1.568,2.885,9.946,9.946,0,0,1-3.234,11.284.662.662,0,0,0-.138.927A.651.651,0,0,0-1691.648,338.669Z" transform="translate(1718.924 -308.343)" fill="#fff"/></g></g><g transform="translate(-1921 674.203)"><g transform="translate(4.782 185.468)"><path d="M-973.005,1483.239a3,3,0,0,0,1.278-.289,3.661,3.661,0,0,0,1.694-4.642l-67.891-172.262a3.141,3.141,0,0,0-4.253-1.849,3.661,3.661,0,0,0-1.694,4.642l67.891,172.261A3.242,3.242,0,0,0-973.005,1483.239Z" transform="translate(1280.248 -1303.909)" fill="#8bc8f1"/><path d="M-1028.882,1483.239a3.241,3.241,0,0,0,2.975-2.138l67.891-172.261a3.661,3.661,0,0,0-1.694-4.642,3.142,3.142,0,0,0-4.254,1.849l-67.891,172.262a3.661,3.661,0,0,0,1.694,4.642A3,3,0,0,0-1028.882,1483.239Z" transform="translate(1259.643 -1303.909)" fill="#8bc8f1"/><path d="M-654.627,1483.239a3,3,0,0,0,1.278-.289,3.661,3.661,0,0,0,1.694-4.642l-67.891-172.262a3.142,3.142,0,0,0-4.253-1.849,3.661,3.661,0,0,0-1.694,4.642L-657.6,1481.1A3.241,3.241,0,0,0-654.627,1483.239Z" transform="translate(734.345 -1303.909)" fill="#8bc8f1"/><path d="M-710.5,1483.239a3.242,3.242,0,0,0,2.976-2.138l67.891-172.261a3.661,3.661,0,0,0-1.694-4.642,3.141,3.141,0,0,0-4.253,1.849l-67.891,172.262a3.662,3.662,0,0,0,1.694,4.642A3,3,0,0,0-710.5,1483.239Z" transform="translate(713.741 -1303.909)" fill="#8bc8f1"/></g><g transform="translate(80.429 229.266)"><rect width="8.027" height="86.807" transform="translate(41.573 19.45)" fill="#8bc8f1"/><path d="M-828.51,1514.14H-758.2v-.377a4.848,4.848,0,0,0-4.848-4.847h-60.232a5.225,5.225,0,0,0-5.225,5.225Z" transform="translate(838.944 -1406.209)" fill="#8bc8f1"/><rect width="88.395" height="25.07" rx="12.079" transform="translate(0 0)" fill="#8bc8f1"/></g><g transform="translate(71.389 174.534)"><path d="M-873.166,1311.422s11.928,1.849,25.339,10.814a6.685,6.685,0,0,1,2.95,6.389c-1.606,12.72-8.208,53.89-29.98,94.1a10.124,10.124,0,0,0-.971,6.946l3.783,17.6,7.015,6.578H-883.1l-12.03-32.555,5.144-1.627a9.734,9.734,0,0,0,6.8-9.112l.6-34.923c-.515-15.559,9.54-26.294,9.54-26.294l-28.855-1.4Z" transform="translate(987.051 -1295.119)" fill="#a87256"/><path d="M-842.591,1500.219c1.646,2.153-17.71,5-27.489.284,0,0-13.555-23.584-13.555-35.728,0,0,1.076-2.476,9.035-1.915,0,0,4.551,27.926,9.357,31.055s13.447.316,13.447.316S-845.018,1497.041-842.591,1500.219Z" transform="translate(971.665 -1338.31)" fill="url(#a)"/><path d="M-995.675,1351.642c.154-.266,31.067-3.717,31.067-3.717s-1.012,9.4,2.15,22.338,48.55,69,48.55,69l-4.759,15.087a76.545,76.545,0,0,0,43.431,2.612l-29.494-17.7s-27.6-94.065-44.51-110.846l-30.987-10.72Z" transform="translate(1084.477 -1296.909)" fill="#a87256"/><path d="M-872.212,1288.609s-17.81,26.491-19.272,38.575,4.879,16.995,23.567,17.8,68.578.8,68.578.8l42.579-36.39s-31.03-11.073-39.1-14.2S-872.212,1288.609-872.212,1288.609Z" transform="translate(891.685 -1288.609)" fill="#2f465f"/><path d="M-1004.444,1501.805s-5.124,4.962-1.662,10.484c0,0,40.588,7.194,51.607,3.93,0,0-2.288-5.223-14.7-11.167l.916.7a1.482,1.482,0,0,1-.98,2.659C-977.436,1507.948-994.358,1506.45-1004.444,1501.805Z" transform="translate(1172.052 -1349.447)" fill="url(#b)"/></g><g transform="translate(68.146)"><path d="M-759.733,1080.343c-2.691.84-12.393,4.321-11.14,10.56a1.141,1.141,0,0,1-1.429,1.308c-4.18-1.125-13.414-2.543-19.138,4.629-5.054,6.333-1.277,12.309,1.8,15.589a1.149,1.149,0,0,1-.96,1.942c-7.684-.971-24.383-1.2-27.115,14.44-2.548,14.587,7.606,18.7,13.627,19.86a1.142,1.142,0,0,1,.381,2.091c-3,1.906-6.485,5.844-5.078,13.616,2.2,12.181,26.086,11.184,28.878,11.025a1.129,1.129,0,0,0,.5-.149l38.252-21.817a1.149,1.149,0,0,0,.564-.8l7.722-44.6a1.151,1.151,0,0,0-.3-.993l-25.4-26.4A1.141,1.141,0,0,0-759.733,1080.343Z" transform="translate(818.444 -1054.629)" fill="#8495a7"/><path d="M-782.825,1245.356s20.741-19.749,30.95-32.83a27.751,27.751,0,0,0,4.7-24.978c-4.661-15.7-12.944-31.969-13.7-34.5-1.159-3.88-24.414-3.718-24.414-3.718s-45.763,29.7-63.743,80.011l20.193,6.287s11.949-20.046,23.755-32.791c0,0-20.429,26.987-21.148,38.034Z" transform="translate(853.709 -1074.33)" fill="#946bad"/><path d="M-806.041,1122.938c-.243.807-6.312,20.93-6.788,21.347s-13.312,1.108-19.353-3.022l10.251-21.458Z" transform="translate(901.687 -1065.905)" fill="#a87256"/><g transform="translate(54.1)"><path d="M-829.434,1064.787s10.958,4.627,18.408,20.462,1.887,23.146-5.1,24.149-17.441.851-28.5-9.378S-843.678,1059.3-829.434,1064.787Z" transform="translate(861.009 -1050.018)" fill="#a87256"/><path d="M-810.673,1085.93s-8.268-23.166,12.272-23.44l4.833,3.378s7.536-12.844-4.833-18.976-26.845-1.067-32.109,15.6-6.162,27.819,2.595,35.793,12.366-1.068,12.366-1.068-4.769-7.457-2.828-11.447,6.42.825,6.42.825Z" transform="translate(834.49 -1044.382)" fill="#8495a7"/><path d="M-792.754,1102.817s-4.181-11.934-9.757-7.181,4.532,11.023,8.49,13.055Z" transform="translate(814.268 -1058.689)" fill="#a87256"/></g><path d="M-743.521,1278.772l-15.238-14.688-21.08,8.906s-20.983,3.251-32.993,0l-12.01-3.251-27.139-8.449-4.262,12.046a7.252,7.252,0,0,0,2.65,8.333,47.864,47.864,0,0,0,6.854,4.27c3.574,1.563,88.1-1.082,88.1-1.082Z" transform="translate(856.658 -1106.279)" fill="#a87256"/></g><g transform="translate(119.858 99.159)"><path d="M-901.714,1292.246q.1.005.2,0l88.4-.1a3.956,3.956,0,0,0,3.952-3.961,3.936,3.936,0,0,0-3.961-3.952l-88.4.1a3.956,3.956,0,0,0-3.953,3.961A3.958,3.958,0,0,0-901.714,1292.246Z" transform="translate(905.472 -1211.988)" fill="#9ca9b8"/><path d="M-899.032,1183.136h-73.617a14.032,14.032,0,0,0-12.69,8.046l-34.032,72.165h91.486a8.527,8.527,0,0,0,7.93-5.393l26.392-66.778A5.88,5.88,0,0,0-899.032,1183.136Z" transform="translate(1070.854 -1183.136)" fill="#9ca9b8"/><ellipse cx="5.8" cy="9.428" rx="5.8" ry="9.428" transform="translate(128.111 49.53) rotate(-162.158)" fill="#fff"/></g><path d="M-1085.884,1298.336a3.1,3.1,0,0,1,.828-2.826,4.2,4.2,0,0,1,3.037-1.243h336.679a4.734,4.734,0,0,1,3.818,1.815,3.494,3.494,0,0,1,.3,3.771l-4.314,8.11a6.158,6.158,0,0,1-5.484,3.046h-328.262a4.457,4.457,0,0,1-4.491-3.218Z" transform="translate(1085.956 -1115.69)" fill="#8bc8f1"/></g></g></g></svg>