<?xml version="1.0" encoding="utf-8"?>
<svg id="Layer_1" x="0px" y="0px" viewBox="0 0 906.1 629" style="enable-background:new 0 0 906.1 629;" xmlns="http://www.w3.org/2000/svg">
  <style type="text/css">	.st0{fill:none;stroke:#EBF3F9;stroke-width:10;stroke-miterlimit:10;}	.st1{opacity:0.3;fill:#337AB7;enable-background:new    ;}	.st2{fill:#337AB7;}	.st3{fill:#FFFFFF;}	.st4{enable-background:new    ;}	.st5{fill:#146DAD;}	.st6{fill:#FFFFFF;stroke:#FFFFFF;stroke-width:0.3;stroke-miterlimit:10;}	.st7{fill:#FFFFFF;stroke:#337AB7;stroke-width:2.2;stroke-linejoin:round;stroke-miterlimit:10;}	.st8{fill:none;stroke:#EBF3F9;stroke-width:10;stroke-linecap:round;stroke-linejoin:round;stroke-miterlimit:10;}</style>
  <path class="st0" d="M170.6,80h662.5c27.6,0,50,22.4,50,50v100c0,27.6-22.4,50-50,50H73" style="stroke: rgb(0, 0, 0);"/>
  <path class="st0" d="M 735.5 479.8 L 278.737 479.8 L 73 479.8 C 45.4 479.8 23 457.4 23 429.8 L 23 329.8 C 23 302.2 45.4 279.8 73 279.8" style="stroke: rgb(0, 0, 0);"/>
  <circle class="st1" cx="153.1" cy="80" r="80"/>
  <circle class="st2" cx="153.1" cy="80" r="70"/>
  <circle class="st1" cx="153.1" cy="479.6" r="80"/>
  <circle class="st2" cx="153.1" cy="479.6" r="70"/>
  <circle class="st1" cx="746.4" cy="80" r="80"/>
  <circle class="st2" cx="746.4" cy="80" r="70"/>
  <circle class="st1" cx="746.4" cy="479.6" r="80"/>
  <circle class="st2" cx="746.4" cy="479.6" r="70"/>
  <circle class="st1" cx="449.7" cy="80" r="80"/>
  <circle class="st2" cx="449.7" cy="80" r="70"/>
  <circle class="st1" cx="449.7" cy="479.6" r="80"/>
  <circle class="st2" cx="449.7" cy="479.6" r="70"/>
  <g>
    <path class="st3" d="M121.1,54.8h26.6c0.7,0,1.3-0.6,1.3-1.3s-0.6-1.3-1.3-1.3h-26.6c-0.7,0-1.3,0.6-1.3,1.3S120.3,54.8,121.1,54.8  z"/>
    <path class="st3" d="M121.1,61.5h21.3c0.7,0,1.3-0.6,1.3-1.3s-0.6-1.3-1.3-1.3h-21.3c-0.7,0-1.3,0.6-1.3,1.3S120.3,61.5,121.1,61.5  z"/>
    <path class="st3" d="M130.4,65.5h-9.3c-0.7,0-1.3,0.6-1.3,1.3s0.6,1.3,1.3,1.3h9.3l0,0c0.7,0,1.3-0.6,1.3-1.3  S131.1,65.5,130.4,65.5z"/>
    <path class="st3" d="M130.4,72.1h-9.3c-0.7,0-1.3,0.6-1.3,1.3s0.6,1.3,1.3,1.3h9.3l0,0c0.7,0,1.3-0.6,1.3-1.3  S131.1,72.1,130.4,72.1z"/>
    <path class="st3" d="M172.9,57.5h6.6c0.7,0,1.3-0.6,1.3-1.3s-0.6-1.3-1.3-1.3h-6.6c-0.7,0-1.3,0.6-1.3,1.3  C171.6,56.9,172.2,57.5,172.9,57.5z"/>
    <path class="st3" d="M179.5,61.5h-6.6c-0.7,0-1.3,0.6-1.3,1.3s0.6,1.3,1.3,1.3h6.6c0.7,0,1.3-0.6,1.3-1.3S180.3,61.5,179.5,61.5z"/>
    <path class="st3" d="M186.5,104.4c0.6-0.9,1-1.9,1-3V52.2c0-2.9-2.4-5.3-5.3-5.3h-14.6c0-2.9-2.4-5.3-5.3-5.3h-43.9  c-2.9,0-5.3,2.4-5.3,5.3v50.5c0,0.3,0.2,0.7,0.4,0.9l13.3,13.3c0.2,0.2,0.6,0.4,0.9,0.4h34.6c1.5,0,3-0.7,4-1.8  c1-1.1,1.5-2.6,1.4-4.1c1.7,2.1,4.6,2.6,6.9,1.3l9.5,9.5l0,0c2.1,2.1,5.4,2.1,7.5,0s2.1-5.4,0-7.5L186.5,104.4z M182.2,49.5  c1.5,0,2.7,1.2,2.7,2.7v49.2c0,0.4-0.1,0.7-0.2,1.1l-2.6-2.6c1.2-2.1,0.9-4.7-0.8-6.4l-2-2c4.5-10.8-0.6-24.9-11.6-30.1V49.6  L182.2,49.5z M141.9,97.8c-13.4-13.3-3.6-36.4,15-36.3c5.6,0,11.1,2.2,15,6.2C191.1,88.5,162.7,116.9,141.9,97.8L141.9,97.8z   M117.6,98.7h6.1c1.5,0,2.7,1.2,2.7,2.7v6.1L117.6,98.7z M162.3,109.3H129v-8c0-2.9-2.4-5.3-5.3-5.3h-8V46.8c0-1.5,1.2-2.7,2.7-2.7  h43.9c1.5,0,2.7,1.2,2.7,2.7v13.4c-24-8.2-42.8,21.1-25,39.5c3.2,3.2,7.2,5.4,11.6,6.4c4.4,1,9,0.7,13.3-0.8v1.4  C164.9,108.2,163.7,109.3,162.3,109.3L162.3,109.3z M169.9,104.7l-1.1-1.1l0,0c3.9-2.2,7.2-5.5,9.3-9.5l1.3,1.3  c0.5,0.5,0.8,1.2,0.8,1.9c0,0.7-0.3,1.4-0.8,1.9l-5.1,5.1l-0.6,0.6l0,0C172.6,105.7,171,105.7,169.9,104.7L169.9,104.7z M189.7,115  c-1,1-2.7,1-3.8,0l-9.4-9.4l3.8-3.8l9.4,9.4l0,0C190.7,112.3,190.7,114,189.7,115L189.7,115z"/>
    <path class="st3" d="M149,77.4h16c0.7,0,1.3-0.6,1.3-1.3s-0.6-1.3-1.3-1.3h-16c-0.7,0-1.3,0.6-1.3,1.3S148.2,77.4,149,77.4z"/>
    <path class="st3" d="M168.2,81.4h-22.6c-0.7,0-1.3,0.6-1.3,1.3s0.6,1.3,1.3,1.3h22.6c0.7,0,1.3-0.6,1.3-1.3S169,81.4,168.2,81.4z"/>
    <path class="st3" d="M164.9,88.1h-16c-0.7,0-1.3,0.6-1.3,1.3s0.6,1.3,1.3,1.3h16c0.7,0,1.3-0.6,1.3-1.3S165.6,88.1,164.9,88.1z"/>
  </g>
  <g>
    <path class="st3" d="M427.9,101.6c8.6,0,15.8-6,17.8-14h7.9c1.9,8.1,9.2,14,17.8,14c10.1,0,18.3-8.1,18.3-18.3  c0-2.3-0.5-4.5-1.2-6.6c0-0.1-0.1-0.2-0.1-0.3c-0.6-1.3-1.2-2.5-2.1-3.7l-8.3-15l-0.1-0.1c-2.5-4.3-7.1-6.9-12-6.9  c-6.2,0-11.4,4-13.2,9.6H447c-1.8-5.6-7-9.6-13.2-9.6c-5,0-9.6,2.6-12,6.9l-0.3,0.3L413,72.6c-0.8,1.1-1.5,2.4-2.1,3.7  c-0.1,0.1-0.1,0.2-0.1,0.3c-0.7,2.1-1.2,4.2-1.2,6.6C409.7,93.3,417.8,101.6,427.9,101.6L427.9,101.6z M423.7,59.3L423.7,59.3  c0.1-0.1,0.1-0.2,0.2-0.2c2-3.5,5.6-5.6,9.6-5.6c6.1,0,11.1,5,11.1,11.1c0,0.4,0,0.8-0.1,1.4l-0.6,8.5c-3.1-5.6-9.1-9.5-16-9.5  c-3.1,0-6,0.7-8.5,2.2L423.7,59.3z M465.7,53.4c3.9,0,7.7,2.2,9.6,5.6c0,0,0,0.1,0.1,0.1l0.1,0.1l4.4,7.9c-2.5-1.4-5.4-2.2-8.5-2.2  c-6.9,0-12.9,3.8-16,9.5l-0.6-8.6c-0.1-0.5-0.1-0.9-0.1-1.3C454.6,58.4,459.6,53.4,465.7,53.4L465.7,53.4z M455.8,83.3  c0-8.5,6.9-15.5,15.5-15.5c8.5,0,15.5,6.9,15.5,15.5c0,8.5-6.9,15.5-15.5,15.5C462.7,98.8,455.8,91.8,455.8,83.3z M427.9,98.8  c-8.5,0-15.5-6.9-15.5-15.5c0-8.5,6.9-15.5,15.5-15.5c8.5,0,15.5,6.9,15.5,15.5C443.4,91.8,436.4,98.8,427.9,98.8z M446.1,83.4  l0.1-1.5h6.7l0.1,1.5c0,0.5,0,0.8,0.1,1.3h-6.9C446.1,84.3,446.1,83.8,446.1,83.4L446.1,83.4z M451.9,66.1l0.8,12.9h-6.3l0.8-12.8  c0.1-0.6,0.1-1.1,0.1-1.7c0-0.5,0-0.9-0.1-1.4h4.6c0,0.5-0.1,0.9-0.1,1.4C451.8,65,451.8,65.6,451.9,66.1L451.9,66.1z"/>
    <path class="st3" d="M427.9,74.4c0.7,0,1.4-0.7,1.4-1.4c0-0.7-0.7-1.4-1.4-1.4c-6.5,0-11.7,5.2-11.7,11.7c0,0.7,0.7,1.4,1.4,1.4  c0.7,0,1.4-0.7,1.4-1.4C419,78.4,423,74.4,427.9,74.4L427.9,74.4z"/>
    <path class="st3" d="M462.3,83.3c0-4.9,4-8.9,8.9-8.9c0.7,0,1.4-0.7,1.4-1.4c0-0.7-0.7-1.4-1.4-1.4c-6.5,0-11.7,5.2-11.7,11.7  c0,0.7,0.7,1.4,1.4,1.4C461.7,84.7,462.3,84.1,462.3,83.3L462.3,83.3z"/>
  </g>
  <g class="st4">
    <path d="M97.2,194.1h-2.4v-11.4l-3.5,1.2v-2l5.5-2h0.3V194.1z"/>
    <path d="M103.8,191.6c0.4,0,0.8,0.1,1,0.4c0.2,0.3,0.4,0.6,0.4,0.9c0,0.4-0.1,0.7-0.4,0.9c-0.2,0.2-0.6,0.4-1,0.4  c-0.4,0-0.8-0.1-1-0.4c-0.2-0.2-0.4-0.5-0.4-0.9s0.1-0.7,0.4-0.9C103,191.8,103.4,191.6,103.8,191.6z"/>
    <path d="M115.7,194.1h-2.5v-14.2h2.5V194.1z"/>
    <path d="M120.7,183.6l0.1,1.2c0.8-0.9,1.8-1.4,3.1-1.4c2.2,0,3.3,1.3,3.4,3.8v7h-2.4v-6.8c0-0.7-0.1-1.2-0.4-1.5  c-0.3-0.3-0.8-0.5-1.4-0.5c-1,0-1.7,0.4-2.1,1.3v7.5h-2.4v-10.6H120.7z"/>
    <path d="M130.5,194.1v-8.8h-1.6v-1.8h1.6v-1c0-1.2,0.3-2.1,1-2.7c0.7-0.6,1.6-1,2.7-1c0.4,0,0.9,0.1,1.3,0.2l-0.1,1.9  c-0.3-0.1-0.6-0.1-0.9-0.1c-1.1,0-1.7,0.6-1.7,1.7v0.9h2.1v1.8h-2.1v8.8H130.5z"/>
    <path d="M136.3,188.8c0-1,0.2-2,0.6-2.8s1-1.5,1.7-1.9s1.6-0.7,2.6-0.7c1.4,0,2.6,0.5,3.5,1.4s1.4,2.1,1.4,3.7l0,0.6  c0,1-0.2,2-0.6,2.8s-1,1.5-1.7,1.9c-0.7,0.4-1.6,0.7-2.6,0.7c-1.5,0-2.7-0.5-3.6-1.5c-0.9-1-1.3-2.3-1.3-4V188.8z M138.7,189  c0,1.1,0.2,1.9,0.7,2.6s1.1,0.9,1.9,0.9s1.4-0.3,1.9-0.9c0.4-0.6,0.7-1.5,0.7-2.7c0-1.1-0.2-1.9-0.7-2.5s-1.1-0.9-1.9-0.9  c-0.8,0-1.4,0.3-1.8,0.9C138.9,186.8,138.7,187.7,138.7,189z"/>
    <path d="M153.7,185.7c-0.3-0.1-0.6-0.1-1-0.1c-1.1,0-1.8,0.4-2.2,1.2v7.2h-2.4v-10.6h2.3l0.1,1.2c0.6-0.9,1.4-1.4,2.4-1.4  c0.3,0,0.6,0,0.8,0.1L153.7,185.7z"/>
    <path d="M157.4,183.6l0.1,1.1c0.7-0.9,1.8-1.3,3-1.3c1.4,0,2.4,0.5,2.9,1.6c0.8-1.1,1.8-1.6,3.2-1.6c1.2,0,2,0.3,2.6,1  c0.6,0.6,0.9,1.6,0.9,2.9v6.9h-2.4v-6.9c0-0.7-0.1-1.2-0.4-1.5s-0.8-0.5-1.5-0.5c-0.5,0-1,0.1-1.3,0.4s-0.6,0.7-0.7,1.1l0,7.2h-2.4  v-7c0-1.2-0.7-1.9-1.9-1.9c-1,0-1.6,0.4-2,1.2v7.7h-2.4v-10.6H157.4z"/>
    <path d="M178.9,194.1c-0.1-0.2-0.2-0.5-0.3-1c-0.8,0.8-1.7,1.2-2.8,1.2c-1.1,0-1.9-0.3-2.6-0.9c-0.7-0.6-1-1.4-1-2.2  c0-1.1,0.4-2,1.3-2.6c0.8-0.6,2-0.9,3.6-0.9h1.5V187c0-0.5-0.2-1-0.5-1.3c-0.3-0.3-0.8-0.5-1.4-0.5c-0.5,0-1,0.1-1.3,0.4  c-0.3,0.3-0.5,0.6-0.5,1h-2.4c0-0.6,0.2-1.1,0.6-1.6c0.4-0.5,0.9-0.9,1.6-1.2c0.7-0.3,1.4-0.4,2.2-0.4c1.2,0,2.2,0.3,3,0.9  c0.7,0.6,1.1,1.5,1.1,2.6v4.8c0,1,0.1,1.7,0.4,2.3v0.2H178.9z M176.3,192.4c0.5,0,0.9-0.1,1.3-0.3c0.4-0.2,0.7-0.5,0.9-0.9v-2h-1.3  c-0.9,0-1.5,0.2-2,0.5c-0.4,0.3-0.7,0.7-0.7,1.3c0,0.5,0.2,0.8,0.5,1.1S175.8,192.4,176.3,192.4z"/>
    <path d="M186.4,181v2.6h1.9v1.8h-1.9v5.9c0,0.4,0.1,0.7,0.2,0.9c0.2,0.2,0.4,0.3,0.9,0.3c0.3,0,0.6,0,0.8-0.1v1.8  c-0.5,0.1-1.1,0.2-1.6,0.2c-1.8,0-2.7-1-2.7-3v-6h-1.7v-1.8h1.7V181H186.4z"/>
    <path d="M190,180.8c0-0.4,0.1-0.7,0.3-0.9c0.2-0.2,0.6-0.4,1-0.4s0.8,0.1,1,0.4s0.4,0.5,0.4,0.9c0,0.4-0.1,0.7-0.4,0.9  s-0.6,0.4-1,0.4s-0.8-0.1-1-0.4C190.2,181.5,190,181.2,190,180.8z M192.6,194.1h-2.4v-10.6h2.4V194.1z"/>
    <path d="M194.7,188.8c0-1,0.2-2,0.6-2.8s1-1.5,1.7-1.9s1.6-0.7,2.6-0.7c1.4,0,2.6,0.5,3.5,1.4s1.4,2.1,1.4,3.7l0,0.6  c0,1-0.2,2-0.6,2.8s-1,1.5-1.7,1.9c-0.7,0.4-1.6,0.7-2.6,0.7c-1.5,0-2.7-0.5-3.6-1.5c-0.9-1-1.3-2.3-1.3-4V188.8z M197.1,189  c0,1.1,0.2,1.9,0.7,2.6s1.1,0.9,1.9,0.9s1.4-0.3,1.9-0.9c0.4-0.6,0.7-1.5,0.7-2.7c0-1.1-0.2-1.9-0.7-2.5s-1.1-0.9-1.9-0.9  c-0.8,0-1.4,0.3-1.8,0.9C197.3,186.8,197.1,187.7,197.1,189z"/>
    <path d="M208.7,183.6l0.1,1.2c0.8-0.9,1.8-1.4,3.1-1.4c2.2,0,3.3,1.3,3.4,3.8v7h-2.4v-6.8c0-0.7-0.1-1.2-0.4-1.5  c-0.3-0.3-0.8-0.5-1.4-0.5c-1,0-1.7,0.4-2.1,1.3v7.5h-2.4v-10.6H208.7z"/>
  </g>
  <g class="st4">
    <path d="M121.7,216.3c-0.5,0.7-1.2,1.2-2.1,1.5s-1.9,0.5-3.1,0.5c-1.2,0-2.2-0.3-3.2-0.8s-1.6-1.3-2.1-2.3s-0.8-2.2-0.8-3.5v-1.1  c0-2.1,0.5-3.8,1.5-5s2.5-1.8,4.3-1.8c1.6,0,2.8,0.4,3.8,1.2s1.5,1.9,1.7,3.4h-2.4c-0.3-1.7-1.3-2.6-3-2.6c-1.1,0-1.9,0.4-2.5,1.2  s-0.9,2-0.9,3.5v1.1c0,1.5,0.3,2.7,1,3.6s1.5,1.3,2.7,1.3c1.3,0,2.2-0.3,2.7-0.9v-2.8h-2.9v-1.9h5.4V216.3z"/>
    <path d="M130.5,218.1c-0.1-0.2-0.2-0.5-0.3-1c-0.8,0.8-1.7,1.2-2.8,1.2c-1.1,0-1.9-0.3-2.6-0.9s-1-1.4-1-2.2c0-1.1,0.4-2,1.3-2.6  s2-0.9,3.6-0.9h1.5V211c0-0.5-0.2-1-0.5-1.3s-0.8-0.5-1.4-0.5c-0.5,0-1,0.1-1.3,0.4s-0.5,0.6-0.5,1h-2.4c0-0.6,0.2-1.1,0.6-1.6  s0.9-0.9,1.6-1.2s1.4-0.4,2.2-0.4c1.2,0,2.2,0.3,3,0.9s1.1,1.5,1.1,2.6v4.8c0,1,0.1,1.7,0.4,2.3v0.2H130.5z M127.9,216.4  c0.5,0,0.9-0.1,1.3-0.3s0.7-0.5,0.9-0.9v-2h-1.3c-0.9,0-1.5,0.2-2,0.5s-0.7,0.7-0.7,1.3c0,0.5,0.2,0.8,0.5,1.1  S127.4,216.4,127.9,216.4z"/>
    <path d="M138,205v2.6h1.9v1.8H138v5.9c0,0.4,0.1,0.7,0.2,0.9s0.4,0.3,0.9,0.3c0.3,0,0.6,0,0.8-0.1v1.8c-0.5,0.1-1.1,0.2-1.6,0.2  c-1.8,0-2.7-1-2.7-3v-6h-1.7v-1.8h1.7V205H138z"/>
    <path d="M144,208.7c0.8-0.9,1.8-1.3,2.9-1.3c2.3,0,3.4,1.3,3.4,3.9v6.9H148v-6.8c0-0.7-0.2-1.2-0.5-1.5s-0.8-0.5-1.4-0.5  c-1,0-1.7,0.4-2.1,1.3v7.5h-2.4v-15h2.4V208.7z"/>
    <path d="M157.4,218.3c-1.5,0-2.7-0.5-3.7-1.4s-1.4-2.2-1.4-3.8v-0.3c0-1.1,0.2-2,0.6-2.8s1-1.5,1.7-1.9s1.6-0.7,2.5-0.7  c1.4,0,2.6,0.5,3.3,1.4s1.2,2.2,1.2,3.9v1h-6.9c0.1,0.9,0.4,1.6,0.9,2.1s1.2,0.8,1.9,0.8c1.1,0,2-0.4,2.7-1.3l1.3,1.2  c-0.4,0.6-1,1.1-1.7,1.5S158.3,218.3,157.4,218.3z M157.1,209.3c-0.7,0-1.2,0.2-1.6,0.7s-0.7,1.1-0.8,1.9h4.5v-0.2  c-0.1-0.8-0.3-1.4-0.6-1.8S157.8,209.3,157.1,209.3z"/>
    <path d="M169,209.7c-0.3-0.1-0.6-0.1-1-0.1c-1.1,0-1.8,0.4-2.2,1.2v7.2h-2.4v-10.6h2.3l0.1,1.2c0.6-0.9,1.4-1.4,2.4-1.4  c0.3,0,0.6,0,0.8,0.1L169,209.7z"/>
    <path d="M170.5,204.8c0-0.4,0.1-0.7,0.3-0.9s0.6-0.4,1-0.4s0.8,0.1,1,0.4s0.4,0.5,0.4,0.9c0,0.4-0.1,0.7-0.4,0.9s-0.6,0.4-1,0.4  s-0.8-0.1-1-0.4S170.5,205.2,170.5,204.8z M173,218.1h-2.4v-10.6h2.4V218.1z"/>
    <path d="M177.8,207.6l0.1,1.2c0.8-0.9,1.8-1.4,3.1-1.4c2.2,0,3.3,1.3,3.4,3.8v7h-2.4v-6.8c0-0.7-0.1-1.2-0.4-1.5s-0.8-0.5-1.4-0.5  c-1,0-1.7,0.4-2.1,1.3v7.5h-2.4v-10.6H177.8z"/>
    <path d="M186.3,212.8c0-1.6,0.4-3,1.2-3.9s1.8-1.5,3.1-1.5c1.2,0,2.2,0.4,2.8,1.3l0.1-1.1h2.1v10.2c0,1.4-0.4,2.5-1.3,3.3  s-2,1.2-3.5,1.2c-0.8,0-1.5-0.2-2.3-0.5s-1.3-0.7-1.7-1.3l1.1-1.4c0.7,0.9,1.6,1.3,2.7,1.3c0.8,0,1.4-0.2,1.9-0.6s0.7-1.1,0.7-1.9  v-0.7c-0.7,0.8-1.6,1.1-2.7,1.1c-1.2,0-2.2-0.5-3-1.5S186.3,214.5,186.3,212.8z M188.7,213c0,1.1,0.2,1.9,0.6,2.5s1,0.9,1.8,0.9  c1,0,1.7-0.4,2.1-1.2v-4.6c-0.4-0.8-1.2-1.2-2.1-1.2c-0.8,0-1.4,0.3-1.8,0.9S188.7,211.8,188.7,213z"/>
  </g>
  <g class="st4">
    <path d="M375.8,206.1h-9.6v-1.6l4.7-5.2c0.7-0.8,1.2-1.4,1.5-1.9s0.4-1,0.4-1.5c0-0.7-0.2-1.2-0.6-1.6s-0.9-0.6-1.5-0.6  c-0.8,0-1.4,0.2-1.8,0.7s-0.6,1.1-0.6,1.9H366c0-0.9,0.2-1.6,0.6-2.3s1-1.2,1.7-1.6s1.6-0.6,2.5-0.6c1.4,0,2.5,0.3,3.3,1  s1.2,1.7,1.2,2.9c0,0.7-0.2,1.5-0.6,2.2s-1.1,1.7-2,2.7l-3.5,3.7h6.6V206.1z"/>
    <path d="M379.3,203.6c0.4,0,0.8,0.1,1,0.4s0.4,0.6,0.4,0.9c0,0.4-0.1,0.7-0.4,0.9s-0.6,0.4-1,0.4c-0.4,0-0.8-0.1-1-0.4  s-0.4-0.5-0.4-0.9s0.1-0.7,0.4-0.9S378.8,203.6,379.3,203.6z"/>
    <path d="M393.8,200.7H391v5.5h-2.5v-14.2h5c1.6,0,2.9,0.4,3.8,1.1s1.3,1.8,1.3,3.2c0,1-0.2,1.7-0.7,2.4s-1.1,1.1-1.9,1.5l3.2,5.9  v0.1h-2.6L393.8,200.7z M391,198.7h2.5c0.8,0,1.5-0.2,2-0.6s0.7-1,0.7-1.7c0-0.8-0.2-1.4-0.6-1.8s-1.1-0.6-1.9-0.6H391V198.7z"/>
    <path d="M405.5,206.3c-1.5,0-2.7-0.5-3.7-1.4s-1.4-2.2-1.4-3.8v-0.3c0-1.1,0.2-2,0.6-2.8s1-1.5,1.7-1.9s1.6-0.7,2.5-0.7  c1.4,0,2.6,0.5,3.3,1.4s1.2,2.2,1.2,3.9v1h-6.9c0.1,0.9,0.4,1.6,0.9,2.1s1.2,0.8,1.9,0.8c1.1,0,2-0.4,2.7-1.3l1.3,1.2  c-0.4,0.6-1,1.1-1.7,1.5S406.4,206.3,405.5,206.3z M405.2,197.3c-0.7,0-1.2,0.2-1.6,0.7s-0.7,1.1-0.8,1.9h4.5v-0.2  c-0.1-0.8-0.3-1.4-0.6-1.8S405.9,197.3,405.2,197.3z"/>
    <path d="M415.9,204.4c0.6,0,1.1-0.2,1.5-0.5s0.6-0.8,0.6-1.3h2.2c0,0.7-0.2,1.3-0.6,1.8s-0.9,1-1.6,1.4s-1.4,0.5-2.1,0.5  c-1.5,0-2.6-0.5-3.5-1.4s-1.3-2.3-1.3-4v-0.2c0-1.6,0.4-2.9,1.3-3.9s2-1.5,3.5-1.5c1.3,0,2.3,0.4,3.1,1.1s1.2,1.7,1.2,2.9H418  c0-0.6-0.2-1.1-0.6-1.5s-0.9-0.6-1.5-0.6c-0.8,0-1.4,0.3-1.8,0.8s-0.6,1.4-0.6,2.5v0.4c0,1.1,0.2,2,0.6,2.6  S415.1,204.4,415.9,204.4z"/>
    <path d="M421.6,200.8c0-1,0.2-2,0.6-2.8s1-1.5,1.7-1.9s1.6-0.7,2.6-0.7c1.4,0,2.6,0.5,3.5,1.4s1.4,2.1,1.4,3.7l0,0.6  c0,1-0.2,2-0.6,2.8s-1,1.5-1.7,1.9s-1.6,0.7-2.6,0.7c-1.5,0-2.7-0.5-3.6-1.5s-1.3-2.3-1.3-4V200.8z M424,201c0,1.1,0.2,1.9,0.7,2.6  s1.1,0.9,1.9,0.9s1.4-0.3,1.9-0.9s0.7-1.5,0.7-2.7c0-1.1-0.2-1.9-0.7-2.5s-1.1-0.9-1.9-0.9c-0.8,0-1.4,0.3-1.8,0.9  S424,199.7,424,201z"/>
    <path d="M435.6,195.6l0.1,1.2c0.8-0.9,1.8-1.4,3.1-1.4c2.2,0,3.3,1.3,3.4,3.8v7h-2.4v-6.8c0-0.7-0.1-1.2-0.4-1.5s-0.8-0.5-1.4-0.5  c-1,0-1.7,0.4-2.1,1.3v7.5h-2.4v-10.6H435.6z"/>
    <path d="M446.7,195.6l0.1,1.2c0.8-0.9,1.8-1.4,3.1-1.4c2.2,0,3.3,1.3,3.4,3.8v7h-2.4v-6.8c0-0.7-0.1-1.2-0.4-1.5s-0.8-0.5-1.4-0.5  c-1,0-1.7,0.4-2.1,1.3v7.5h-2.4v-10.6H446.7z"/>
    <path d="M462,206.1c-0.1-0.2-0.2-0.5-0.3-1c-0.8,0.8-1.7,1.2-2.8,1.2c-1.1,0-1.9-0.3-2.6-0.9c-0.7-0.6-1-1.4-1-2.2  c0-1.1,0.4-2,1.3-2.6c0.8-0.6,2-0.9,3.6-0.9h1.5V199c0-0.5-0.2-1-0.5-1.3c-0.3-0.3-0.8-0.5-1.4-0.5c-0.5,0-1,0.1-1.3,0.4  c-0.3,0.3-0.5,0.6-0.5,1h-2.4c0-0.6,0.2-1.1,0.6-1.6c0.4-0.5,0.9-0.9,1.6-1.2c0.7-0.3,1.4-0.4,2.2-0.4c1.2,0,2.2,0.3,3,0.9  c0.7,0.6,1.1,1.5,1.1,2.6v4.8c0,1,0.1,1.7,0.4,2.3v0.2H462z M459.4,204.4c0.5,0,0.9-0.1,1.3-0.3c0.4-0.2,0.7-0.5,0.9-0.9v-2h-1.3  c-0.9,0-1.5,0.2-2,0.5c-0.4,0.3-0.7,0.7-0.7,1.3c0,0.5,0.2,0.8,0.5,1.1S458.9,204.4,459.4,204.4z"/>
    <path d="M466.5,192.8c0-0.4,0.1-0.7,0.3-0.9c0.2-0.2,0.6-0.4,1-0.4s0.8,0.1,1,0.4s0.4,0.5,0.4,0.9c0,0.4-0.1,0.7-0.4,0.9  s-0.6,0.4-1,0.4s-0.8-0.1-1-0.4C466.6,193.5,466.5,193.2,466.5,192.8z M469,206.1h-2.4v-10.6h2.4V206.1z"/>
    <path d="M477.5,203.3c0-0.4-0.2-0.7-0.5-1c-0.3-0.2-0.9-0.4-1.7-0.6c-0.8-0.2-1.5-0.4-2-0.6c-1.2-0.6-1.8-1.4-1.8-2.5  c0-0.9,0.4-1.7,1.2-2.3c0.8-0.6,1.7-0.9,2.9-0.9c1.3,0,2.3,0.3,3.1,0.9c0.8,0.6,1.2,1.4,1.2,2.4h-2.4c0-0.5-0.2-0.8-0.5-1.1  c-0.3-0.3-0.8-0.5-1.3-0.5c-0.5,0-0.9,0.1-1.3,0.4c-0.3,0.2-0.5,0.6-0.5,1c0,0.4,0.2,0.6,0.5,0.8c0.3,0.2,0.9,0.4,1.9,0.6  c0.9,0.2,1.7,0.4,2.2,0.7c0.5,0.3,0.9,0.6,1.2,1c0.3,0.4,0.4,0.9,0.4,1.4c0,1-0.4,1.7-1.2,2.3c-0.8,0.6-1.8,0.9-3.1,0.9  c-0.9,0-1.6-0.2-2.3-0.5c-0.7-0.3-1.2-0.7-1.6-1.3c-0.4-0.5-0.6-1.1-0.6-1.8h2.3c0,0.6,0.2,1,0.6,1.3s0.9,0.5,1.6,0.5  c0.6,0,1.1-0.1,1.4-0.4C477.3,204,477.5,203.6,477.5,203.3z"/>
    <path d="M487.8,203.3c0-0.4-0.2-0.7-0.5-1c-0.3-0.2-0.9-0.4-1.7-0.6c-0.8-0.2-1.5-0.4-2-0.6c-1.2-0.6-1.8-1.4-1.8-2.5  c0-0.9,0.4-1.7,1.2-2.3c0.8-0.6,1.7-0.9,2.9-0.9c1.3,0,2.3,0.3,3.1,0.9c0.8,0.6,1.2,1.4,1.2,2.4h-2.4c0-0.5-0.2-0.8-0.5-1.1  c-0.3-0.3-0.8-0.5-1.3-0.5c-0.5,0-0.9,0.1-1.3,0.4c-0.3,0.2-0.5,0.6-0.5,1c0,0.4,0.2,0.6,0.5,0.8c0.3,0.2,0.9,0.4,1.9,0.6  c0.9,0.2,1.7,0.4,2.2,0.7c0.5,0.3,0.9,0.6,1.2,1c0.3,0.4,0.4,0.9,0.4,1.4c0,1-0.4,1.7-1.2,2.3c-0.8,0.6-1.8,0.9-3.1,0.9  c-0.9,0-1.6-0.2-2.3-0.5c-0.7-0.3-1.2-0.7-1.6-1.3c-0.4-0.5-0.6-1.1-0.6-1.8h2.3c0,0.6,0.2,1,0.6,1.3s0.9,0.5,1.6,0.5  c0.6,0,1.1-0.1,1.4-0.4C487.7,204,487.8,203.6,487.8,203.3z"/>
    <path d="M498.5,206.1c-0.1-0.2-0.2-0.5-0.3-1c-0.8,0.8-1.7,1.2-2.8,1.2c-1.1,0-1.9-0.3-2.6-0.9c-0.7-0.6-1-1.4-1-2.2  c0-1.1,0.4-2,1.3-2.6c0.8-0.6,2-0.9,3.6-0.9h1.5V199c0-0.5-0.2-1-0.5-1.3c-0.3-0.3-0.8-0.5-1.4-0.5c-0.5,0-1,0.1-1.3,0.4  c-0.3,0.3-0.5,0.6-0.5,1h-2.4c0-0.6,0.2-1.1,0.6-1.6c0.4-0.5,0.9-0.9,1.6-1.2c0.7-0.3,1.4-0.4,2.2-0.4c1.2,0,2.2,0.3,3,0.9  c0.7,0.6,1.1,1.5,1.1,2.6v4.8c0,1,0.1,1.7,0.4,2.3v0.2H498.5z M495.9,204.4c0.5,0,0.9-0.1,1.3-0.3c0.4-0.2,0.7-0.5,0.9-0.9v-2h-1.3  c-0.9,0-1.5,0.2-2,0.5c-0.4,0.3-0.7,0.7-0.7,1.3c0,0.5,0.2,0.8,0.5,1.1S495.4,204.4,495.9,204.4z"/>
    <path d="M505.3,195.6l0.1,1.2c0.8-0.9,1.8-1.4,3.1-1.4c2.2,0,3.3,1.3,3.4,3.8v7h-2.4v-6.8c0-0.7-0.1-1.2-0.4-1.5  c-0.3-0.3-0.8-0.5-1.4-0.5c-1,0-1.7,0.4-2.1,1.3v7.5H503v-10.6H505.3z"/>
    <path d="M518.5,204.4c0.6,0,1.1-0.2,1.5-0.5s0.6-0.8,0.6-1.3h2.2c0,0.7-0.2,1.3-0.6,1.8s-0.9,1-1.6,1.4s-1.4,0.5-2.1,0.5  c-1.5,0-2.7-0.5-3.5-1.4c-0.9-1-1.3-2.3-1.3-4v-0.2c0-1.6,0.4-2.9,1.3-3.9s2-1.5,3.5-1.5c1.3,0,2.3,0.4,3.1,1.1s1.2,1.7,1.2,2.9  h-2.2c0-0.6-0.2-1.1-0.6-1.5s-0.9-0.6-1.5-0.6c-0.8,0-1.4,0.3-1.8,0.8s-0.6,1.4-0.6,2.5v0.4c0,1.1,0.2,2,0.6,2.6  S517.7,204.4,518.5,204.4z"/>
    <path d="M529.3,206.3c-1.5,0-2.7-0.5-3.7-1.4s-1.4-2.2-1.4-3.8v-0.3c0-1.1,0.2-2,0.6-2.8s1-1.5,1.7-1.9s1.6-0.7,2.5-0.7  c1.4,0,2.6,0.5,3.3,1.4s1.2,2.2,1.2,3.9v1h-6.9c0.1,0.9,0.4,1.6,0.9,2.1s1.2,0.8,1.9,0.8c1.1,0,2-0.4,2.7-1.3l1.3,1.2  c-0.4,0.6-1,1.1-1.7,1.5S530.2,206.3,529.3,206.3z M529,197.3c-0.7,0-1.2,0.2-1.6,0.7s-0.7,1.1-0.8,1.9h4.5v-0.2  c-0.1-0.8-0.3-1.4-0.6-1.8S529.7,197.3,529,197.3z"/>
  </g>
  <g class="st4">
    <path d="M695.4,185.9h1.4c0.7,0,1.3-0.2,1.7-0.6c0.4-0.4,0.6-0.9,0.6-1.6c0-0.7-0.2-1.2-0.5-1.6c-0.4-0.4-0.9-0.6-1.6-0.6  c-0.6,0-1.2,0.2-1.6,0.6s-0.6,0.8-0.6,1.4h-2.4c0-0.7,0.2-1.4,0.6-2c0.4-0.6,0.9-1.1,1.6-1.4s1.5-0.5,2.3-0.5  c1.4,0,2.5,0.4,3.3,1.1s1.2,1.7,1.2,3c0,0.6-0.2,1.2-0.6,1.8c-0.4,0.6-0.9,1-1.6,1.3c0.8,0.3,1.4,0.7,1.8,1.3  c0.4,0.6,0.6,1.3,0.6,2.1c0,1.3-0.4,2.3-1.3,3c-0.9,0.8-2,1.1-3.5,1.1c-1.4,0-2.5-0.4-3.4-1.1c-0.9-0.7-1.3-1.7-1.3-2.9h2.4  c0,0.6,0.2,1.1,0.6,1.5s1,0.6,1.7,0.6c0.7,0,1.3-0.2,1.7-0.6c0.4-0.4,0.6-1,0.6-1.7c0-0.7-0.2-1.3-0.7-1.7c-0.4-0.4-1.1-0.6-2-0.6  h-1.4V185.9z"/>
    <path d="M705.6,191.6c0.4,0,0.8,0.1,1,0.4c0.2,0.3,0.4,0.6,0.4,0.9c0,0.4-0.1,0.7-0.4,0.9c-0.2,0.2-0.6,0.4-1,0.4  c-0.4,0-0.8-0.1-1-0.4c-0.2-0.2-0.4-0.5-0.4-0.9s0.1-0.7,0.4-0.9C704.8,191.8,705.2,191.6,705.6,191.6z"/>
    <path d="M714.9,194.1v-14.2h4.2c1.3,0,2.4,0.3,3.3,0.8c1,0.6,1.7,1.4,2.3,2.4c0.5,1,0.8,2.2,0.8,3.5v0.7c0,1.3-0.3,2.5-0.8,3.6  s-1.3,1.8-2.3,2.4c-1,0.6-2.1,0.8-3.4,0.8H714.9z M717.4,181.9v10.3h1.6c1.3,0,2.3-0.4,3-1.2s1-2,1.1-3.5v-0.8c0-1.5-0.3-2.7-1-3.5  c-0.7-0.8-1.6-1.2-2.9-1.2H717.4z"/>
    <path d="M727.8,180.8c0-0.4,0.1-0.7,0.3-0.9c0.2-0.2,0.6-0.4,1-0.4s0.8,0.1,1,0.4s0.4,0.5,0.4,0.9c0,0.4-0.1,0.7-0.4,0.9  s-0.6,0.4-1,0.4s-0.8-0.1-1-0.4C727.9,181.5,727.8,181.2,727.8,180.8z M730.3,194.1h-2.4v-10.6h2.4V194.1z"/>
    <path d="M738.8,191.3c0-0.4-0.2-0.7-0.5-1c-0.3-0.2-0.9-0.4-1.7-0.6c-0.8-0.2-1.5-0.4-2-0.6c-1.2-0.6-1.8-1.4-1.8-2.5  c0-0.9,0.4-1.7,1.2-2.3c0.8-0.6,1.7-0.9,2.9-0.9c1.3,0,2.3,0.3,3.1,0.9c0.8,0.6,1.2,1.4,1.2,2.4h-2.4c0-0.5-0.2-0.8-0.5-1.1  c-0.3-0.3-0.8-0.5-1.3-0.5c-0.5,0-0.9,0.1-1.3,0.4c-0.3,0.2-0.5,0.6-0.5,1c0,0.4,0.2,0.6,0.5,0.8c0.3,0.2,0.9,0.4,1.9,0.6  c0.9,0.2,1.7,0.4,2.2,0.7c0.5,0.3,0.9,0.6,1.2,1c0.3,0.4,0.4,0.9,0.4,1.4c0,1-0.4,1.7-1.2,2.3c-0.8,0.6-1.8,0.9-3.1,0.9  c-0.9,0-1.6-0.2-2.3-0.5c-0.7-0.3-1.2-0.7-1.6-1.3c-0.4-0.5-0.6-1.1-0.6-1.8h2.3c0,0.6,0.2,1,0.6,1.3s0.9,0.5,1.6,0.5  c0.6,0,1.1-0.1,1.4-0.4C738.6,192,738.8,191.6,738.8,191.3z"/>
    <path d="M747.5,192.4c0.6,0,1.1-0.2,1.5-0.5s0.6-0.8,0.6-1.3h2.2c0,0.7-0.2,1.3-0.6,1.8c-0.4,0.6-0.9,1-1.6,1.4  c-0.7,0.3-1.4,0.5-2.1,0.5c-1.5,0-2.6-0.5-3.5-1.4c-0.9-1-1.3-2.3-1.3-4v-0.2c0-1.6,0.4-2.9,1.3-3.9s2-1.5,3.5-1.5  c1.3,0,2.3,0.4,3.1,1.1s1.2,1.7,1.2,2.9h-2.2c0-0.6-0.2-1.1-0.6-1.5c-0.4-0.4-0.9-0.6-1.5-0.6c-0.8,0-1.4,0.3-1.8,0.8  c-0.4,0.6-0.6,1.4-0.6,2.5v0.4c0,1.1,0.2,2,0.6,2.6C746.2,192.2,746.8,192.4,747.5,192.4z"/>
    <path d="M753.2,188.8c0-1,0.2-2,0.6-2.8s1-1.5,1.7-1.9s1.6-0.7,2.6-0.7c1.4,0,2.6,0.5,3.5,1.4s1.4,2.1,1.4,3.7l0,0.6  c0,1-0.2,2-0.6,2.8s-1,1.5-1.7,1.9c-0.7,0.4-1.6,0.7-2.6,0.7c-1.5,0-2.7-0.5-3.6-1.5c-0.9-1-1.3-2.3-1.3-4V188.8z M755.6,189  c0,1.1,0.2,1.9,0.7,2.6s1.1,0.9,1.9,0.9s1.4-0.3,1.9-0.9c0.4-0.6,0.7-1.5,0.7-2.7c0-1.1-0.2-1.9-0.7-2.5s-1.1-0.9-1.9-0.9  c-0.8,0-1.4,0.3-1.8,0.9C755.8,186.8,755.6,187.7,755.6,189z"/>
    <path d="M768.6,191.1l2.2-7.6h2.5l-3.7,10.6h-2.1l-3.7-10.6h2.5L768.6,191.1z"/>
    <path d="M779.3,194.3c-1.5,0-2.7-0.5-3.7-1.4c-0.9-0.9-1.4-2.2-1.4-3.8v-0.3c0-1.1,0.2-2,0.6-2.8c0.4-0.8,1-1.5,1.7-1.9  c0.7-0.5,1.6-0.7,2.5-0.7c1.4,0,2.6,0.5,3.3,1.4c0.8,0.9,1.2,2.2,1.2,3.9v1h-6.9c0.1,0.9,0.4,1.6,0.9,2.1c0.5,0.5,1.2,0.8,1.9,0.8  c1.1,0,2-0.4,2.7-1.3l1.3,1.2c-0.4,0.6-1,1.1-1.7,1.5C781,194.2,780.2,194.3,779.3,194.3z M779,185.3c-0.7,0-1.2,0.2-1.6,0.7  s-0.7,1.1-0.8,1.9h4.5v-0.2c-0.1-0.8-0.3-1.4-0.6-1.8S779.7,185.3,779,185.3z"/>
    <path d="M790.9,185.7c-0.3-0.1-0.6-0.1-1-0.1c-1.1,0-1.8,0.4-2.2,1.2v7.2h-2.4v-10.6h2.3l0.1,1.2c0.6-0.9,1.4-1.4,2.4-1.4  c0.3,0,0.6,0,0.8,0.1L790.9,185.7z"/>
    <path d="M796.3,190.7l2.1-7.2h2.5l-4.2,12.2c-0.6,1.8-1.7,2.7-3.3,2.7c-0.3,0-0.7-0.1-1.1-0.2v-1.8l0.4,0c0.6,0,1-0.1,1.4-0.3  s0.5-0.6,0.7-1.1l0.3-0.9l-3.7-10.5h2.6L796.3,190.7z"/>
  </g>
  <g class="st4">
    <path d="M696.8,214.3c0-0.7,0.2-1.3,0.5-1.8c0.4-0.5,1.1-1.2,2.1-2c-0.6-0.7-0.9-1.3-1.2-1.8c-0.2-0.5-0.3-1-0.3-1.4  c0-1.1,0.3-2,1-2.6c0.7-0.6,1.6-1,2.7-1c1,0,1.9,0.3,2.5,0.9c0.7,0.6,1,1.4,1,2.3c0,0.6-0.2,1.1-0.4,1.6c-0.3,0.5-0.8,1-1.5,1.5  l-1,0.7l2.7,3.2c0.4-0.8,0.6-1.7,0.6-2.6h2.1c0,1.8-0.4,3.2-1.2,4.3l2.1,2.5h-2.8l-0.8-0.9c-1,0.8-2.2,1.1-3.6,1.1  s-2.5-0.4-3.4-1.1C697.2,216.5,696.8,215.5,696.8,214.3z M701.5,216.4c0.8,0,1.5-0.3,2.2-0.8l-3.1-3.7l-0.3,0.2  c-0.8,0.6-1.2,1.3-1.2,2c0,0.7,0.2,1.2,0.6,1.6C700.2,216.2,700.8,216.4,701.5,216.4z M700.2,207.3c0,0.5,0.3,1.2,1,2.1l1.1-0.7  l0.3-0.2c0.4-0.4,0.6-0.8,0.6-1.4c0-0.4-0.1-0.7-0.4-1c-0.3-0.3-0.6-0.4-1.1-0.4c-0.5,0-0.8,0.2-1.1,0.5S700.2,206.8,700.2,207.3z"/>
    <path d="M722.6,214.5c0-0.6-0.2-1.1-0.7-1.4s-1.2-0.7-2.4-1c-1.1-0.3-2.1-0.7-2.7-1.2c-1.3-0.8-1.9-1.9-1.9-3.2  c0-1.1,0.5-2.1,1.4-2.8c0.9-0.7,2.1-1.1,3.6-1.1c1,0,1.9,0.2,2.6,0.5c0.8,0.4,1.4,0.9,1.8,1.6c0.4,0.7,0.7,1.4,0.7,2.2h-2.5  c0-0.7-0.2-1.3-0.7-1.7c-0.5-0.4-1.1-0.6-2-0.6c-0.8,0-1.4,0.2-1.9,0.5c-0.4,0.3-0.7,0.8-0.7,1.4c0,0.5,0.2,1,0.7,1.3  c0.5,0.3,1.3,0.7,2.4,1c1.1,0.3,2,0.7,2.7,1.1c0.7,0.4,1.2,0.9,1.5,1.4s0.5,1.2,0.5,1.9c0,1.2-0.5,2.1-1.4,2.8s-2.1,1-3.7,1  c-1,0-2-0.2-2.8-0.6c-0.9-0.4-1.5-0.9-2-1.6s-0.7-1.5-0.7-2.3h2.5c0,0.8,0.3,1.4,0.8,1.9c0.5,0.4,1.3,0.7,2.3,0.7  c0.9,0,1.5-0.2,1.9-0.5C722.4,215.5,722.6,215,722.6,214.5z"/>
    <path d="M731.3,216.4c0.6,0,1.1-0.2,1.5-0.5s0.6-0.8,0.6-1.3h2.2c0,0.7-0.2,1.3-0.6,1.8c-0.4,0.6-0.9,1-1.6,1.4  c-0.7,0.3-1.4,0.5-2.1,0.5c-1.5,0-2.7-0.5-3.5-1.4c-0.9-1-1.3-2.3-1.3-4v-0.2c0-1.6,0.4-2.9,1.3-3.9s2-1.5,3.5-1.5  c1.3,0,2.3,0.4,3.1,1.1s1.2,1.7,1.2,2.9h-2.2c0-0.6-0.2-1.1-0.6-1.5c-0.4-0.4-0.9-0.6-1.5-0.6c-0.8,0-1.4,0.3-1.8,0.8  c-0.4,0.6-0.6,1.4-0.6,2.5v0.4c0,1.1,0.2,2,0.6,2.6C730,216.2,730.6,216.4,731.3,216.4z"/>
    <path d="M743.8,218.1c-0.1-0.2-0.2-0.5-0.3-1c-0.8,0.8-1.7,1.2-2.8,1.2c-1.1,0-1.9-0.3-2.6-0.9c-0.7-0.6-1-1.4-1-2.2  c0-1.1,0.4-2,1.3-2.6c0.8-0.6,2-0.9,3.6-0.9h1.5V211c0-0.5-0.2-1-0.5-1.3c-0.3-0.3-0.8-0.5-1.4-0.5c-0.5,0-1,0.1-1.3,0.4  c-0.3,0.3-0.5,0.6-0.5,1h-2.4c0-0.6,0.2-1.1,0.6-1.6c0.4-0.5,0.9-0.9,1.6-1.2c0.7-0.3,1.4-0.4,2.2-0.4c1.2,0,2.2,0.3,3,0.9  c0.7,0.6,1.1,1.5,1.1,2.6v4.8c0,1,0.1,1.7,0.4,2.3v0.2H743.8z M741.2,216.4c0.5,0,0.9-0.1,1.3-0.3c0.4-0.2,0.7-0.5,0.9-0.9v-2h-1.3  c-0.9,0-1.5,0.2-2,0.5c-0.4,0.3-0.7,0.7-0.7,1.3c0,0.5,0.2,0.8,0.5,1.1S740.7,216.4,741.2,216.4z"/>
    <path d="M750.5,207.6l0.1,1.2c0.8-0.9,1.8-1.4,3.1-1.4c2.2,0,3.3,1.3,3.4,3.8v7h-2.4v-6.8c0-0.7-0.1-1.2-0.4-1.5  c-0.3-0.3-0.8-0.5-1.4-0.5c-1,0-1.7,0.4-2.1,1.3v7.5h-2.4v-10.6H750.5z"/>
    <path d="M761.6,207.6l0.1,1.2c0.8-0.9,1.8-1.4,3.1-1.4c2.2,0,3.3,1.3,3.4,3.8v7h-2.4v-6.8c0-0.7-0.1-1.2-0.4-1.5  c-0.3-0.3-0.8-0.5-1.4-0.5c-1,0-1.7,0.4-2.1,1.3v7.5h-2.4v-10.6H761.6z"/>
    <path d="M770.5,204.8c0-0.4,0.1-0.7,0.3-0.9c0.2-0.2,0.6-0.4,1-0.4s0.8,0.1,1,0.4s0.4,0.5,0.4,0.9c0,0.4-0.1,0.7-0.4,0.9  s-0.6,0.4-1,0.4s-0.8-0.1-1-0.4C770.7,205.5,770.5,205.2,770.5,204.8z M773.1,218.1h-2.4v-10.6h2.4V218.1z"/>
    <path d="M777.8,207.6l0.1,1.2c0.8-0.9,1.8-1.4,3.1-1.4c2.2,0,3.3,1.3,3.4,3.8v7H782v-6.8c0-0.7-0.1-1.2-0.4-1.5  c-0.3-0.3-0.8-0.5-1.4-0.5c-1,0-1.7,0.4-2.1,1.3v7.5h-2.4v-10.6H777.8z"/>
    <path d="M786.4,212.8c0-1.6,0.4-3,1.2-3.9s1.8-1.5,3.1-1.5c1.2,0,2.2,0.4,2.8,1.3l0.1-1.1h2.1v10.2c0,1.4-0.4,2.5-1.3,3.3  c-0.9,0.8-2,1.2-3.5,1.2c-0.8,0-1.5-0.2-2.3-0.5c-0.7-0.3-1.3-0.7-1.7-1.3l1.1-1.4c0.7,0.9,1.6,1.3,2.7,1.3c0.8,0,1.4-0.2,1.9-0.6  c0.5-0.4,0.7-1.1,0.7-1.9v-0.7c-0.7,0.8-1.6,1.1-2.7,1.1c-1.2,0-2.2-0.5-3-1.5C786.7,215.9,786.4,214.5,786.4,212.8z M788.7,213  c0,1.1,0.2,1.9,0.6,2.5c0.4,0.6,1,0.9,1.8,0.9c1,0,1.7-0.4,2.1-1.2v-4.6c-0.4-0.8-1.2-1.2-2.1-1.2c-0.8,0-1.4,0.3-1.8,0.9  C788.9,210.9,788.7,211.8,788.7,213z"/>
  </g>
  <g class="st4">
    <path d="M95.3,594.5h1.8v1.9h-1.8v3.2h-2.4v-3.2h-6.1l-0.1-1.4l6.1-9.6h2.5V594.5z M89.2,594.5h3.7v-5.9l-0.2,0.3L89.2,594.5z"/>
    <path d="M100.3,597.1c0.4,0,0.8,0.1,1,0.4s0.4,0.6,0.4,0.9c0,0.4-0.1,0.7-0.4,0.9s-0.6,0.4-1,0.4c-0.4,0-0.8-0.1-1-0.4  s-0.4-0.5-0.4-0.9s0.1-0.7,0.4-0.9S99.8,597.1,100.3,597.1z"/>
    <path d="M114.6,596.5l3.6-11.1h2.7l-5.1,14.2h-2.4l-5.1-14.2h2.7L114.6,596.5z"/>
    <path d="M128.4,598.6c-0.7,0.8-1.7,1.2-3,1.2c-1.1,0-2-0.3-2.6-1s-0.9-1.6-0.9-2.9V589h2.4v6.8c0,1.3,0.6,2,1.7,2  c1.2,0,1.9-0.4,2.3-1.2V589h2.4v10.6h-2.2L128.4,598.6z"/>
    <path d="M135.7,599.6h-2.4v-15h2.4V599.6z"/>
    <path d="M140.4,589l0.1,1.2c0.8-0.9,1.8-1.4,3.1-1.4c2.2,0,3.3,1.3,3.4,3.8v7h-2.4v-6.8c0-0.7-0.1-1.2-0.4-1.5s-0.8-0.5-1.4-0.5  c-1,0-1.7,0.4-2.1,1.3v7.5h-2.4V589H140.4z"/>
    <path d="M154,599.8c-1.5,0-2.7-0.5-3.7-1.4s-1.4-2.2-1.4-3.8v-0.3c0-1.1,0.2-2,0.6-2.8s1-1.5,1.7-1.9s1.6-0.7,2.5-0.7  c1.4,0,2.6,0.5,3.3,1.4s1.2,2.2,1.2,3.9v1h-6.9c0.1,0.9,0.4,1.6,0.9,2.1s1.2,0.8,1.9,0.8c1.1,0,2-0.4,2.7-1.3l1.3,1.2  c-0.4,0.6-1,1.1-1.7,1.5S154.9,599.8,154,599.8z M153.7,590.7c-0.7,0-1.2,0.2-1.6,0.7s-0.7,1.1-0.8,1.9h4.5v-0.2  c-0.1-0.8-0.3-1.4-0.6-1.8S154.4,590.7,153.7,590.7z"/>
    <path d="M165.6,591.2c-0.3-0.1-0.6-0.1-1-0.1c-1.1,0-1.8,0.4-2.2,1.2v7.2h-2.4V589h2.3l0.1,1.2c0.6-0.9,1.4-1.4,2.4-1.4  c0.3,0,0.6,0,0.8,0.1L165.6,591.2z"/>
    <path d="M173.1,599.6c-0.1-0.2-0.2-0.5-0.3-1c-0.8,0.8-1.7,1.2-2.8,1.2c-1.1,0-1.9-0.3-2.6-0.9s-1-1.4-1-2.2c0-1.1,0.4-2,1.3-2.6  s2-0.9,3.6-0.9h1.5v-0.7c0-0.5-0.2-1-0.5-1.3s-0.8-0.5-1.4-0.5c-0.5,0-1,0.1-1.3,0.4s-0.5,0.6-0.5,1h-2.4c0-0.6,0.2-1.1,0.6-1.6  s0.9-0.9,1.6-1.2s1.4-0.4,2.2-0.4c1.2,0,2.2,0.3,3,0.9s1.1,1.5,1.1,2.6v4.8c0,1,0.1,1.7,0.4,2.3v0.2H173.1z M170.5,597.9  c0.5,0,0.9-0.1,1.3-0.3s0.7-0.5,0.9-0.9v-2h-1.3c-0.9,0-1.5,0.2-2,0.5s-0.7,0.7-0.7,1.3c0,0.5,0.2,0.8,0.5,1.1  S170,597.9,170.5,597.9z"/>
    <path d="M186.9,594.4c0,1.6-0.4,2.9-1.1,3.9s-1.7,1.5-3,1.5c-1.2,0-2.2-0.4-2.9-1.3l-0.1,1.1h-2.1v-15h2.4v5.4  c0.7-0.8,1.6-1.2,2.8-1.2c1.3,0,2.3,0.5,3,1.4s1.1,2.3,1.1,4V594.4z M184.6,594.2c0-1.1-0.2-2-0.6-2.6s-1-0.9-1.8-0.9  c-1,0-1.8,0.4-2.2,1.3v4.4c0.4,0.9,1.2,1.4,2.2,1.4c0.7,0,1.3-0.3,1.7-0.8s0.6-1.4,0.6-2.5V594.2z"/>
    <path d="M188.9,586.3c0-0.4,0.1-0.7,0.3-0.9s0.6-0.4,1-0.4s0.8,0.1,1,0.4s0.4,0.5,0.4,0.9c0,0.4-0.1,0.7-0.4,0.9s-0.6,0.4-1,0.4  s-0.8-0.1-1-0.4S188.9,586.6,188.9,586.3z M191.4,599.6h-2.4V589h2.4V599.6z"/>
    <path d="M196.5,599.6h-2.4v-15h2.4V599.6z"/>
    <path d="M199.1,586.3c0-0.4,0.1-0.7,0.3-0.9s0.6-0.4,1-0.4s0.8,0.1,1,0.4s0.4,0.5,0.4,0.9c0,0.4-0.1,0.7-0.4,0.9s-0.6,0.4-1,0.4  s-0.8-0.1-1-0.4S199.1,586.6,199.1,586.3z M201.6,599.6h-2.4V589h2.4V599.6z"/>
    <path d="M207.2,586.5v2.6h1.9v1.8h-1.9v5.9c0,0.4,0.1,0.7,0.2,0.9s0.4,0.3,0.9,0.3c0.3,0,0.6,0,0.8-0.1v1.8  c-0.5,0.1-1.1,0.2-1.6,0.2c-1.8,0-2.7-1-2.7-3v-6h-1.7V589h1.7v-2.6H207.2z"/>
    <path d="M214.6,596.2l2.1-7.2h2.5l-4.2,12.2c-0.6,1.8-1.7,2.7-3.3,2.7c-0.3,0-0.7-0.1-1.1-0.2v-1.8l0.4,0c0.6,0,1-0.1,1.4-0.3  s0.5-0.6,0.7-1.1l0.3-0.9l-3.7-10.5h2.6L214.6,596.2z"/>
  </g>
  <g class="st4">
    <path d="M106.9,620.3h-5.5l-1.2,3.3h-2.6l5.4-14.2h2.2l5.4,14.2h-2.6L106.9,620.3z M102.1,618.3h4.1l-2.1-5.9L102.1,618.3z"/>
    <path d="M117.9,620.7c0-0.4-0.2-0.7-0.5-1s-0.9-0.4-1.7-0.6s-1.5-0.4-2-0.6c-1.2-0.6-1.8-1.4-1.8-2.5c0-0.9,0.4-1.7,1.2-2.3  s1.7-0.9,2.9-0.9c1.3,0,2.3,0.3,3.1,0.9s1.2,1.4,1.2,2.4h-2.4c0-0.5-0.2-0.8-0.5-1.1s-0.8-0.5-1.3-0.5c-0.5,0-0.9,0.1-1.3,0.4  s-0.5,0.6-0.5,1c0,0.4,0.2,0.6,0.5,0.8s0.9,0.4,1.9,0.6s1.7,0.4,2.2,0.7s0.9,0.6,1.2,1s0.4,0.9,0.4,1.4c0,1-0.4,1.7-1.2,2.3  s-1.8,0.9-3.1,0.9c-0.9,0-1.6-0.2-2.3-0.5s-1.2-0.7-1.6-1.3s-0.6-1.1-0.6-1.8h2.3c0,0.6,0.2,1,0.6,1.3s0.9,0.5,1.6,0.5  c0.6,0,1.1-0.1,1.4-0.4S117.9,621.1,117.9,620.7z"/>
    <path d="M128.3,620.7c0-0.4-0.2-0.7-0.5-1s-0.9-0.4-1.7-0.6s-1.5-0.4-2-0.6c-1.2-0.6-1.8-1.4-1.8-2.5c0-0.9,0.4-1.7,1.2-2.3  s1.7-0.9,2.9-0.9c1.3,0,2.3,0.3,3.1,0.9s1.2,1.4,1.2,2.4h-2.4c0-0.5-0.2-0.8-0.5-1.1s-0.8-0.5-1.3-0.5c-0.5,0-0.9,0.1-1.3,0.4  s-0.5,0.6-0.5,1c0,0.4,0.2,0.6,0.5,0.8s0.9,0.4,1.9,0.6s1.7,0.4,2.2,0.7s0.9,0.6,1.2,1s0.4,0.9,0.4,1.4c0,1-0.4,1.7-1.2,2.3  s-1.8,0.9-3.1,0.9c-0.9,0-1.6-0.2-2.3-0.5s-1.2-0.7-1.6-1.3s-0.6-1.1-0.6-1.8h2.3c0,0.6,0.2,1,0.6,1.3s0.9,0.5,1.6,0.5  c0.6,0,1.1-0.1,1.4-0.4S128.3,621.1,128.3,620.7z"/>
    <path d="M137.3,623.8c-1.5,0-2.7-0.5-3.7-1.4s-1.4-2.2-1.4-3.8v-0.3c0-1.1,0.2-2,0.6-2.8s1-1.5,1.7-1.9s1.6-0.7,2.5-0.7  c1.4,0,2.6,0.5,3.3,1.4s1.2,2.2,1.2,3.9v1h-6.9c0.1,0.9,0.4,1.6,0.9,2.1s1.2,0.8,1.9,0.8c1.1,0,2-0.4,2.7-1.3l1.3,1.2  c-0.4,0.6-1,1.1-1.7,1.5S138.2,623.8,137.3,623.8z M137,614.7c-0.7,0-1.2,0.2-1.6,0.7s-0.7,1.1-0.8,1.9h4.5v-0.2  c-0.1-0.8-0.3-1.4-0.6-1.8S137.7,614.7,137,614.7z"/>
    <path d="M149.3,620.7c0-0.4-0.2-0.7-0.5-1s-0.9-0.4-1.7-0.6s-1.5-0.4-2-0.6c-1.2-0.6-1.8-1.4-1.8-2.5c0-0.9,0.4-1.7,1.2-2.3  s1.7-0.9,2.9-0.9c1.3,0,2.3,0.3,3.1,0.9s1.2,1.4,1.2,2.4h-2.4c0-0.5-0.2-0.8-0.5-1.1s-0.8-0.5-1.3-0.5c-0.5,0-0.9,0.1-1.3,0.4  s-0.5,0.6-0.5,1c0,0.4,0.2,0.6,0.5,0.8s0.9,0.4,1.9,0.6s1.7,0.4,2.2,0.7s0.9,0.6,1.2,1s0.4,0.9,0.4,1.4c0,1-0.4,1.7-1.2,2.3  s-1.8,0.9-3.1,0.9c-0.9,0-1.6-0.2-2.3-0.5s-1.2-0.7-1.6-1.3s-0.6-1.1-0.6-1.8h2.3c0,0.6,0.2,1,0.6,1.3s0.9,0.5,1.6,0.5  c0.6,0,1.1-0.1,1.4-0.4S149.3,621.1,149.3,620.7z"/>
    <path d="M159.6,620.7c0-0.4-0.2-0.7-0.5-1s-0.9-0.4-1.7-0.6s-1.5-0.4-2-0.6c-1.2-0.6-1.8-1.4-1.8-2.5c0-0.9,0.4-1.7,1.2-2.3  s1.7-0.9,2.9-0.9c1.3,0,2.3,0.3,3.1,0.9s1.2,1.4,1.2,2.4h-2.4c0-0.5-0.2-0.8-0.5-1.1s-0.8-0.5-1.3-0.5c-0.5,0-0.9,0.1-1.3,0.4  s-0.5,0.6-0.5,1c0,0.4,0.2,0.6,0.5,0.8s0.9,0.4,1.9,0.6s1.7,0.4,2.2,0.7s0.9,0.6,1.2,1s0.4,0.9,0.4,1.4c0,1-0.4,1.7-1.2,2.3  s-1.8,0.9-3.1,0.9c-0.9,0-1.6-0.2-2.3-0.5s-1.2-0.7-1.6-1.3s-0.6-1.1-0.6-1.8h2.3c0,0.6,0.2,1,0.6,1.3s0.9,0.5,1.6,0.5  c0.6,0,1.1-0.1,1.4-0.4S159.6,621.1,159.6,620.7z"/>
    <path d="M166.3,613l0.1,1.1c0.7-0.9,1.8-1.3,3-1.3c1.4,0,2.4,0.5,2.9,1.6c0.8-1.1,1.8-1.6,3.2-1.6c1.2,0,2,0.3,2.6,1  s0.9,1.6,0.9,2.9v6.9h-2.4v-6.9c0-0.7-0.1-1.2-0.4-1.5s-0.8-0.5-1.5-0.5c-0.5,0-1,0.1-1.3,0.4s-0.6,0.7-0.7,1.1l0,7.2h-2.4v-7  c0-1.2-0.7-1.9-1.9-1.9c-1,0-1.6,0.4-2,1.2v7.7H164V613H166.3z"/>
    <path d="M186.1,623.8c-1.5,0-2.7-0.5-3.7-1.4s-1.4-2.2-1.4-3.8v-0.3c0-1.1,0.2-2,0.6-2.8s1-1.5,1.7-1.9s1.6-0.7,2.5-0.7  c1.4,0,2.6,0.5,3.3,1.4s1.2,2.2,1.2,3.9v1h-6.9c0.1,0.9,0.4,1.6,0.9,2.1s1.2,0.8,1.9,0.8c1.1,0,2-0.4,2.7-1.3l1.3,1.2  c-0.4,0.6-1,1.1-1.7,1.5S187,623.8,186.1,623.8z M185.8,614.7c-0.7,0-1.2,0.2-1.6,0.7s-0.7,1.1-0.8,1.9h4.5v-0.2  c-0.1-0.8-0.3-1.4-0.6-1.8S186.5,614.7,185.8,614.7z"/>
    <path d="M194.4,613l0.1,1.2c0.8-0.9,1.8-1.4,3.1-1.4c2.2,0,3.3,1.3,3.4,3.8v7h-2.4v-6.8c0-0.7-0.1-1.2-0.4-1.5s-0.8-0.5-1.4-0.5  c-1,0-1.7,0.4-2.1,1.3v7.5h-2.4V613H194.4z"/>
    <path d="M206.3,610.5v2.6h1.9v1.8h-1.9v5.9c0,0.4,0.1,0.7,0.2,0.9s0.4,0.3,0.9,0.3c0.3,0,0.6,0,0.8-0.1v1.8  c-0.5,0.1-1.1,0.2-1.6,0.2c-1.8,0-2.7-1-2.7-3v-6h-1.7V613h1.7v-2.6H206.3z"/>
  </g>
  <g class="st4">
    <path d="M387.4,604.5l0.8-7.2h7.6v2.1h-5.7l-0.4,3.4c0.7-0.4,1.4-0.6,2.2-0.6c1.4,0,2.4,0.4,3.2,1.3s1.1,2,1.1,3.5  c0,1.4-0.4,2.6-1.2,3.5s-2,1.3-3.4,1.3c-1.3,0-2.4-0.4-3.2-1.1s-1.3-1.7-1.4-2.9h2.3c0.1,0.7,0.3,1.2,0.7,1.6s0.9,0.6,1.6,0.6  c0.7,0,1.3-0.3,1.7-0.8s0.6-1.2,0.6-2.1c0-0.9-0.2-1.6-0.7-2.1s-1.1-0.8-1.9-0.8c-0.4,0-0.8,0.1-1.1,0.2s-0.6,0.3-1,0.7  L387.4,604.5z"/>
    <path d="M399.7,609.1c0.4,0,0.8,0.1,1,0.4s0.4,0.6,0.4,0.9c0,0.4-0.1,0.7-0.4,0.9s-0.6,0.4-1,0.4c-0.4,0-0.8-0.1-1-0.4  s-0.4-0.5-0.4-0.9s0.1-0.7,0.4-0.9S399.3,609.1,399.7,609.1z"/>
    <path d="M417.4,605.2h-5.8v4.4h6.8v2H409v-14.2h9.2v2h-6.8v3.9h5.8V605.2z"/>
    <path d="M423.9,604.5l2-3.5h2.6l-3.2,5.2l3.3,5.4h-2.6l-2.1-3.6l-2.1,3.6h-2.6l3.3-5.4l-3.2-5.2h2.6L423.9,604.5z"/>
    <path d="M439.4,606.4c0,1.6-0.4,2.9-1.1,3.9s-1.7,1.5-3,1.5c-1.2,0-2.1-0.4-2.8-1.1v5h-2.4V601h2.2l0.1,1.1  c0.7-0.8,1.6-1.3,2.8-1.3c1.3,0,2.3,0.5,3,1.4s1.1,2.3,1.1,4V606.4z M437.1,606.2c0-1.1-0.2-1.9-0.6-2.5s-1-0.9-1.8-0.9  c-1,0-1.7,0.4-2.1,1.2v4.7c0.4,0.8,1.1,1.2,2.1,1.2c0.8,0,1.3-0.3,1.8-0.9S437.1,607.4,437.1,606.2z"/>
    <path d="M444,611.6h-2.4v-15h2.4V611.6z"/>
    <path d="M446.1,606.2c0-1,0.2-2,0.6-2.8s1-1.5,1.7-1.9s1.6-0.7,2.6-0.7c1.4,0,2.6,0.5,3.5,1.4s1.4,2.1,1.4,3.7l0,0.6  c0,1-0.2,2-0.6,2.8s-1,1.5-1.7,1.9c-0.7,0.4-1.6,0.7-2.6,0.7c-1.5,0-2.7-0.5-3.6-1.5s-1.3-2.3-1.3-4V606.2z M448.5,606.4  c0,1.1,0.2,1.9,0.7,2.6s1.1,0.9,1.9,0.9s1.4-0.3,1.9-0.9c0.4-0.6,0.7-1.5,0.7-2.7c0-1.1-0.2-1.9-0.7-2.5s-1.1-0.9-1.9-0.9  c-0.8,0-1.4,0.3-1.8,0.9S448.5,605.2,448.5,606.4z"/>
    <path d="M457.9,598.3c0-0.4,0.1-0.7,0.3-0.9c0.2-0.2,0.6-0.4,1-0.4s0.8,0.1,1,0.4s0.4,0.5,0.4,0.9c0,0.4-0.1,0.7-0.4,0.9  s-0.6,0.4-1,0.4s-0.8-0.1-1-0.4C458.1,598.9,457.9,598.6,457.9,598.3z M460.5,611.6h-2.4V601h2.4V611.6z"/>
    <path d="M466,598.5v2.6h1.9v1.8H466v5.9c0,0.4,0.1,0.7,0.2,0.9c0.2,0.2,0.4,0.3,0.9,0.3c0.3,0,0.5,0,0.8-0.1v1.8  c-0.5,0.1-1.1,0.2-1.6,0.2c-1.8,0-2.7-1-2.7-3v-6h-1.7V601h1.7v-2.6H466z"/>
    <path d="M476,611.6c-0.1-0.2-0.2-0.5-0.3-1c-0.8,0.8-1.7,1.2-2.8,1.2c-1.1,0-1.9-0.3-2.6-0.9c-0.7-0.6-1-1.4-1-2.2  c0-1.1,0.4-2,1.3-2.6c0.8-0.6,2-0.9,3.6-0.9h1.5v-0.7c0-0.5-0.2-1-0.5-1.3c-0.3-0.3-0.8-0.5-1.4-0.5c-0.5,0-1,0.1-1.3,0.4  c-0.3,0.3-0.5,0.6-0.5,1h-2.4c0-0.6,0.2-1.1,0.6-1.6c0.4-0.5,0.9-0.9,1.6-1.2c0.7-0.3,1.4-0.4,2.2-0.4c1.2,0,2.2,0.3,3,0.9  c0.7,0.6,1.1,1.5,1.1,2.6v4.8c0,1,0.1,1.7,0.4,2.3v0.2H476z M473.4,609.9c0.5,0,0.9-0.1,1.3-0.3c0.4-0.2,0.7-0.5,0.9-0.9v-2h-1.3  c-0.9,0-1.5,0.2-2,0.5c-0.4,0.3-0.7,0.7-0.7,1.3c0,0.5,0.2,0.8,0.5,1.1S472.9,609.9,473.4,609.9z"/>
    <path d="M483.5,598.5v2.6h1.9v1.8h-1.9v5.9c0,0.4,0.1,0.7,0.2,0.9c0.2,0.2,0.4,0.3,0.9,0.3c0.3,0,0.5,0,0.8-0.1v1.8  c-0.5,0.1-1.1,0.2-1.6,0.2c-1.8,0-2.7-1-2.7-3v-6h-1.7V601h1.7v-2.6H483.5z"/>
    <path d="M487.2,598.3c0-0.4,0.1-0.7,0.3-0.9c0.2-0.2,0.6-0.4,1-0.4s0.8,0.1,1,0.4s0.4,0.5,0.4,0.9c0,0.4-0.1,0.7-0.4,0.9  s-0.6,0.4-1,0.4s-0.8-0.1-1-0.4C487.3,598.9,487.2,598.6,487.2,598.3z M489.7,611.6h-2.4V601h2.4V611.6z"/>
    <path d="M491.8,606.2c0-1,0.2-2,0.6-2.8s1-1.5,1.7-1.9s1.6-0.7,2.6-0.7c1.4,0,2.6,0.5,3.5,1.4s1.4,2.1,1.4,3.7l0,0.6  c0,1-0.2,2-0.6,2.8s-1,1.5-1.7,1.9c-0.7,0.4-1.6,0.7-2.6,0.7c-1.5,0-2.7-0.5-3.6-1.5c-0.9-1-1.3-2.3-1.3-4V606.2z M494.2,606.4  c0,1.1,0.2,1.9,0.7,2.6s1.1,0.9,1.9,0.9s1.4-0.3,1.9-0.9c0.4-0.6,0.7-1.5,0.7-2.7c0-1.1-0.2-1.9-0.7-2.5s-1.1-0.9-1.9-0.9  c-0.8,0-1.4,0.3-1.8,0.9C494.4,604.3,494.2,605.2,494.2,606.4z"/>
    <path d="M505.9,601l0.1,1.2c0.8-0.9,1.8-1.4,3.1-1.4c2.2,0,3.3,1.3,3.4,3.8v7H510v-6.8c0-0.7-0.1-1.2-0.4-1.5  c-0.3-0.3-0.8-0.5-1.4-0.5c-1,0-1.7,0.4-2.1,1.3v7.5h-2.4V601H505.9z"/>
  </g>
  <g class="st4">
    <path d="M697.1,585.3v2h-0.3c-1.3,0-2.4,0.4-3.2,1.1c-0.8,0.7-1.3,1.7-1.4,3c0.8-0.8,1.7-1.2,2.9-1.2c1.3,0,2.2,0.4,3,1.3  c0.7,0.9,1.1,2,1.1,3.4c0,1.4-0.4,2.6-1.3,3.5s-2,1.3-3.3,1.3c-1.4,0-2.6-0.5-3.5-1.6c-0.9-1-1.3-2.4-1.3-4.1v-0.8  c0-2.5,0.6-4.4,1.8-5.9c1.2-1.4,3-2.1,5.2-2.1H697.1z M694.5,592.1c-0.5,0-1,0.1-1.4,0.4c-0.4,0.3-0.8,0.7-1,1.2v0.7  c0,1.1,0.2,1.9,0.7,2.5c0.4,0.6,1,0.9,1.7,0.9s1.3-0.3,1.7-0.8s0.6-1.2,0.6-2.1s-0.2-1.6-0.6-2.1  C695.8,592.4,695.2,592.1,694.5,592.1z"/>
    <path d="M702.7,597.1c0.4,0,0.8,0.1,1,0.4c0.2,0.3,0.4,0.6,0.4,0.9c0,0.4-0.1,0.7-0.4,0.9c-0.2,0.2-0.6,0.4-1,0.4  c-0.4,0-0.8-0.1-1-0.4c-0.2-0.2-0.4-0.5-0.4-0.9s0.1-0.7,0.4-0.9C701.9,597.2,702.2,597.1,702.7,597.1z"/>
    <path d="M720,596.3h-5.5l-1.2,3.3h-2.6l5.4-14.2h2.2l5.4,14.2h-2.6L720,596.3z M715.1,594.3h4.1l-2.1-5.9L715.1,594.3z"/>
    <path d="M726.8,589l0.1,1.2c0.8-0.9,1.8-1.4,3.1-1.4c2.2,0,3.3,1.3,3.4,3.8v7h-2.4v-6.8c0-0.7-0.1-1.2-0.4-1.5  c-0.3-0.3-0.8-0.5-1.4-0.5c-1,0-1.7,0.4-2.1,1.3v7.5h-2.4V589H726.8z"/>
    <path d="M742,599.6c-0.1-0.2-0.2-0.5-0.3-1c-0.8,0.8-1.7,1.2-2.8,1.2c-1.1,0-1.9-0.3-2.6-0.9c-0.7-0.6-1-1.4-1-2.2  c0-1.1,0.4-2,1.3-2.6c0.8-0.6,2-0.9,3.6-0.9h1.5v-0.7c0-0.5-0.2-1-0.5-1.3c-0.3-0.3-0.8-0.5-1.4-0.5c-0.5,0-1,0.1-1.3,0.4  c-0.3,0.3-0.5,0.6-0.5,1h-2.4c0-0.6,0.2-1.1,0.6-1.6c0.4-0.5,0.9-0.9,1.6-1.2c0.7-0.3,1.4-0.4,2.2-0.4c1.2,0,2.2,0.3,3,0.9  c0.7,0.6,1.1,1.5,1.1,2.6v4.8c0,1,0.1,1.7,0.4,2.3v0.2H742z M739.4,597.9c0.5,0,0.9-0.1,1.3-0.3c0.4-0.2,0.7-0.5,0.9-0.9v-2h-1.3  c-0.9,0-1.5,0.2-2,0.5c-0.4,0.3-0.7,0.7-0.7,1.3c0,0.5,0.2,0.8,0.5,1.1S738.9,597.9,739.4,597.9z"/>
    <path d="M749.1,599.6h-2.4v-15h2.4V599.6z"/>
    <path d="M755.4,596.2l2.1-7.2h2.5l-4.2,12.2c-0.6,1.8-1.7,2.7-3.3,2.7c-0.3,0-0.7-0.1-1.1-0.2v-1.8l0.4,0c0.6,0,1-0.1,1.4-0.3  s0.5-0.6,0.7-1.1l0.3-0.9l-3.7-10.5h2.6L755.4,596.2z"/>
    <path d="M767.3,596.7c0-0.4-0.2-0.7-0.5-1c-0.3-0.2-0.9-0.4-1.7-0.6c-0.8-0.2-1.5-0.4-2-0.6c-1.2-0.6-1.8-1.4-1.8-2.5  c0-0.9,0.4-1.7,1.2-2.3c0.8-0.6,1.7-0.9,2.9-0.9c1.3,0,2.3,0.3,3.1,0.9c0.8,0.6,1.2,1.4,1.2,2.4h-2.4c0-0.5-0.2-0.8-0.5-1.1  c-0.3-0.3-0.8-0.5-1.3-0.5c-0.5,0-0.9,0.1-1.3,0.4c-0.3,0.2-0.5,0.6-0.5,1c0,0.4,0.2,0.6,0.5,0.8c0.3,0.2,0.9,0.4,1.9,0.6  c0.9,0.2,1.7,0.4,2.2,0.7c0.5,0.3,0.9,0.6,1.2,1c0.3,0.4,0.4,0.9,0.4,1.4c0,1-0.4,1.7-1.2,2.3c-0.8,0.6-1.8,0.9-3.1,0.9  c-0.9,0-1.6-0.2-2.3-0.5c-0.7-0.3-1.2-0.7-1.6-1.3c-0.4-0.5-0.6-1.1-0.6-1.8h2.3c0,0.6,0.2,1,0.6,1.3s0.9,0.5,1.6,0.5  c0.6,0,1.1-0.1,1.4-0.4C767.2,597.4,767.3,597.1,767.3,596.7z"/>
    <path d="M771.7,586.3c0-0.4,0.1-0.7,0.3-0.9c0.2-0.2,0.6-0.4,1-0.4s0.8,0.1,1,0.4s0.4,0.5,0.4,0.9c0,0.4-0.1,0.7-0.4,0.9  s-0.6,0.4-1,0.4s-0.8-0.1-1-0.4C771.8,586.9,771.7,586.6,771.7,586.3z M774.2,599.6h-2.4V589h2.4V599.6z"/>
    <path d="M782.7,596.7c0-0.4-0.2-0.7-0.5-1c-0.3-0.2-0.9-0.4-1.7-0.6c-0.8-0.2-1.5-0.4-2-0.6c-1.2-0.6-1.8-1.4-1.8-2.5  c0-0.9,0.4-1.7,1.2-2.3c0.8-0.6,1.7-0.9,2.9-0.9c1.3,0,2.3,0.3,3.1,0.9c0.8,0.6,1.2,1.4,1.2,2.4h-2.4c0-0.5-0.2-0.8-0.5-1.1  c-0.3-0.3-0.8-0.5-1.3-0.5c-0.5,0-0.9,0.1-1.3,0.4c-0.3,0.2-0.5,0.6-0.5,1c0,0.4,0.2,0.6,0.5,0.8c0.3,0.2,0.9,0.4,1.9,0.6  c0.9,0.2,1.7,0.4,2.2,0.7c0.5,0.3,0.9,0.6,1.2,1c0.3,0.4,0.4,0.9,0.4,1.4c0,1-0.4,1.7-1.2,2.3c-0.8,0.6-1.8,0.9-3.1,0.9  c-0.9,0-1.6-0.2-2.3-0.5c-0.7-0.3-1.2-0.7-1.6-1.3c-0.4-0.5-0.6-1.1-0.6-1.8h2.3c0,0.6,0.2,1,0.6,1.3s0.9,0.5,1.6,0.5  c0.6,0,1.1-0.1,1.4-0.4C782.6,597.4,782.7,597.1,782.7,596.7z"/>
    <path d="M791.8,595.8c0-0.7,0.2-1.3,0.5-1.8c0.4-0.5,1.1-1.2,2.1-2c-0.6-0.7-0.9-1.3-1.2-1.8c-0.2-0.5-0.3-1-0.3-1.4  c0-1.1,0.3-2,1-2.6c0.7-0.6,1.6-1,2.7-1c1,0,1.9,0.3,2.5,0.9c0.7,0.6,1,1.4,1,2.3c0,0.6-0.2,1.1-0.4,1.6c-0.3,0.5-0.8,1-1.5,1.5  l-1,0.7l2.7,3.2c0.4-0.8,0.6-1.7,0.6-2.6h2.1c0,1.8-0.4,3.2-1.2,4.3l2.1,2.5h-2.8l-0.8-0.9c-1,0.8-2.2,1.1-3.6,1.1  s-2.5-0.4-3.4-1.1C792.2,597.9,791.8,596.9,791.8,595.8z M796.5,597.9c0.8,0,1.5-0.3,2.2-0.8l-3.1-3.7l-0.3,0.2  c-0.8,0.6-1.2,1.3-1.2,2c0,0.7,0.2,1.2,0.6,1.6C795.2,597.7,795.7,597.9,796.5,597.9z M795.2,588.7c0,0.5,0.3,1.2,1,2.1l1.1-0.7  l0.3-0.2c0.4-0.4,0.6-0.8,0.6-1.4c0-0.4-0.1-0.7-0.4-1c-0.3-0.3-0.6-0.4-1.1-0.4c-0.5,0-0.8,0.2-1.1,0.5S795.2,588.3,795.2,588.7z"/>
  </g>
  <g class="st4">
    <path d="M709.5,618.1h-2.8v5.5h-2.5v-14.2h5c1.6,0,2.9,0.4,3.8,1.1c0.9,0.7,1.3,1.8,1.3,3.2c0,1-0.2,1.7-0.7,2.4s-1.1,1.1-1.9,1.5  l3.2,5.9v0.1h-2.6L709.5,618.1z M706.7,616.1h2.5c0.8,0,1.5-0.2,2-0.6s0.7-1,0.7-1.7c0-0.8-0.2-1.4-0.6-1.8  c-0.4-0.4-1.1-0.6-1.9-0.6h-2.6V616.1z"/>
    <path d="M721.2,623.8c-1.5,0-2.7-0.5-3.7-1.4c-0.9-0.9-1.4-2.2-1.4-3.8v-0.3c0-1.1,0.2-2,0.6-2.8c0.4-0.8,1-1.5,1.7-1.9  c0.7-0.5,1.6-0.7,2.5-0.7c1.4,0,2.5,0.5,3.3,1.4c0.8,0.9,1.2,2.2,1.2,3.9v1h-6.9c0.1,0.9,0.4,1.6,0.9,2.1c0.5,0.5,1.2,0.8,1.9,0.8  c1.1,0,2-0.4,2.7-1.3l1.3,1.2c-0.4,0.6-1,1.1-1.7,1.5C722.8,623.6,722,623.8,721.2,623.8z M720.9,614.7c-0.7,0-1.2,0.2-1.6,0.7  s-0.7,1.1-0.8,1.9h4.5v-0.2c-0.1-0.8-0.3-1.4-0.6-1.8S721.5,614.7,720.9,614.7z"/>
    <path d="M736.5,618.4c0,1.6-0.4,2.9-1.1,3.9s-1.7,1.5-3,1.5c-1.2,0-2.1-0.4-2.8-1.1v5h-2.4V613h2.2l0.1,1.1  c0.7-0.8,1.6-1.3,2.8-1.3c1.3,0,2.3,0.5,3,1.4s1.1,2.3,1.1,4V618.4z M734.1,618.2c0-1.1-0.2-1.9-0.6-2.5s-1-0.9-1.8-0.9  c-1,0-1.7,0.4-2.1,1.2v4.7c0.4,0.8,1.1,1.2,2.1,1.2c0.8,0,1.3-0.3,1.8-0.9C733.9,620.4,734.1,619.4,734.1,618.2z"/>
    <path d="M738.1,618.2c0-1,0.2-2,0.6-2.8s1-1.5,1.7-1.9s1.6-0.7,2.6-0.7c1.4,0,2.6,0.5,3.5,1.4s1.4,2.1,1.4,3.7l0,0.6  c0,1-0.2,2-0.6,2.8s-1,1.5-1.7,1.9c-0.7,0.4-1.6,0.7-2.6,0.7c-1.5,0-2.7-0.5-3.6-1.5c-0.9-1-1.3-2.3-1.3-4V618.2z M740.4,618.4  c0,1.1,0.2,1.9,0.7,2.6s1.1,0.9,1.9,0.9s1.4-0.3,1.9-0.9c0.4-0.6,0.7-1.5,0.7-2.7c0-1.1-0.2-1.9-0.7-2.5s-1.1-0.9-1.9-0.9  c-0.8,0-1.4,0.3-1.8,0.9C740.7,616.3,740.4,617.2,740.4,618.4z"/>
    <path d="M755.4,615.2c-0.3-0.1-0.6-0.1-1-0.1c-1.1,0-1.8,0.4-2.2,1.2v7.2h-2.4V613h2.3l0.1,1.2c0.6-0.9,1.4-1.4,2.4-1.4  c0.3,0,0.6,0,0.8,0.1L755.4,615.2z"/>
    <path d="M760.4,610.5v2.6h1.9v1.8h-1.9v5.9c0,0.4,0.1,0.7,0.2,0.9c0.2,0.2,0.4,0.3,0.9,0.3c0.3,0,0.5,0,0.8-0.1v1.8  c-0.5,0.1-1.1,0.2-1.6,0.2c-1.8,0-2.7-1-2.7-3v-6h-1.7V613h1.7v-2.6H760.4z"/>
    <path d="M764.1,610.3c0-0.4,0.1-0.7,0.3-0.9c0.2-0.2,0.6-0.4,1-0.4s0.8,0.1,1,0.4s0.4,0.5,0.4,0.9c0,0.4-0.1,0.7-0.4,0.9  s-0.6,0.4-1,0.4s-0.8-0.1-1-0.4C764.2,610.9,764.1,610.6,764.1,610.3z M766.6,623.6h-2.4V613h2.4V623.6z"/>
    <path d="M771.4,613l0.1,1.2c0.8-0.9,1.8-1.4,3.1-1.4c2.2,0,3.3,1.3,3.4,3.8v7h-2.4v-6.8c0-0.7-0.1-1.2-0.4-1.5  c-0.3-0.3-0.8-0.5-1.4-0.5c-1,0-1.7,0.4-2.1,1.3v7.5h-2.4V613H771.4z"/>
    <path d="M779.9,618.2c0-1.6,0.4-3,1.2-3.9s1.8-1.5,3.1-1.5c1.2,0,2.2,0.4,2.8,1.3l0.1-1.1h2.1v10.2c0,1.4-0.4,2.5-1.3,3.3  c-0.9,0.8-2,1.2-3.5,1.2c-0.8,0-1.5-0.2-2.3-0.5c-0.7-0.3-1.3-0.7-1.7-1.3l1.1-1.4c0.7,0.9,1.6,1.3,2.7,1.3c0.8,0,1.4-0.2,1.9-0.6  c0.5-0.4,0.7-1.1,0.7-1.9v-0.7c-0.7,0.8-1.6,1.1-2.7,1.1c-1.2,0-2.2-0.5-3-1.5C780.3,621.3,779.9,620,779.9,618.2z M782.2,618.4  c0,1.1,0.2,1.9,0.6,2.5c0.4,0.6,1,0.9,1.8,0.9c1,0,1.7-0.4,2.1-1.2V616c-0.4-0.8-1.2-1.2-2.1-1.2c-0.8,0-1.4,0.3-1.8,0.9  C782.5,616.3,782.2,617.2,782.2,618.4z"/>
  </g>
  <g>
    <path class="st6" d="M179.3,456.4c-3.7-1.8-19.4-8.8-25.3-11.4c-1-0.4-2.6-1.2-4.1-1.1c-1.6-0.1-3.2,0.6-4.2,1.1  c-14.3,6.3-22.8,10.1-25.3,11.4c-2.6,1.3-3.9,3.4-3.7,6.3c0.9,12.9,5.5,44.3,29.3,55.7c1.2,0.6,2.5,0.8,3.8,0.8h0.1  c1.4,0,2.6-0.3,3.9-0.9c4-1.9,7.6-4.5,10.9-7.7l-1.7-1.7c-3,3-6.5,5.4-10.2,7.2c-0.5,0.2-1.1,0.4-1.6,0.5V482h5.7l10,26.5l1.3-1.7  c8.2-10.2,11.9-23.5,13.6-32.8l0.3-2l-26.1,7.5h-5v-33.1c0.7,0.2,1.4,0.5,2,0.7c5.9,2.6,21.6,9.5,25.2,11.3c1.8,0.9,2.5,2.1,2.4,4  c-0.1,2.1-0.4,4.2-0.6,6.3l2.4,0.3c0.3-2.1,0.5-4.3,0.6-6.5C183.2,459.8,181.9,457.7,179.3,456.4L179.3,456.4z M148.6,516.6  c-0.5-0.1-1.1-0.2-1.6-0.5c-14.2-6.8-21.2-21.2-24.7-34.2h26.3V516.6L148.6,516.6z M148.6,479.6h-26.9c-1.6-6.7-2.3-12.9-2.6-17.1  c-0.1-1.9,0.6-3.1,2.4-4c2.5-1.2,11-5.1,25.2-11.3c0.5-0.2,1.2-0.5,2-0.7L148.6,479.6z M178.8,475.6c-1.6,8.3-4.9,19.2-11.4,28  l-8.5-22.5L178.8,475.6z"/>
    <path class="st6" d="M194.3,457.6l1.7,1.8l-8.9,8.2l-1.7-1.8L194.3,457.6z"/>
    <path class="st6" d="M188.4,469.2h8.8v2.4h-8.8V469.2z"/>
    <path class="st6" d="M190.9,483.1l-5.2-8.5l2.1-1.3l5.2,8.5L190.9,483.1z"/>
    <path class="st6" d="M181.9,514.5l-10.5-3l0.7-2.3l10.5,3L181.9,514.5z"/>
    <path class="st6" d="M165.9,523.9l-2.4-0.3l1.4-10.2l2.4,0.3L165.9,523.9z"/>
    <path class="st6" d="M172.3,520.9l-3.6-6.8l2.1-1.1l3.6,6.8L172.3,520.9z"/>
  </g>
  <g>
    <path class="st6" d="M450.9,445.6v-6h-2.4v6c-17.8,0.6-32.1,15-32.8,32.8h-6v2.4h6c0.6,17.8,15,32.1,32.8,32.8v6h2.4v-6  c17.8-0.6,32.1-15,32.8-32.8h6v-2.4h-6C483.1,460.6,468.7,446.2,450.9,445.6L450.9,445.6z M450.9,511.1v-4.4h-2.4v4.4  c-16.5-0.6-29.7-13.9-30.3-30.3h4.4v-2.4h-4.4c0.6-16.5,13.9-29.7,30.3-30.3v4.4h2.4v-4.4c16.5,0.6,29.7,13.9,30.3,30.3h-4.4v2.4  h4.4C480.7,497.3,467.4,510.5,450.9,511.1L450.9,511.1z"/>
    <path class="st6" d="M449.7,479.3c-2.7,0-4.9,2.2-4.9,4.9c0,1.3,0.6,2.6,1.5,3.5l-0.9,5.8h8.5l-0.9-5.8c1-0.9,1.5-2.2,1.5-3.5  C454.7,481.5,452.4,479.3,449.7,479.3L449.7,479.3z M451.1,486.2l-0.6,0.4l0.7,4.4h-2.9l0.7-4.4l-0.6-0.4c-0.7-0.5-1.1-1.2-1.1-2  c0-1.3,1.1-2.4,2.5-2.4s2.5,1.1,2.5,2.4C452.2,485,451.8,485.7,451.1,486.2L451.1,486.2z"/>
    <path class="st6" d="M461,474.5v-8c0-3.7-3-6.7-6.7-6.7h-9.2c-3.7,0-6.7,3-6.7,6.7v3.9h2.4v-3.9c0-2.4,1.9-4.3,4.3-4.3h9.2  c2.4,0,4.3,1.9,4.3,4.3v8h-19.7c-2.3,0-4.1,1.9-4.1,4.1v16.7c0,2.3,1.9,4.1,4.1,4.1h21.6c2.3,0,4.1-1.9,4.1-4.1v-16.7  C464.7,476.5,463.1,474.7,461,474.5L461,474.5z M462.3,495.3c0,0.9-0.8,1.7-1.7,1.7H439c-0.9,0-1.7-0.8-1.7-1.7v-16.7  c0-0.9,0.8-1.7,1.7-1.7h21.6c0.9,0,1.7,0.8,1.7,1.7L462.3,495.3L462.3,495.3z"/>
  </g>
  <g>
    <rect x="762.3" y="449.5" class="st3" width="0" height="0.9"/>
    <path class="st3" d="M745.1,461.7h20.8c0.8,0,1.4-0.6,1.4-1.4s-0.6-1.4-1.4-1.4h-20.8c-0.8,0-1.4,0.6-1.4,1.4l0,0  C743.7,461.1,744.3,461.7,745.1,461.7z"/>
    <path class="st3" d="M745.1,475.8h20.8c0.8,0,1.4-0.6,1.4-1.4s-0.6-1.4-1.4-1.4h-20.8c-0.8,0-1.4,0.6-1.4,1.4l0,0  C743.7,475.2,744.3,475.8,745.1,475.8z"/>
    <circle class="st3" cx="746.4" cy="446.1" r="1.7"/>
    <path class="st3" d="M745.1,468.5h20.8c0.8,0,1.4-0.6,1.4-1.4s-0.6-1.4-1.4-1.4h-20.8c-0.8,0-1.4,0.6-1.4,1.4l0,0  C743.7,467.9,744.3,468.5,745.1,468.5z"/>
    <path class="st3" d="M738.5,501.7c-0.5-0.6-1.4-0.6-2-0.1l-6.5,5.9l-2.1-2.1c-0.5-0.5-1.4-0.5-2,0c-0.5,0.5-0.5,1.4,0,2l3.1,3.1  c0.3,0.3,0.6,0.4,1,0.4c0.3,0,0.7-0.1,0.9-0.4l7.5-6.8C739,503.1,739,502.2,738.5,501.7L738.5,501.7z"/>
    <path class="st3" d="M727.7,494.2c-0.5,0.5-0.5,1.4,0,2c0.5,0.5,1.4,0.5,2,0l2.3-2.3l2.3,2.3c0.3,0.3,0.6,0.4,1,0.4s0.7-0.1,1-0.4  c0.5-0.5,0.5-1.4,0-2l-2.3-2.3l2.3-2.3c0.5-0.5,0.5-1.4,0-2c-0.5-0.5-1.4-0.5-2,0l-2.3,2.3l-2.3-2.3c-0.5-0.5-1.4-0.5-2,0  c-0.5,0.5-0.5,1.4,0,2l2.3,2.3L727.7,494.2L727.7,494.2z"/>
    <path class="st3" d="M745.1,490h20.8c0.8,0,1.4-0.6,1.4-1.4s-0.6-1.4-1.4-1.4h-20.8c-0.8,0-1.4,0.6-1.4,1.4l0,0  C743.7,489.4,744.3,490,745.1,490z"/>
    <path class="st3" d="M729,468.1c0.3,0.3,0.6,0.4,1,0.4c0.3,0,0.7-0.1,0.9-0.4l7.5-6.8c0.6-0.5,0.6-1.4,0.1-2s-1.4-0.6-2-0.1  l-6.5,5.9l-2.1-2.1c-0.5-0.5-1.4-0.5-2,0c-0.5,0.5-0.5,1.4,0,2L729,468.1z"/>
    <path class="st3" d="M738.5,473.5c-0.5-0.6-1.4-0.6-2-0.1l-6.5,5.9l-2.1-2.1c-0.5-0.5-1.4-0.5-2,0c-0.5,0.5-0.5,1.4,0,2l3.1,3.1  c0.3,0.3,0.6,0.4,1,0.4c0.3,0,0.7-0.1,0.9-0.4l7.5-6.8C739,474.9,739,474.1,738.5,473.5L738.5,473.5z"/>
    <path class="st3" d="M730.5,449.5v0.9h-11.6c-0.8,0-1.4,0.6-1.4,1.4v66.3c0,0.8,0.6,1.4,1.4,1.4h55c0.8,0,1.4-0.6,1.4-1.4v-66.3  c0-0.8-0.6-1.4-1.4-1.4h-8.4l0,0h-3.2l0,0l0,0v-0.9l0,0v-3.7c0-0.8-0.6-1.4-1.4-1.4h-7.3c-1.2-2.9-4-4.9-7.2-4.9s-6.1,2-7.2,4.9  h-7.3c-0.8,0-1.4,0.6-1.4,1.4v0.9l0,0L730.5,449.5L730.5,449.5z M733.3,447.2h6.9c0.6,0,1.2-0.4,1.4-1.1c0.5-2.3,2.5-3.8,4.9-3.8  c2.3,0,4.3,1.6,4.9,3.8c0.2,0.6,0.7,1.1,1.4,1.1h6.9v5.5h-26.2L733.3,447.2z M730.5,453.2v0.9c0,0.8,0.6,1.4,1.4,1.4h29l0,0  c0.8,0,1.4-0.6,1.4-1.4v-0.9h10.2v63.5h-52.2v-63.5H730.5z"/>
    <path class="st3" d="M745.1,482.6h20.8c0.8,0,1.4-0.6,1.4-1.4s-0.6-1.4-1.4-1.4h-20.8c-0.8,0-1.4,0.6-1.4,1.4l0,0  C743.7,482,744.3,482.6,745.1,482.6z"/>
    <path class="st3" d="M745.1,496.8h20.8c0.8,0,1.4-0.6,1.4-1.4s-0.6-1.4-1.4-1.4h-20.8c-0.8,0-1.4,0.6-1.4,1.4l0,0  C743.7,496.2,744.3,496.8,745.1,496.8z"/>
    <path class="st3" d="M745.1,510.9h20.8c0.8,0,1.4-0.6,1.4-1.4s-0.6-1.4-1.4-1.4h-20.8c-0.8,0-1.4,0.6-1.4,1.4l0,0  C743.7,510.3,744.3,510.9,745.1,510.9z"/>
    <path class="st3" d="M745.1,504.1h20.8c0.8,0,1.4-0.6,1.4-1.4s-0.6-1.4-1.4-1.4h-20.8c-0.8,0-1.4,0.6-1.4,1.4l0,0  C743.7,503.5,744.3,504.1,745.1,504.1z"/>
    <polygon class="st3" points="762.3,450.4 765.5,450.4 765.5,450.4  "/>
  </g>
  <path class="st7" d="M780.6,58.2c-0.6-0.9-1.5-1.4-2.5-1.3c-1,0-1.9,0.6-2.4,1.5s-0.4,2,0.1,2.9c4,6.3,5.8,13.8,5.2,21.2 c-0.6,7.5-3.7,14.5-8.7,20.1s-11.7,9.3-19.1,10.7c-7.4,1.4-15,0.3-21.7-3s-12.1-8.8-15.4-15.5c-3.3-6.7-4.3-14.3-2.9-21.7 c1.4-7.4,5.2-14,10.8-19s12.6-8,20.1-8.7V54c-7.4,0.8-14.1,4.8-18.3,10.9s-5.6,13.8-3.8,21s6.7,13.3,13.3,16.6 c6.6,3.4,14.4,3.7,21.3,0.9c6.9-2.8,12.2-8.4,14.6-15.5c2.4-7,1.7-14.8-2.1-21.2c-0.5-0.8-1.5-1.3-2.5-1.3s-1.9,0.5-2.4,1.4 s-0.5,1.9-0.1,2.8c2.9,5,3.6,10.9,1.8,16.4s-5.8,9.9-11.1,12.2c-5.3,2.3-11.3,2.2-16.5-0.3s-9.1-7.1-10.6-12.6 c-1.6-5.5-0.7-11.5,2.4-16.3c3.1-4.8,8.2-8.1,13.9-8.9v8.7l0,0c-3.6,0.9-6.6,3.6-7.9,7.1c-1.3,3.5-0.8,7.4,1.3,10.5s5.6,4.9,9.4,4.9 c3.7,0,7.2-1.8,9.4-4.9c2.1-3.1,2.6-7,1.3-10.5s-4.2-6.2-7.9-7.1V42.6c0-0.8-0.3-1.5-0.8-2s-1.3-0.8-2-0.8c-8.9,0-17.5,3-24.5,8.4 s-12,13.1-14.2,21.7s-1.5,17.7,2.1,25.8c3.5,8.1,9.7,14.9,17.5,19.1c7.8,4.3,16.8,5.8,25.5,4.4c8.8-1.4,16.8-5.7,22.9-12.2 c6.1-6.5,9.8-14.8,10.6-23.7C787.5,74.6,785.3,65.7,780.6,58.2L780.6,58.2z M752.5,79.8c0,1.5-0.6,3-1.7,4c-1.1,1.1-2.5,1.7-4,1.7 s-3-0.6-4-1.7c-1.1-1.1-1.7-2.5-1.7-4s0.6-3,1.7-4c1.1-1.1,2.5-1.7,4-1.7s3,0.6,4,1.7C751.9,76.8,752.5,78.3,752.5,79.8z"/>
  <polyline class="st8" points="865.1,172.6 883.1,190.5 883.2,190.6 901.1,172.7 " style="stroke: rgb(0, 0, 0);"/>
  <polyline class="st8" points="5,369.2 22.9,387.2 23.1,387.3 41,369.4 " style="stroke: rgb(0, 0, 0);"/>
</svg>